<svg width="500" height="500" viewBox="0 0 500 500" xmlns="http://www.w3.org/2000/svg"><title>arrow-down</title><path d="M495.004 126.06l-25.048-26.714c-3.338-3.568-7.183-5.346-11.53-5.346-4.336 0-8.179 1.778-11.516 5.346L250.003 309.359 53.104 99.35c-3.339-3.567-7.182-5.345-11.523-5.345-4.344 0-8.187 1.778-11.524 5.345L5.012 126.068C1.667 129.628 0 133.728 0 138.36c0 4.629 1.672 8.728 5.012 12.288l233.467 249.025c3.337 3.562 7.182 5.342 11.524 5.342 4.341 0 8.179-1.78 11.515-5.342l233.486-249.025c3.338-3.562 4.996-7.661 4.996-12.288 0-4.633-1.658-8.732-4.996-12.3z" fill-rule="evenodd"/></svg>