<svg width="500" height="500" viewBox="0 0 500 500" xmlns="http://www.w3.org/2000/svg"><title>arrow-next</title><path d="M138.06 4.996l-26.714 25.048c-3.568 3.338-5.346 7.183-5.346 11.53 0 4.336 1.778 8.179 5.346 11.516l210.013 196.907L111.35 446.896c-3.567 3.339-5.345 7.182-5.345 11.523 0 4.344 1.778 8.187 5.345 11.524l26.717 25.045c3.56 3.345 7.66 5.012 12.292 5.012 4.629 0 8.728-1.672 12.288-5.012l249.025-233.467c3.562-3.337 5.342-7.182 5.342-11.524 0-4.341-1.78-8.179-5.342-11.515L162.648 4.996C159.086 1.658 154.987 0 150.36 0c-4.633 0-8.732 1.658-12.3 4.996z" fill="#FF4E00" fill-rule="evenodd"/></svg>