<svg width="20" height="20" viewBox="0 0 20 20" xmlns="http://www.w3.org/2000/svg"><title>icon-c-message</title><g fill="none" fill-rule="evenodd"><path d="M14 8c-3.308 0-6 2.553-6 5.692 0 3.138 2.692 5.692 6 5.692a6.23 6.23 0 0 0 2.382-.467c1.347.794 3.16 1.068 3.238 1.08a.332.332 0 0 0 .345-.19.364.364 0 0 0-.063-.405c-.42-.443-.714-1.388-.83-2.67a5.45 5.45 0 0 0 .928-3.04C20 10.553 17.308 8 14 8z" fill="#FFF"/><path d="M17 15a1.001 1.001 0 0 1 0-2 1.001 1.001 0 0 1 0 2z" fill="#0E56A1"/><path d="M7.333 14c0-3.353 2.991-6.08 6.667-6.08 2.563 0 4.789 1.327 5.905 3.267.062-.449.095-.9.095-1.354C20 4.411 15.589 0 10.167 0 4.744 0 .333 4.411.333 9.833c0 1.716.45 3.401 1.3 4.884L.016 19.56a.333.333 0 0 0 .401.428l5.29-1.392a9.918 9.918 0 0 0 5.664.99C9 18.654 7.333 16.501 7.333 14z" fill="#49B8FA"/><path d="M14 15a1.001 1.001 0 0 1 0-2 1.001 1.001 0 0 1 0 2zm-3 0a1.001 1.001 0 0 1 0-2 1.001 1.001 0 0 1 0 2z" fill="#0E56A1"/></g></svg>