<svg width="21" height="18" viewBox="0 0 21 18" xmlns="http://www.w3.org/2000/svg"><title>icon-c-tele</title><path d="M20.923 1.876l-3.204 15.32a1.01 1.01 0 0 1-1.586.607l-4.838-3.551L8.83 16.77a.819.819 0 0 1-1.366-.327l-1.78-5.648-4.77-1.408C.289 9.202.252 8.33.86 8.093L19.628.779a.966.966 0 0 1 1.295 1.097zm-3.919 1.94L6.71 10.2a.468.468 0 0 0-.2.537l1.38 4.45c.03.093.166.08.177-.017l.336-2.984a.468.468 0 0 1 .155-.298l8.718-7.71c.208-.184-.034-.51-.27-.363z" fill="#08C" fill-rule="evenodd"/></svg>