<svg width="20" height="22" viewBox="0 0 20 22" xmlns="http://www.w3.org/2000/svg"><title>icon-c-viber</title><path d="M15.507.514a29.742 29.742 0 0 0-11.014 0C2.894.865.883 2.766.49 4.295a20.508 20.508 0 0 0 0 8.917c.394 1.529 2.404 3.43 4.003 3.78h.001a.15.15 0 0 1 .123.147v4.334c0 .217.268.323.42.167l2.088-2.113 1.962-1.987a.15.15 0 0 1 .11-.044 29.78 29.78 0 0 0 6.31-.503c1.598-.351 3.61-2.252 4.002-3.781a20.483 20.483 0 0 0 0-8.917c-.392-1.529-2.403-3.43-4.002-3.78zm.055 12.918c-.32.67-.785 1.227-1.456 1.582-.189.1-.415.133-.629.198-.246-.073-.48-.123-.697-.212-2.254-.922-4.328-2.112-5.97-3.936-.935-1.038-1.666-2.209-2.284-3.448-.294-.588-.54-1.198-.792-1.805-.23-.554.108-1.125.464-1.542a3.67 3.67 0 0 1 1.23-.911c.363-.173.722-.073.987.23.574.658 1.101 1.348 1.528 2.11.263.468.19 1.04-.285 1.36-.116.077-.221.168-.329.255a1.069 1.069 0 0 0-.248.258.698.698 0 0 0-.048.621c.587 1.59 1.576 2.827 3.198 3.493.26.106.52.23.82.196.5-.058.663-.6 1.014-.883.343-.277.781-.28 1.15-.05.37.231.729.479 1.085.73.35.245.698.486 1.02.766.31.27.417.623.242.988zm-2.91-5.182a.456.456 0 0 1-.031-.001c-.226-.008-.348-.14-.373-.352-.017-.156-.031-.313-.069-.464a1.306 1.306 0 0 0-.489-.757 1.282 1.282 0 0 0-.398-.19c-.18-.051-.369-.037-.55-.08-.195-.048-.304-.205-.273-.386a.353.353 0 0 1 .374-.281c1.143.081 1.96.664 2.076 1.991.008.094.018.193-.003.283a.292.292 0 0 1-.264.237zm-.71-3.035c-.35-.17-.73-.275-1.115-.338-.168-.027-.337-.044-.506-.067-.205-.028-.314-.157-.304-.355.009-.187.147-.32.353-.31.676.039 1.33.183 1.931.497 1.223.639 1.922 1.647 2.126 2.994.009.061.024.121.028.183.012.15.02.302.031.502-.005.036-.007.121-.029.202-.078.292-.527.328-.63.034a.868.868 0 0 1-.036-.282c0-.615-.136-1.23-.451-1.767a3.316 3.316 0 0 0-1.398-1.293zm3.779 4.162c-.236.002-.343-.193-.358-.402-.03-.414-.051-.83-.11-1.24-.304-2.166-2.055-3.958-4.241-4.342-.329-.058-.666-.074-.999-.108-.21-.022-.486-.034-.533-.293-.039-.216.146-.389.355-.4.057-.003.114 0 .171 0 2.831.078.173.006.008 0 2.944.085 5.362 2.014 5.88 4.886.088.49.12.99.16 1.488.016.21-.104.408-.333.41z" fill="#59267C" fill-rule="evenodd"/></svg>