<svg width="18" height="18" viewBox="0 0 18 18" xmlns="http://www.w3.org/2000/svg"><title>icon-c-wa</title><path d="M0 9c0 1.73.491 3.408 1.421 4.856l.224.348-.876 3.109 3.217-.828.332.203A8.982 8.982 0 0 0 9 18c4.963 0 9-4.037 9-9s-4.037-9-9-9-9 4.037-9 9zm14.407 3.29a2.27 2.27 0 0 1-.988 1.442c-.644.412-1.478.614-2.539.314-3.291-.93-5.153-3.11-6.151-4.472C3.73 8.212 3.344 6.85 3.594 5.738c.167-.746.712-1.318 1.053-1.614a.85.85 0 0 1 .605-.207l.703.038c.139.008.26.093.315.221l1.025 2.397a.364.364 0 0 1-.06.382l-.891 1.031a.27.27 0 0 0-.034.301c1.174 2.263 3.315 3.159 3.954 3.384.109.038.23.002.3-.09l.933-1.21a.364.364 0 0 1 .441-.108l2.377 1.096c.155.071.24.24.204.407l-.112.525z" fill="#25D366" fill-rule="evenodd"/></svg>