<svg width="469" height="500" viewBox="0 0 469 500" xmlns="http://www.w3.org/2000/svg"><title>Combined Shape</title><path d="M460.38 33.333h-58.594v-25c0-4.608-3.742-8.333-8.37-8.333H334.82c-4.628 0-8.37 3.725-8.37 8.333v25H142.299v-25c0-4.608-3.742-8.333-8.37-8.333H75.335c-4.63 0-8.37 3.725-8.37 8.333v25H8.37c-4.63 0-8.37 3.725-8.37 8.334v450C0 496.275 3.742 500 8.37 500h452.01c4.628 0 8.37-3.725 8.37-8.333v-450c0-4.609-3.742-8.334-8.37-8.334zM343.191 16.667h41.853v50h-41.853v-50zm-259.487 0h41.853v50H83.705v-50zM16.741 50h50.223v25c0 4.608 3.742 8.333 8.37 8.333h58.595c4.628 0 8.37-3.725 8.37-8.333V50h184.152v25c0 4.608 3.742 8.333 8.37 8.333h58.594c4.63 0 8.37-3.725 8.37-8.333V50h50.224v75H16.74V50zm0 433.333V141.667H452.01v341.666H16.74zM301.34 191.667H75.335v241.666h318.08V191.667H301.34zm-58.593 16.666h58.593v58.334h-58.593v-58.334zm58.593 133.334h-58.593v-58.334h58.593v58.334zm-133.928-58.334h58.593v58.334h-58.593v-58.334zm0-75h58.593v58.334h-58.593v-58.334zm-75.335 0h58.594v58.334H92.076v-58.334zm0 75h58.594v58.334H92.076v-58.334zm58.594 133.334H92.076v-58.334h58.594v58.334zm75.334 0h-58.593v-58.334h58.593v58.334zm75.335 0h-58.593v-58.334h58.593v58.334zm75.335 0H318.08v-58.334h58.594v58.334zm0-75H318.08v-58.334h58.594v58.334zm0-133.334v58.334H318.08v-58.334h58.594z" fill="#B7B6B0" fill-rule="evenodd"/></svg>