<svg width="500" height="500" viewBox="0 0 500 500" xmlns="http://www.w3.org/2000/svg"><title>Artboard</title><g fill="#FF2456" fill-rule="evenodd"><path d="M115.072 175.277c9.875 7.163 16.343 18.774 16.444 31.882l.365 12.772 108.023-110.395c7.6-7.627 8.77-19.899 2.1-28.355-4.208-5.333-10.344-8-16.482-8.001-5.376 0-10.75 2.048-14.83 6.14l-95.62 95.957zM26.376 353.025l6.988-8.15L52.4 205.978c.678-18.296 13.752-33.457 31.018-37.277l-.554-19.493c0-11.46-9.345-20.837-20.765-20.837s-20.764 9.376-20.764 20.837L21.398 294.674a.071.071 0 0 1-.019.04L2.13 317.174a8.858 8.858 0 0 0 .456 12.015l23.79 23.837zm238.207-239.381c8.63 2.04 16.368 6.924 22.017 14.086a39.213 39.213 0 0 1 7.497 15.828l11.212-11.25c7.6-7.628 8.77-19.898 2.099-28.356-4.207-5.333-10.345-8-16.482-8-5.376 0-10.75 2.047-14.83 6.138l-11.513 11.554zm140.415 8.159a17.17 17.17 0 0 0 9.983-3.196l43.225-30.693c7.803-5.538 9.652-16.38 4.13-24.21-5.518-7.83-16.321-9.689-24.124-4.145l-43.224 30.694c-7.803 5.537-9.652 16.378-4.131 24.209a17.263 17.263 0 0 0 14.14 7.341zm-76.09-41.546c1.93.73 3.912 1.076 5.86 1.076a16.666 16.666 0 0 0 15.598-10.843l17.939-47.882c3.238-8.642-1.12-18.284-9.733-21.533-8.615-3.252-18.22 1.126-21.458 9.767l-17.94 47.882c-3.238 8.642 1.122 18.284 9.734 21.533zm154.642 86.364h-.34l-50.326.424c-9.086.184-16.301 7.172-16.118 16.287.181 9.002 7.512 16.314 16.447 16.314h.34l50.326-.861c9.086-.188 16.301-7.52 16.118-16.637-.181-9.002-7.512-15.527-16.447-15.527z"/><path d="M372.978 329.422c8.734-8.764 8.118-23.5-1.854-31.421-3.734-2.967-8.215-4.387-12.706-4.387-5.65 0-11.318 2.246-15.551 6.494l-46.981 47.146a9.64 9.64 0 0 1-6.85 2.847c-2.48 0-4.958-.95-6.85-2.847l-.122-.124c-4.094-4.107-4.094-10.77 0-14.876l75.782-76.05c7.602-7.627 8.772-19.899 2.1-28.356-4.206-5.334-10.344-8-16.48-8-5.377 0-10.751 2.046-14.831 6.14l-76.506 76.774a10.046 10.046 0 0 1-7.14 2.968c-2.585 0-5.17-.99-7.141-2.968-4.002-4.017-4.002-10.528 0-14.543l97.306-97.647c7.6-7.627 8.77-19.899 2.1-28.357-4.207-5.333-10.345-8-16.481-8-5.378 0-10.753 2.047-14.831 6.14l-97.765 98.106a10.182 10.182 0 0 1-7.237 3.01c-2.619 0-5.24-1.004-7.236-3.01-3.949-3.962-3.949-10.386 0-14.346L269.75 167.8c7.6-7.627 8.77-19.899 2.1-28.356-4.207-5.334-10.345-8-16.481-8-5.378 0-10.75 2.046-14.83 6.139l-110.394 110.78c-1.961 1.968-4.381 2.852-6.754 2.852-4.864 0-9.542-3.712-9.704-9.415l-.98-34.329c0-11.46-9.343-20.837-20.763-20.837-11.42 0-20.765 9.377-20.765 20.837L51.245 352.937a.077.077 0 0 1-.02.043l-19.249 22.454a8.856 8.856 0 0 0 .457 12.017l109.2 109.411a8.777 8.777 0 0 0 11.58.753l24.538-18.909a8.965 8.965 0 0 1 3.56-1.64c42.568-9.312 91.028-46.653 137.385-93.174l54.282-54.47zM255.371 112.57h.01"/></g></svg>