<svg width="500" height="500" viewBox="0 0 500 500" xmlns="http://www.w3.org/2000/svg"><title>close</title><path d="M283.912 249.996L492.976 40.935c9.365-9.365 9.365-24.547 0-33.911-9.365-9.365-24.547-9.365-33.912 0L250 216.084 40.936 7.057c-9.365-9.365-24.547-9.365-33.912 0-9.365 9.364-9.365 24.546 0 33.91l209.064 209.062L7.056 459.058c-9.365 9.364-9.365 24.546 0 33.91 4.698 4.667 10.803 7.032 16.94 7.032 6.136 0 12.273-2.333 16.94-7.032L250 283.908l209.064 209.06c4.699 4.667 10.804 7.032 16.94 7.032 6.137 0 12.274-2.333 16.94-7.032 9.365-9.364 9.365-24.546 0-33.91L283.912 249.995z" fill="#B7B6B0" fill-rule="evenodd"/></svg>