<svg width="500" height="500" viewBox="0 0 500 500" xmlns="http://www.w3.org/2000/svg"><title>cross</title><path d="M250 294.867l172.465 164.38c2.99 2.847 6.429 4.261 10.311 4.261 3.888 0 7.327-1.414 10.32-4.261l22.418-21.367c2.994-2.847 4.486-6.127 4.486-9.834 0-3.7-1.492-6.977-4.486-9.825L290.893 251.788a13.194 13.194 0 0 0 0-3.063L465.51 82.299c2.993-2.849 4.485-6.127 4.485-9.83 0-3.705-1.492-6.983-4.485-9.83l-22.42-21.364C440.104 38.422 436.665 37 432.777 37c-3.884 0-7.323 1.427-10.31 4.275L250 205.642 77.535 41.262C74.545 38.415 71.106 37 67.224 37c-3.888 0-7.327 1.415-10.32 4.262L34.485 62.628C31.492 65.475 30 68.755 30 72.463c0 3.699 1.492 6.977 4.486 9.824l174.621 166.434a13.194 13.194 0 0 0 0 3.063L34.49 418.209c-2.993 2.85-4.485 6.127-4.485 9.83 0 3.705 1.492 6.984 4.485 9.83l22.42 21.364c2.987 2.853 6.426 4.275 10.314 4.275 3.884 0 7.323-1.426 10.31-4.275L250 294.867z" fill-rule="evenodd"/></svg>