<svg width="120" height="120" viewBox="0 0 120 120" xmlns="http://www.w3.org/2000/svg" xmlns:xlink="http://www.w3.org/1999/xlink"><title>Combined Shape</title><defs><path d="M43.906 8.942a53.1 53.1 0 0 1 5.288-1.427C51.572 4.613 56.059 0 60.545 0c4.5 0 8.998 4.639 11.372 7.539 1.776.386 3.52.86 5.225 1.418 3.57-1.295 9.409-2.812 13.13-.663 3.735 2.156 5.339 8.001 5.998 11.74a53.83 53.83 0 0 1 3.543 3.497c3.528.504 10.57 2.015 12.984 6.196 2.423 4.198.184 11.087-1.141 14.38a53.104 53.104 0 0 1 1.108 4.227c2.91 2.43 7.236 6.775 7.236 11.12 0 4.254-4.147 8.508-7.05 10.965a53.115 53.115 0 0 1-1.358 5.316c1.315 3.226 3.668 10.272 1.205 14.538-2.507 4.342-10.002 5.803-13.373 6.25a53.834 53.834 0 0 1-3.08 3.013c-.61 3.704-2.19 9.93-6.071 12.17-3.91 2.258-10.158.469-13.656-.858a52.96 52.96 0 0 1-4.343 1.17C70.017 114.862 65.28 120 60.545 120c-4.722 0-9.444-5.11-11.708-7.957a53.098 53.098 0 0 1-4.404-1.18c-3.506 1.326-9.72 3.092-13.615.843-3.847-2.221-5.433-8.359-6.055-12.074a53.83 53.83 0 0 1-3.2-3.123c-3.419-.463-10.788-1.938-13.269-6.236-2.431-4.211-.17-11.13 1.153-14.411a53.1 53.1 0 0 1-1.19-4.463C5.487 69.241 0 64.348 0 59.455c0-5.016 5.765-10.032 8.46-12.102.272-1.14.58-2.264.924-3.374-1.33-3.34-3.482-10.108-1.09-14.252 2.39-4.14 9.318-5.662 12.879-6.18a53.833 53.833 0 0 1 3.665-3.61c.67-3.742 2.278-9.506 5.98-11.643 3.707-2.14 9.513-.644 13.088.648z" id="a"/><mask id="b" x="0" y="0" width="120" height="120" fill="#fff"><use xlink:href="#a"/></mask></defs><use mask="url(#b)" xlink:href="#a" stroke="#FFC600" stroke-width="6" fill="none" fill-rule="evenodd"/></svg>