<svg width="500" height="500" viewBox="0 0 500 500" xmlns="http://www.w3.org/2000/svg"><title>fbf</title><path d="M432.622 0H67.376C30.166 0 0 30.165 0 67.376v365.249C0 469.836 30.165 500 67.376 500h180.138l.307-178.673h-46.42c-6.032 0-10.928-4.878-10.951-10.91l-.223-57.594c-.023-6.066 4.888-10.995 10.953-10.995h46.335v-55.65c0-64.582 39.443-99.747 97.054-99.747h47.274c6.048 0 10.953 4.903 10.953 10.953v48.563c0 6.048-4.901 10.95-10.947 10.954l-29.012.013c-31.33 0-37.397 14.888-37.397 36.737v48.178h68.844c6.56 0 11.65 5.728 10.876 12.242l-6.826 57.594a10.954 10.954 0 0 1-10.876 9.664h-61.711l-.307 178.674h107.185c37.21 0 67.375-30.165 67.375-67.376V67.376C499.999 30.165 469.834 0 432.622 0z" fill-rule="evenodd"/></svg>