<svg width="21" height="23" viewBox="0 0 21 23" xmlns="http://www.w3.org/2000/svg"><title>icon_photo</title><path d="M15 9.637C15 7.081 12.894 5 10.307 5 7.72 5 5.614 7.08 5.614 9.637c0 2.345 1.771 4.288 4.062 4.594v3.402c-.884-1.735-2.655-2.736-5.045-2.736a.627.627 0 0 0-.631.624c0 3.512 2.121 5.609 5.676 5.61v1.246c0 .344.282.623.631.623a.627.627 0 0 0 .631-.623V14.23c2.291-.306 4.063-2.249 4.062-4.594zm-9.706 6.539c2.183.215 3.504 1.52 3.721 3.678-2.814-.258-3.57-2.176-3.721-3.678zm5.013-3.15c-1.892 0-3.431-1.52-3.431-3.39s1.54-3.39 3.431-3.39c1.892 0 3.431 1.52 3.431 3.39s-1.539 3.39-3.43 3.39zm1.015-10.859c.292.144.646.03.79-.252.357-.688 1.222-.963 1.925-.619a1.38 1.38 0 0 1 .634 1.874.567.567 0 0 0 .26.77c.085.04.176.06.264.06a.592.592 0 0 0 .527-.317c.646-1.25.128-2.781-1.155-3.41-1.283-.632-2.855-.128-3.504 1.124a.566.566 0 0 0 .26.77zm9.642 6.383a3 3 0 0 0-1.185-1.968 2.924 2.924 0 0 0-2.21-.546.68.68 0 0 0-.561.777.67.67 0 0 0 .767.567c.434-.067.863.037 1.213.299.354.26.584.644.651 1.082.068.437-.037.873-.294 1.23-.258.356-.636.59-1.07.657a.68.68 0 0 0-.56.777.673.673 0 0 0 .766.566 2.95 2.95 0 0 0 1.946-1.2c.468-.65.66-1.446.537-2.24zm-4.484 5.604a.678.678 0 0 0-.074.921c.535.67.453 1.676-.183 2.242a1.454 1.454 0 0 1-2.127-.192.6.6 0 0 0-.875-.08.679.679 0 0 0-.076.921A2.688 2.688 0 0 0 15.258 19c.647 0 1.268-.238 1.765-.684 1.16-1.032 1.308-2.863.333-4.083a.599.599 0 0 0-.875-.079zM3.254 12.645c-.968.038-1.776-.668-1.82-1.576-.019-.439.144-.86.458-1.184a1.778 1.778 0 0 1 1.212-.532c.395-.015.7-.332.684-.705-.016-.374-.345-.665-.746-.647a3.243 3.243 0 0 0-2.206.97 2.882 2.882 0 0 0-.833 2.157C.078 12.738 1.49 14 3.179 14c.045 0 .09 0 .135-.003.396-.015.702-.33.685-.704-.015-.374-.372-.673-.745-.648zm1.032-6.757c.276-.21.351-.633.165-.946-.449-.759-.266-1.793.407-2.3.671-.508 1.586-.301 2.037.461.187.313.56.395.838.186.276-.21.35-.633.164-.945C7.08.958 5.414.582 4.19 1.507c-1.227.926-1.558 2.807-.74 4.19a.587.587 0 0 0 .5.303.57.57 0 0 0 .335-.112z" fill-rule="evenodd"/></svg>