<svg width="500" height="500" viewBox="0 0 500 500" xmlns="http://www.w3.org/2000/svg"><title>gp</title><path d="M174.469 282.49h77.69c-13.636 38.471-50.571 66.054-93.811 65.736-52.467-.387-95.85-42.267-97.886-94.58-2.184-56.077 42.904-102.392 98.627-102.392 25.478 0 48.729 9.686 66.258 25.559 4.151 3.76 10.471 3.784 14.555-.051l28.535-26.798c4.462-4.192 4.479-11.27.03-15.475-27.799-26.278-65.09-42.658-106.212-43.46C74.545 89.322.615 161.078.004 248.61c-.616 88.19 70.845 159.873 159.085 159.873 84.858 0 154.18-66.298 158.824-149.813.124-1.047.205-36.433.205-36.433h-143.65c-5.887 0-10.66 4.762-10.66 10.637v38.98c0 5.875 4.774 10.637 10.66 10.637zm276.121-51.353v-39.569c0-5.349-4.345-9.685-9.705-9.685h-33.37c-5.36 0-9.705 4.336-9.705 9.685v39.57h-39.65c-5.36 0-9.704 4.335-9.704 9.684v33.304c0 5.35 4.344 9.685 9.704 9.685h39.649v39.57c0 5.349 4.344 9.684 9.704 9.684h33.37c5.36 0 9.705-4.335 9.705-9.685v-39.569h39.649c5.36 0 9.704-4.335 9.704-9.685v-33.304c0-5.349-4.344-9.685-9.704-9.685h-39.649z" fill="#F34A38" fill-rule="evenodd"/></svg>