<svg width="60" height="67" viewBox="0 0 60 67" xmlns="http://www.w3.org/2000/svg"><title>icon_boy</title><g fill-rule="evenodd"><circle cx="16.5" cy="41.5" r="2.5"/><circle cx="43.5" cy="41.5" r="2.5"/><path d="M17 34c-1.363 0-2.645.563-3.61 1.586a1.475 1.475 0 0 0 0 2 1.28 1.28 0 0 0 1.886 0A2.354 2.354 0 0 1 17 36.829c.651 0 1.263.268 1.723.757.26.276.602.414.943.414.342 0 .683-.138.943-.414a1.475 1.475 0 0 0 0-2C19.645 34.563 18.363 34 17 34zm22.39 1.584a1.477 1.477 0 0 0 0 2.001 1.28 1.28 0 0 0 1.886 0 2.342 2.342 0 0 1 3.447 0c.26.277.602.415.943.415.342 0 .683-.138.943-.415a1.476 1.476 0 0 0 0-2.001c-1.99-2.112-5.228-2.112-7.218 0zm-7.505 15.795a3.28 3.28 0 0 1-2.385 1.033 3.28 3.28 0 0 1-2.386-1.033 1.201 1.201 0 0 0-1.751 0 1.336 1.336 0 0 0 0 1.83C26.468 54.364 27.937 55 29.5 55c1.563 0 3.032-.636 4.137-1.79a1.336 1.336 0 0 0 0-1.831 1.201 1.201 0 0 0-1.752 0z"/><path d="M60 40.142c0-3.432-2.497-6.294-5.78-6.89V12.116a8.129 8.129 0 0 0-3.672-6.8 8.236 8.236 0 0 0-7.264-.898L35.3 1.725C29.167-.344 22.711-.556 16.63 1.111 8.669 3.294 4.104 7.91 3.4 14.471a9.571 9.571 0 0 0-1.456 2.725l-.619 1.82a2.155 2.155 0 0 0 .912 2.557c.878.552 1.97.44 2.716-.277.255-.246.533-.452.827-.625v12.58C2.497 33.85 0 36.712 0 40.143c0 3.57 2.7 6.522 6.177 6.951.873 4.791 3.168 9.21 6.676 12.747C17.433 64.457 23.523 67 30 67h.002c6.469 0 12.55-2.504 17.124-7.05 3.573-3.55 5.892-8.014 6.737-12.862C57.32 46.641 60 43.698 60 40.142zM49.143 7.422c1.61 1.061 2.534 2.772 2.534 4.694v16.533c-3.946-.61-6.976-4.009-6.976-8.098l-.105-13.892a5.597 5.597 0 0 1 4.547.762zM4.106 18.73l.248-.727a7.103 7.103 0 0 1 3.943-4.24 7.171 7.171 0 0 1 5.81.09c3.85 1.782 8.505.82 11.32-2.342l.314-.354a1.258 1.258 0 0 0-.11-1.783 1.277 1.277 0 0 0-1.794.109l-.315.354c-2.074 2.33-5.504 3.039-8.341 1.726a9.732 9.732 0 0 0-7.885-.123c-.23.098-.452.207-.672.321 1.478-3.915 5.055-6.672 10.682-8.215 5.588-1.532 11.528-1.335 17.178.57l7.569 2.554.099 6.528c-3.37 4.553-8.285 7.636-13.886 8.696A22.47 22.47 0 0 1 11.79 18.66a6.926 6.926 0 0 0-7.685.07zM2.543 40.142c0-2.031 1.368-3.75 3.237-4.297v6.848c0 .592.021 1.18.063 1.764-1.9-.526-3.3-2.26-3.3-4.315zm42.785 18.022c-4.093 4.068-9.536 6.308-15.326 6.309H30c-5.79 0-11.237-2.276-15.336-6.407-4.09-4.122-6.341-9.582-6.341-15.373V20.075c.72.054 1.434.285 2.078.702a25.014 25.014 0 0 0 18.34 3.6c5.183-.98 9.838-3.516 13.417-7.255v3.428c0 5.485 4.167 10.019 9.52 10.646v11.736c0 5.754-2.255 11.163-6.35 15.232zm8.843-13.71c.032-.505.05-1.012.05-1.522v-7.087c1.868.547 3.236 2.266 3.236 4.297 0 2.05-1.392 3.78-3.286 4.311z"/></g></svg>