<svg width="24" height="24" viewBox="0 0 24 24" xmlns="http://www.w3.org/2000/svg"><title>icon_male</title><g fill="#D8D5CB" fill-rule="evenodd"><path d="M9.314 23.981C4.178 23.981 0 19.803 0 14.668c0-5.136 4.178-9.314 9.314-9.314 5.135 0 9.313 4.178 9.313 9.314 0 5.135-4.178 9.313-9.313 9.313zm0-15.143a5.837 5.837 0 0 0-5.83 5.83 5.837 5.837 0 0 0 5.83 5.83 5.837 5.837 0 0 0 5.83-5.83 5.837 5.837 0 0 0-5.83-5.83zm14.667.476h-3.483V3.483h-5.83V0h9.313z"/><path d="M15.898 10.545l-2.463-2.463L21.007.511l2.463 2.462z"/></g></svg>