<svg width="110" height="110" viewBox="0 0 110 110" xmlns="http://www.w3.org/2000/svg"><title>icon_smile</title><g fill="#FF4E00" fill-rule="evenodd"><path d="M55 110C24.673 110 0 85.327 0 55S24.673 0 55 0s55 24.673 55 55-24.673 55-55 55zM55 3.333C26.51 3.333 3.333 26.51 3.333 55c0 28.49 23.177 51.667 51.667 51.667 28.49 0 51.667-23.177 51.667-51.667C106.667 26.51 83.49 3.333 55 3.333z"/><path d="M54.999 80a44.939 44.939 0 0 1-22.89-6.257l-1.317-.78c-.783-.467-1.026-1.448-.546-2.199.48-.75 1.504-.984 2.29-.52l1.318.779a41.529 41.529 0 0 0 42.29-.003l1.318-.783c.782-.46 1.81-.23 2.29.52.483.752.24 1.736-.543 2.2l-1.321.782A44.933 44.933 0 0 1 54.998 80zM46.37 45.185l-6.645-6.87-6.644 6.87a1.65 1.65 0 0 1-2.387 0 1.789 1.789 0 0 1 0-2.468l7.836-8.103a1.65 1.65 0 0 1 2.387 0l7.836 8.103a1.79 1.79 0 0 1 0 2.468c-.324.338-.756.51-1.188.51a1.67 1.67 0 0 1-1.196-.51zm32.86.51a1.67 1.67 0 0 1-1.195-.51l-6.644-6.87-6.645 6.87a1.65 1.65 0 0 1-2.387 0 1.789 1.789 0 0 1 0-2.468l7.836-8.103a1.65 1.65 0 0 1 2.387 0l7.837 8.103a1.79 1.79 0 0 1 0 2.468c-.325.338-.757.51-1.189.51z"/></g></svg>