<svg width="24" height="24" viewBox="0 0 24 24" xmlns="http://www.w3.org/2000/svg"><title>icon_female</title><g fill="#D8D5CA" fill-rule="evenodd"><path d="M14.486 19.028c-5.234 0-9.491-4.268-9.491-9.514C4.995 4.268 9.252 0 14.486 0s9.491 4.268 9.491 9.514c0 5.246-4.257 9.514-9.49 9.514zm0-15.47c-3.276 0-5.942 2.672-5.942 5.956 0 3.284 2.666 5.957 5.942 5.957 3.277 0 5.942-2.672 5.942-5.957 0-3.284-2.665-5.956-5.942-5.956z"/><path d="M2.56 23.974l-2.51-2.51 7.736-7.734 2.51 2.51z"/><path d="M7.77 23.967L.055 16.25l2.516-2.516 7.717 7.717z"/></g></svg>