<svg width="111" height="73" viewBox="0 0 111 73" xmlns="http://www.w3.org/2000/svg"><title>icon_card</title><g fill="#FF5E17" fill-rule="evenodd"><path d="M14 44h50v3H14zm0 10h19v3H14z"/><path d="M102.287 0H8.71C3.906 0 0 3.927 0 8.754V64.25C0 69.076 3.906 73 8.71 73h93.577c4.804 0 8.713-3.924 8.713-8.75V8.754C111 3.927 107.09 0 102.287 0zM8.71 3.485h93.578c2.893 0 5.244 2.362 5.244 5.268v5.62H3.47v-5.62c0-2.906 2.35-5.268 5.24-5.268zm98.822 14.373V29.62H3.47V17.858h104.06zm-5.244 51.657H8.71c-2.89 0-5.24-2.362-5.24-5.265V33.105h104.06V64.25c0 2.903-2.35 5.265-5.244 5.265z"/></g></svg>