<svg width="60" height="69" viewBox="0 0 60 69" xmlns="http://www.w3.org/2000/svg"><title>icon_girl</title><g fill-rule="evenodd"><path d="M34.572 52.08a6.407 6.407 0 0 1-9.051 0 1.308 1.308 0 1 0-1.85 1.85 8.987 8.987 0 0 0 6.375 2.636 8.987 8.987 0 0 0 6.376-2.637 1.308 1.308 0 1 0-1.85-1.85z"/><path d="M59.644 65.057c-3.064-3.393-3.193-12.04-2.83-20.985a6.848 6.848 0 0 0 .464-9.526c.446-9.124.682-15.226-2.212-20.86-1.974-3.845-5.168-7.057-9.494-9.547A31.072 31.072 0 0 0 28.939.02c-5.129.183-9.904 2.573-13.197 6.583-4.252.253-8.12 2.567-10.201 6.144-.179.307-.352.623-.514.939-2.895 5.637-2.66 11.738-2.214 20.861a6.848 6.848 0 0 0 .465 9.523c.363 8.947.233 17.594-2.83 20.987a1.308 1.308 0 0 0 .508 2.1 27.598 27.598 0 0 0 9.802 1.77c3.132 0 5.912-.504 8.094-1.094 3.792-1.026 6.467-2.465 7.38-2.996a23.443 23.443 0 0 0 7.629 0c.912.531 3.587 1.97 7.379 2.996 2.91.787 5.61 1.095 8.051 1.095 4.067 0 7.42-.855 9.845-1.771a1.308 1.308 0 0 0 .508-2.1zm-6.219-23.289v-6.745a4.258 4.258 0 0 1 2.943 4.045 4.259 4.259 0 0 1-2.983 4.058c.026-.45.04-.902.04-1.358zM7.354 14.881c.141-.275.292-.55.448-.818 1.722-2.961 5.017-4.826 8.598-4.867h.018a1.308 1.308 0 0 0 1.011-.512c2.823-3.682 7.052-5.887 11.603-6.05a28.464 28.464 0 0 1 15.234 3.772C48.148 8.64 51 11.492 52.74 14.88c2.317 4.51 2.385 9.415 2.006 17.843a6.821 6.821 0 0 0-1.32-.397v-1.33a1.308 1.308 0 1 0-2.616 0v2.97c-18.016.193-27.769-8.485-30.371-11.2a1.308 1.308 0 0 0-2.154.407c-1.9 4.624-5.221 7.043-10.45 7.613a1.308 1.308 0 0 0-1.166 1.3v.24c-.458.089-.9.223-1.32.398-.38-8.427-.312-13.332 2.006-17.844zm-.646 28.245a4.259 4.259 0 0 1-2.983-4.058 4.258 4.258 0 0 1 2.943-4.044v6.744c0 .456.014.909.04 1.358zM3.513 65.263c2.332-3.982 2.737-10.6 2.44-19.632.347.107.707.187 1.075.238 1.488 8.376 7.45 15.223 15.318 17.976-3.784 1.629-10.947 3.787-18.833 1.418zm26.533-2.73c-11.448 0-20.763-9.315-20.763-20.765v-8.54c4.906-.807 8.398-3.222 10.612-7.342 1.884 1.72 4.93 4.077 9.225 6.144 6.456 3.107 13.747 4.64 21.69 4.555v5.183c0 11.45-9.315 20.766-20.764 20.766zm11.963 2.798a30.948 30.948 0 0 1-4.267-1.484c7.87-2.752 13.835-9.6 15.323-17.978a6.82 6.82 0 0 0 1.074-.237c-.297 9.032.107 15.65 2.44 19.632-4.618 1.396-9.512 1.42-14.57.067z"/><path d="M14.414 37.892a1.308 1.308 0 1 0 1.85 1.85 2.153 2.153 0 0 1 3.04 0c.255.255.59.383.925.383a1.308 1.308 0 0 0 .925-2.233 4.77 4.77 0 0 0-6.74 0zm31.266 1.85a1.31 1.31 0 0 0 0-1.85 4.77 4.77 0 0 0-6.74 0 1.308 1.308 0 1 0 1.849 1.85 2.153 2.153 0 0 1 3.04 0 1.306 1.306 0 0 0 1.85 0z"/></g></svg>