<svg width="100" height="99" viewBox="0 0 100 99" xmlns="http://www.w3.org/2000/svg"><title>icon_flower</title><path d="M98.508 34.124c-3.578-2.165-6.742-7.71-8.835-11.379-.608-1.065-1.133-1.985-1.582-2.675-1.7-2.61-3.43-4.735-5.183-6.368.123-.757.26-2.528-.598-4.644-1.732-4.27-6.186-6.612-9.618-7.825C68.918-.1 63.97-.367 59.12.505c-4.544.816-8.07 2.443-9.813 4.505C42.553 3.166 34.631.598 34.521.563a1.623 1.623 0 0 0-2.06 1.096c-.008.032-.922 3.142-3.332 5.37a46.602 46.602 0 0 0-2.68 2.68c-1.756-.922-4.53-1.22-7.673-.75a21.553 21.553 0 0 0-9.822 4.14c-3.557 2.704-6.116 6.403-7.605 10.993-2.994 9.223-.444 17.636 2.222 23.07a38.782 38.782 0 0 0 3.529 5.83c-.083.095-.157.2-.217.316-2.774 5.347-2.777 12.41-.008 19.89 3.44 9.297 10.384 17.418 17.278 20.208 1.865.755 3.688 1.132 5.458 1.132 1.903 0 3.745-.437 5.511-1.31a14.86 14.86 0 0 0 3.047-2.026C45.009 98.436 63.277 99 68.803 99c.88 0 1.437-.014 1.573-.018a1.624 1.624 0 0 0 1.444-.986c.02-.048 1.82-4.189 7.44-11.76.976.142 1.945.213 2.897.213 3.908 0 7.554-1.18 10.487-3.433 3.723-2.86 6.017-7.272 6.635-12.76.727-6.46-2.779-12.151-3.724-13.55 2.26-4.99 3.67-10.626 4.2-14.847.721-5.75-.287-7.155-1.247-7.735zM59.692 3.687c4.252-.763 8.707-.542 11.919.594 5.835 2.063 7.548 4.998 8.004 6.947-1.48-.847-2.97-1.353-4.468-1.51-3.55-.37-6.09 1.304-7.333 2.39-2.673-2.696-6.674-4.57-11.78-5.484-.84-.15-1.838-.369-2.935-.633 1.536-.978 3.896-1.82 6.593-2.304zm15.476 47.298c-1.575-2.62-3.934-4.223-6.359-4.348-1.541-2.195-4.339-4.13-8.037-5.468-2.808-1.016-6.088-1.607-8.865-1.34.103-.78.426-1.69 1.105-2.447 1.236-1.38 3.383-2.078 6.38-2.078 6.142 0 10.212-.94 12.126-1.514 2.236 3.31 6.304 10.21 6.304 14.452 0 1.878-.92 3.51-1.751 4.602a11.951 11.951 0 0 0-.903-1.859zM55.883 80.557c-.697.658-1.408 1.33-2.053 2.03-1.136-1.098-3.118-2.272-6.815-3.167-.878-.212-1.784-.412-2.66-.604-6.333-1.394-12.329-2.72-14.115-9.753a23.402 23.402 0 0 0 4.447-.65c2.957-.73 5.329-1.908 6.76-3.303.45 2.352 2.069 5.326 6.593 6.527 2.61.693 4.555 1.492 5.781 2.374.18.13.59.423 1.139.423a1.643 1.643 0 0 0 1.572-1.208c.044-.165.113-.338.202-.519.843.399 1.69.985 2.635 1.642.16.112.325.226.492.34-.002 2.113-1.936 3.94-3.978 5.868zM20.827 37.845c1.21-3.56 3.5-5.326 5.456-6.205-.51.795-.956 1.53-1.336 2.156-.362.595-.673 1.108-.913 1.466-.298.446-.578 1.5.498 2.299.088.066.221.16.391.28.978.689 3.4 2.396 5.45 4.686-1.183 2.553-2.23 7.459-.738 12.01 1.156 3.525 3.574 6.183 7.189 7.9.622.297 1.251.557 1.884.786-2.592 1.926-9.502 3.832-15.2 1.7-4.015-1.503-6.364-2.637-7.498-3.234.421-3.567 1.974-15.478 4.817-23.844zm19.714.22c1.445 1.97 3.784 3.478 6.202 4.16-1.696 1.865-2.595 4.135-2.552 6.344-.163.067-.317.16-.456.284-.907.805-1.775 1.124-2.652.976-1.225-.206-3.224-1.418-5.794-6.014-2.1-3.755-5.803-6.67-7.736-8.074l.164-.27c1.451-2.388 3.644-6 6.514-8.57 2.875-2.575 5.679-3.414 8.54-2.549a341.728 341.728 0 0 1-3.076 6.839c-1.045 2.264-.745 4.705.846 6.874zm26.357 12.187C67.69 56.916 62.65 61.8 58.6 65.724c-1.756 1.7-3.341 3.237-4.324 4.774-1.069-.562-2.765-1.285-5.403-1.985-3.156-.838-4.047-2.73-4.271-4.031.57.043 1.134.064 1.69.064 3.984 0 7.6-1.057 10.001-2.671 1.964-1.32 2.992-2.965 2.894-4.63a1.617 1.617 0 0 0-.06-.347c1.83-.644 2.7-1.816 3.066-2.498.922-1.718.652-3.798-.672-5.178-1.537-1.6-3.958-1.83-6.478-.616a1.615 1.615 0 0 0-.754 2.159 1.62 1.62 0 0 0 2.163.753c1.192-.575 2.213-.597 2.73-.058.351.365.414.932.156 1.411-.468.872-2.062 1.607-5.127 1.058-3.634-.653-5.982-2.174-6.611-4.285-.542-1.814.23-4.046 1.969-5.685 1.464-1.38 5.9-1.27 10.1.25 4.132 1.496 6.97 3.868 7.229 6.043zm-34.232-4.499c2.535 4.42 5.115 6.799 7.876 7.265.286.048.604.08.95.08 1.008 0 2.248-.27 3.56-1.174 1.837 3.467 6.055 4.733 8.586 5.187.85.153 1.617.226 2.315.24v.083c.022.37-.424 1.056-1.469 1.759-3.404 2.288-10.263 3.18-16.267.326-2.782-1.323-4.633-3.337-5.502-5.987-.904-2.757-.596-5.705-.05-7.779zM61.22 71.696c-.821-.571-1.616-1.12-2.453-1.58a83.043 83.043 0 0 1 2.09-2.072c4.237-4.106 10.006-9.702 9.302-17.699.824.473 1.61 1.27 2.232 2.304a9.566 9.566 0 0 1 .154 9.388c-2.74 5.13-3.975 10.332-4.455 12.869-2.976-.504-4.951-1.877-6.87-3.21zM59.392 32.07c-3.958 0-6.916 1.062-8.794 3.156a7.646 7.646 0 0 0-1.894 4.114c-2.041-.274-4.349-1.547-5.55-3.184-.889-1.214-1.063-2.43-.517-3.612 3.251-7.045 4.648-10.503 5.208-11.989 1.77-.21 6.384-.246 12.51 3.586 3.717 2.325 5.815 4.444 6.92 5.811.412.51.718.953.944 1.317-2.033.408-4.987.801-8.827.801zM31.33 9.402c1.898-1.755 3.048-3.874 3.665-5.29 4.014 1.278 15.082 4.73 20.466 5.695 5.785 1.036 9.832 3.377 11.706 6.768 1.399 2.534 1.571 5.584.527 9.086-1.386-1.306-3.211-2.754-5.619-4.26-9.049-5.661-15.608-3.903-15.882-3.825a1.627 1.627 0 0 0-1.107 1.08c-.004.013-.232.726-1.045 2.705-6.294-2.137-11.32 1.86-14.844 6.199-1.7.124-4.161.787-6.448 2.413-.923-4.176-1.353-11.388 8.581-20.571zM4.43 25.088c3.199-9.857 11.09-12.27 14.335-12.85 2.532-.452 4.423-.251 5.504.062-7.099 9.271-5.179 16.586-4.279 20.012l.06.229c-.917 1.163-1.714 2.568-2.29 4.265-1.993 5.862-3.35 13.195-4.16 18.512-3.84-2.947-13.733-16.17-9.17-30.23zm29.255 65.243c-2.542 1.256-5.34 1.283-8.315.078-6.005-2.43-12.362-9.968-15.457-18.33-2.287-6.181-2.485-11.944-.586-16.368 1.422 1.542 2.756 2.62 3.78 3.077a135.98 135.98 0 0 0-.437 3.616c-.062.604.219 1.19.728 1.521.1.065 2.502 1.603 8.972 4.025 1.394.521 2.926.861 4.525 1.026 1.72 8.574 8.021 10.94 14.245 12.427-.841 2.18-3.258 6.854-7.455 8.928zm35.612 5.431c-1.933.01-6.477-.05-11.487-.66-8.504-1.034-14.482-3.151-17.289-6.123-.028-.03-.059-.057-.089-.085 2.062-2.485 3.337-5.191 3.895-6.773.646.143 1.297.29 1.925.442 3.242.784 5.24 1.848 5.939 3.16.135.255.546 1.028 1.512 1.077l.077.001c.326 0 .98-.098 1.455-.81.672-1.006 1.741-2.016 2.874-3.085 1.923-1.816 4.04-3.816 4.747-6.38a16.187 16.187 0 0 0 6.582 1.777 1.62 1.62 0 0 0 1.606-1.415c.008-.067.894-6.845 4.36-13.33a12.904 12.904 0 0 0 1.369-4.02c1.547 1.086 3.8 3.568 5.153 7.034 1.319 3.376 2.055 8.442-1.926 13.41-6.657 8.306-9.654 13.69-10.703 15.78zM96.06 69.895c-.517 4.595-2.381 8.246-5.391 10.558-2.5 1.92-5.675 2.868-9.09 2.748.31-.393.624-.791.951-1.2 3.319-4.14 4.415-9.08 3.195-14.13 3.238-1.125 5.938-4.077 8.088-7.768 1.137 2.122 2.69 5.853 2.247 9.792zm.235-26.77c-.64 3.797-1.849 7.956-3.315 11.411-2.37 5.581-5.3 9.21-8.28 10.267-1.673-3.9-4.638-7.361-7.259-8.608 1.173-1.182 3.622-4.11 3.622-7.953 0-6.735-7.287-16.891-7.597-17.32a1.628 1.628 0 0 0-1.937-.547 3.28 3.28 0 0 1-.073.028A13.64 13.64 0 0 0 70.18 28.4c1.942-5.037 1.883-9.657-.176-13.385-.064-.116-.13-.23-.199-.345.763-.71 2.517-1.995 5.004-1.735 3.35.351 7.004 3.428 10.567 8.898.397.61.9 1.492 1.483 2.514 2.218 3.887 5.549 9.725 9.736 12.397.164.545.362 2.454-.3 6.382z" fill="#FF5E17" fill-rule="evenodd"/></svg>