<svg width="110" height="108" viewBox="0 0 110 108" xmlns="http://www.w3.org/2000/svg"><title>icon_speech</title><g fill="#FF5E17" fill-rule="evenodd"><path d="M24.273 108a1.666 1.666 0 0 1-1.666-1.666V82.596C8.017 75.012 0 61.734 0 45.096 0 19.387 23.643 0 55 0s55 19.386 55 45.097c0 25.707-23.643 45.093-55 45.093-1.03 0-2.04-.057-3.053-.11l-.067-.003-26.69 17.646a1.66 1.66 0 0 1-.917.277zM55 3.332c-29.453 0-51.667 17.957-51.667 41.765 0 11.072 3.76 26.13 21.677 34.983.567.28.927.86.927 1.493v21.662L50.5 86.995c.3-.2.663-.317 1.007-.274l.62.034a51.15 51.15 0 0 0 2.87.103c29.453 0 51.666-17.954 51.666-41.761 0-23.808-22.21-41.765-51.663-41.765z"/><path d="M79.976 30.944h-50.12a1.678 1.678 0 0 1-1.673-1.681c0-.929.75-1.682 1.674-1.682h50.12c.923 0 1.673.753 1.673 1.682 0 .928-.75 1.681-1.674 1.681zm0 16.368h-50.12a1.678 1.678 0 0 1-1.673-1.682c0-.928.75-1.682 1.674-1.682h50.12c.923 0 1.673.754 1.673 1.682 0 .928-.75 1.682-1.674 1.682zm-25.06 16.361h-25.06a1.678 1.678 0 0 1-1.673-1.682c0-.929.75-1.682 1.674-1.682h25.06c.923 0 1.673.753 1.673 1.682 0 .928-.75 1.682-1.674 1.682z"/></g></svg>