<svg xmlns="http://www.w3.org/2000/svg" viewBox="0 0 512 512"><path d="M392.385 67.323C348.972 23.909 291.25 0 229.854 0 168.457 0 110.737 23.909 67.323 67.323 23.909 110.736 0 168.457 0 229.854c0 61.396 23.909 119.118 67.323 162.531 43.413 43.412 101.135 67.322 162.531 67.322s119.118-23.909 162.531-67.322c43.412-43.413 67.322-101.135 67.322-162.531 0-61.397-23.908-119.118-67.322-162.531zM229.854 418.344c-103.933 0-188.49-84.556-188.49-188.49s84.556-188.49 188.49-188.49 188.489 84.556 188.49 188.49c0 103.934-84.557 188.49-188.49 188.49z"/><path d="M505.943 476.693L392.206 362.957c-8.077-8.077-21.172-8.077-29.249 0-8.076 8.077-8.076 21.172 0 29.249l113.737 113.737a20.616 20.616 0 0 0 14.625 6.058 20.616 20.616 0 0 0 14.625-6.058c8.075-8.078 8.075-21.173-.001-29.25zM229.854 130.732c-11.422 0-20.682 9.26-20.682 20.682v156.879c0 11.423 9.26 20.682 20.682 20.682s20.682-9.26 20.682-20.682V151.414c0-11.422-9.26-20.682-20.682-20.682z"/><path d="M308.293 209.172H151.414c-11.422 0-20.682 9.26-20.682 20.682s9.26 20.682 20.682 20.682h156.879c11.423 0 20.682-9.26 20.682-20.682s-9.259-20.682-20.682-20.682z"/></svg>