<svg width="33" height="21" viewBox="0 0 33 21" xmlns="http://www.w3.org/2000/svg"><title>icon_g+</title><path d="M11.517 12.666h5.129a6.526 6.526 0 0 1-6.193 4.348c-3.463-.025-6.327-2.795-6.462-6.256-.144-3.709 2.832-6.773 6.511-6.773a6.49 6.49 0 0 1 4.374 1.691c.274.249.691.25.96-.003L17.72 3.9a.704.704 0 0 0 .002-1.023A10.464 10.464 0 0 0 10.711.002C4.921-.111.041 4.635.001 10.425-.04 16.26 4.676 21 10.501 21c5.602 0 10.178-4.385 10.484-9.91.009-.069.014-2.41.014-2.41h-9.483a.704.704 0 0 0-.704.704v2.579c0 .388.316.703.704.703zm18.225-3.408V6.64a.64.64 0 0 0-.64-.641h-2.203a.64.64 0 0 0-.641.64v2.618H23.64a.64.64 0 0 0-.641.64V12.1a.64.64 0 0 0 .64.641h2.618v2.617a.64.64 0 0 0 .64.641H29.1a.64.64 0 0 0 .641-.64v-2.618h2.617a.64.64 0 0 0 .641-.64V9.898a.64.64 0 0 0-.64-.641h-2.618z" fill="#F34A38" fill-rule="evenodd"/></svg>