<svg width="500" height="500" viewBox="0 0 500 500" xmlns="http://www.w3.org/2000/svg"><title>ig</title><g fill-rule="evenodd"><path d="M367.863 143.667c-19.7 0-35.72-16.023-35.72-35.715 0-19.691 16.02-35.714 35.72-35.714 19.688 0 35.708 16.023 35.708 35.714 0 19.692-16.02 35.715-35.708 35.715z"/><path d="M450 361.483C450 410.277 410.277 450 361.483 450H138.517C89.728 450 50 410.274 50 361.483V138.517C50 89.73 89.731 50 138.517 50h222.966C410.273 50 450 89.728 450 138.517v222.966h50V138.517C500 62.114 437.889 0 361.483 0H138.517C62.117 0 0 62.117 0 138.517v222.966C0 437.89 62.114 500 138.517 500h222.966C437.891 500 500 437.891 500 361.483h-50z" fill-rule="nonzero"/><path d="M250.996 348c-49.6 0-89.996-40.397-89.996-90.004 0-49.6 40.396-89.996 89.996-89.996C300.603 168 341 208.395 341 257.996c0 49.6-40.404 90.004-90.004 90.004v50C328.21 398 391 335.21 391 257.996 391 180.78 328.217 118 250.996 118 173.782 118 111 180.782 111 257.996 111 335.216 173.78 398 250.996 398v-50z" fill-rule="nonzero"/></g></svg>