<svg width="38" height="38" viewBox="0 0 38 38" xmlns="http://www.w3.org/2000/svg" xmlns:xlink="http://www.w3.org/1999/xlink"><title>imessage</title><defs><path d="M26.6 16.314c-6.286 0-11.4 4.614-11.4 10.286 0 5.671 5.114 10.286 11.4 10.286 1.572 0 3.093-.284 4.525-.844 2.56 1.435 6.003 1.93 6.154 1.952a.634.634 0 0 0 .536-1.075c-.8-.8-1.357-2.508-1.577-4.825C37.391 30.45 38 28.556 38 26.6c0-5.672-5.114-10.286-11.4-10.286z" id="a"/><mask id="c" x="0" y="0" width="22.8" height="21.686" fill="#fff"><use xlink:href="#a"/></mask><path d="M13.933 26.6c0-6.37 5.683-11.553 12.667-11.553 4.87 0 9.1 2.523 11.219 6.208.118-.852.181-1.711.181-2.572C38 8.381 29.62 0 19.317 0 9.014 0 .633 8.38.633 18.683c0 3.26.853 6.462 2.468 9.279L.032 37.167a.633.633 0 0 0 .762.812l10.05-2.644c3.291 1.677 7.081 2.325 10.763 1.879-4.508-1.77-7.674-5.86-7.674-10.614z" id="b"/><mask id="d" x="0" y="0" width="38" height="38" fill="#fff"><use xlink:href="#b"/></mask></defs><g stroke="#000" stroke-width="4" fill="none" fill-rule="evenodd"><use mask="url(#c)" xlink:href="#a"/><use mask="url(#d)" xlink:href="#b"/></g></svg>