<svg width="71" height="90" viewBox="0 0 71 90" xmlns="http://www.w3.org/2000/svg"><title>icon_pin</title><g fill="#FF5E17" fill-rule="evenodd"><path d="M35 50c-8.27 0-15-6.729-15-15s6.727-15 15-15 15 6.729 15 15-6.73 15-15 15zm0-27.357c-6.815 0-12.359 5.544-12.359 12.36S28.185 47.362 35 47.362s12.359-5.543 12.359-12.36c0-6.815-5.544-12.359-12.359-12.359z"/><path d="M35.458 90c-.49 0-.939-.269-1.169-.7L23.251 68.55C9.32 63.445 0 50.179 0 35.375 0 15.868 15.924 0 35.5 0S71 15.868 71 35.377c0 14.852-9.365 28.134-23.354 33.212L36.626 89.3c-.23.432-.68.701-1.168.701zM35.5 2.634c-18.116 0-32.856 14.688-32.856 32.743 0 13.859 8.83 26.263 21.974 30.865.314.11.573.332.73.624l10.11 19.006L45.55 66.903c.156-.292.417-.516.735-.627 13.2-4.575 22.071-16.993 22.071-30.899 0-18.055-14.74-32.743-32.856-32.743z"/></g></svg>