<svg width="500" height="500" viewBox="0 0 500 500" xmlns="http://www.w3.org/2000/svg"><title>Artboard 2</title><path d="M413.576 201.92h-9.675v-45.597c0-84.337-66.465-154.788-149.538-156.292a334.72 334.72 0 0 0-9.074 0c-83.076 1.504-149.54 71.955-149.54 156.292v45.598h-9.676C71.163 201.92 59 217.414 59 236.549v228.7C59 484.362 71.162 500 86.074 500h327.502c14.911 0 27.075-15.638 27.075-34.751v-228.7c0-19.134-12.163-34.628-27.075-34.628zM280.508 419.772c0 7.913-6.58 14.61-14.444 14.61h-32.476c-7.865 0-14.444-6.697-14.444-14.61v-69.104c-7.628-7.561-12.069-18.015-12.069-29.58 0-21.916 16.824-40.747 38.215-41.618 2.266-.092 6.807-.092 9.074 0 21.39.87 38.214 19.702 38.214 41.618-.002 11.565-4.442 22.019-12.07 29.58v69.104zm59.623-217.85H159.52v-45.598c0-50.238 40.546-91.777 90.304-91.777 49.759 0 90.307 41.539 90.307 91.777v45.598h-.001z" fill="#FF5E17" fill-rule="evenodd"/></svg>