<svg width="500" height="500" viewBox="0 0 500 500" xmlns="http://www.w3.org/2000/svg"><title>phone</title><path d="M498.224 394.597c1.058 8.122-1.413 15.184-7.403 21.186l-70.323 69.913c-3.172 3.53-7.313 6.535-12.425 9.004-5.11 2.473-10.133 4.062-15.066 4.767-.353 0-1.413.09-3.176.267-1.76.176-4.051.266-6.871.266-6.7 0-17.54-1.148-32.52-3.444-14.982-2.296-33.31-7.946-54.988-16.949-21.682-9.004-46.267-22.512-73.761-40.519-27.494-18.006-56.752-42.725-87.772-74.152-24.675-24.365-45.12-47.67-61.334-69.914-16.215-22.247-29.258-42.816-39.128-61.707-9.87-18.89-17.273-36.017-22.208-51.377-4.935-15.36-8.283-28.601-10.046-39.724-1.762-11.123-2.467-19.863-2.115-26.218.353-6.356.529-9.887.529-10.594.705-4.943 2.291-9.975 4.759-15.095 2.467-5.12 5.463-9.269 8.988-12.447L83.687 7.415C88.622 2.472 94.262 0 100.607 0c4.583 0 8.636 1.324 12.161 3.972 3.525 2.649 6.522 5.915 8.989 9.8l56.576 107.52c3.172 5.65 4.054 11.83 2.644 18.538-1.41 6.71-4.407 12.359-8.99 16.95l-25.908 25.953c-.705.706-1.322 1.854-1.85 3.443-.529 1.589-.793 2.913-.793 3.972 1.41 7.415 4.582 15.89 9.517 25.424 4.23 8.474 10.751 18.803 19.564 30.985 8.812 12.182 21.326 26.217 37.54 42.107 15.863 16.245 29.963 28.866 42.3 37.872 12.335 9.001 22.649 15.624 30.933 19.862 8.283 4.237 14.628 6.797 19.034 7.677l6.607 1.325c.705 0 1.853-.265 3.438-.794 1.586-.53 2.732-1.148 3.438-1.855l30.137-30.72c6.349-5.65 13.748-8.474 22.208-8.474 5.995 0 10.75 1.059 14.276 3.178h.527l102.047 60.381c7.406 4.594 11.81 10.419 13.222 17.48z" fill="#FF5E17" fill-rule="evenodd"/></svg>