<svg width="500" height="500" viewBox="0 0 500 500" xmlns="http://www.w3.org/2000/svg"><title>pinterest</title><path d="M391.36 51.237C357.812 18.197 311.39 0 260.64 0c-77.523 0-125.202 32.603-151.55 59.952C76.62 93.656 58 138.409 58 182.737c0 55.658 22.69 98.377 60.69 114.27 2.55 1.072 5.118 1.612 7.634 1.612 8.017 0 14.368-5.381 16.569-14.014 1.282-4.952 4.255-17.17 5.547-22.474 2.766-10.474.531-15.512-5.502-22.806-10.99-13.341-16.108-29.118-16.108-49.65 0-60.987 44.263-125.804 126.3-125.804 65.092 0 105.528 37.956 105.528 99.057 0 38.556-8.095 74.264-22.798 100.548-10.217 18.263-28.183 40.034-55.764 40.034-11.927 0-22.64-5.026-29.401-13.79-6.386-8.284-8.491-18.985-5.923-30.138 2.902-12.602 6.858-25.746 10.687-38.454 6.984-23.21 13.586-45.13 13.586-62.62 0-29.914-17.926-50.014-44.601-50.014-33.901 0-60.46 35.327-60.46 80.425 0 22.117 5.729 38.66 8.322 45.012-4.27 18.565-29.652 128.936-34.467 149.749-2.783 12.15-19.553 108.11 8.204 115.762 31.186 8.597 59.063-84.862 61.9-95.423 2.3-8.59 10.346-41.067 15.276-61.031 15.055 14.878 39.296 24.936 62.883 24.936 44.465 0 84.454-20.529 112.601-57.802 27.298-36.152 42.332-86.541 42.332-141.878 0-43.26-18.107-85.909-49.676-117.007z" fill="#C92228" fill-rule="evenodd"/></svg>