<svg width="500" height="500" viewBox="0 0 500 500" xmlns="http://www.w3.org/2000/svg"><title>trash</title><path d="M347.559 58.819v-43.34c0-8.725-7.046-15.479-15.78-15.479-.848 0-1.414.283-1.69.565-.282-.282-.848-.565-1.13-.565H169.747c-8.735 0-15.498 6.754-15.498 15.478V58.82H87.184c-19.165 0-34.098 14.914-34.098 34.054v55.721h29.589v317.161c0 19.141 14.65 33.772 33.815 33.772h268.546c19.165 0 34.097-14.63 34.097-33.772v-317.16h29.307V92.872c0-19.14-14.939-34.054-34.098-34.054h-66.783zM185.245 30.955h131.036V58.82H185.245V30.955zm202.61 434.801c0 1.975-.847 2.815-2.819 2.815H116.49c-1.971 0-2.819-.84-2.819-2.815V148.594h274.184v317.162zm29.307-348.118H84.364V92.872c0-1.97.848-3.098 2.82-3.098h327.158c1.972 0 2.82 1.129 2.82 3.098v24.766zm-130.459 88.094h31.278v208.333h-31.278V205.732zm-102.595 0h31.279v208.333h-31.279V205.732z" fill="#840000" fill-rule="evenodd"/></svg>