<svg width="500" height="500" viewBox="0 0 500 500" xmlns="http://www.w3.org/2000/svg"><title>tw</title><path d="M500 95.104c-18.391 8.155-38.174 13.671-58.922 16.135 21.184-12.692 37.44-32.774 45.113-56.742a205.354 205.354 0 0 1-65.14 24.886C402.337 59.454 375.676 47 346.154 47c-56.642 0-102.581 45.94-102.581 102.581 0 8.04.91 15.867 2.67 23.38C160.99 168.683 85.399 127.846 34.8 65.765c-8.829 15.147-13.893 32.78-13.893 51.577 0 35.581 18.123 66.993 45.633 85.384a101.858 101.858 0 0 1-46.46-12.845c-.007.436-.007.872-.007 1.3 0 49.704 35.374 91.16 82.293 100.578-8.599 2.356-17.68 3.603-27.02 3.603a102.69 102.69 0 0 1-19.302-1.829c13.051 40.745 50.927 70.405 95.826 71.239-35.114 27.518-79.34 43.912-127.413 43.912a206.62 206.62 0 0 1-24.458-1.438c45.373 29.116 99.307 46.092 157.234 46.092 188.684 0 291.87-156.308 291.87-291.877 0-4.445-.1-8.874-.299-13.266 20.059-14.458 37.448-32.52 51.195-53.092z" fill-rule="evenodd" opacity=".8"/></svg>