<svg width="37" height="40" viewBox="0 0 37 40" xmlns="http://www.w3.org/2000/svg"><title>viber</title><g fill="none" fill-rule="evenodd"><path d="M28.136 1.9a52.048 52.048 0 0 0-19.273 0c-2.798.615-6.317 3.941-7.005 6.617a35.889 35.889 0 0 0 0 15.603c.688 2.676 4.207 6.003 7.005 6.617h.002a.264.264 0 0 1 .215.256v7.585c0 .379.47.566.736.291l3.652-3.697 3.433-3.477a.264.264 0 0 1 .195-.078c3.687.1 7.378-.193 11.04-.88 2.798-.614 6.318-3.94 7.005-6.617a35.845 35.845 0 0 0 0-15.603c-.687-2.676-4.206-6.002-7.005-6.617zm.098 22.606c-.56 1.172-1.374 2.147-2.548 2.77-.331.175-.727.232-1.101.345-.43-.129-.84-.215-1.22-.371-3.944-1.614-7.574-3.696-10.449-6.889-1.635-1.815-2.915-3.864-3.996-6.033-.513-1.028-.945-2.097-1.386-3.16-.402-.967.19-1.968.813-2.697.585-.685 1.337-1.209 2.152-1.595.636-.302 1.263-.128 1.728.404 1.004 1.15 1.926 2.358 2.673 3.691.46.82.334 1.822-.499 2.38-.202.135-.386.294-.575.448-.165.134-.32.27-.434.451-.207.333-.217.725-.084 1.086 1.027 2.783 2.757 4.947 5.596 6.113.455.186.911.403 1.434.343.877-.101 1.16-1.05 1.775-1.545.6-.484 1.368-.49 2.014-.087.647.404 1.274.837 1.898 1.275.612.43 1.22.851 1.785 1.342.543.47.73 1.09.424 1.73z" stroke="#000" stroke-width="2"/><path d="M28.511 17.409c-.413.005-.6-.336-.626-.702-.053-.724-.09-1.452-.191-2.17-.534-3.79-3.598-6.927-7.423-7.6-.576-.101-1.165-.128-1.748-.188-.368-.038-.851-.06-.933-.512-.068-.38.256-.681.622-.7.1-.006.2-.001.3 0 4.953.136.301.01.012 0 5.153.148 9.383 3.523 10.29 8.55.155.857.21 1.734.28 2.604.028.366-.182.713-.583.718z" fill="#000"/><path d="M21.898 10.126a7.108 7.108 0 0 0-1.95-.59c-.294-.049-.591-.078-.886-.118-.358-.05-.55-.275-.533-.623.016-.326.258-.56.618-.54 1.184.066 2.327.319 3.38.868 2.14 1.118 3.363 2.883 3.72 5.24.016.107.042.213.05.32.02.264.033.53.053.878-.008.064-.013.213-.05.354-.137.51-.922.575-1.103.059a1.518 1.518 0 0 1-.062-.492c-.002-1.078-.24-2.154-.79-3.092a5.804 5.804 0 0 0-2.447-2.264z" fill="#000"/><path d="M23.142 15.438c-.245.004-.149 0-.056-.003-.394-.014-.609-.243-.651-.615-.031-.272-.056-.548-.121-.813-.13-.522-.411-1.005-.856-1.324a2.243 2.243 0 0 0-.697-.332c-.316-.09-.645-.066-.961-.142-.343-.083-.533-.357-.479-.674a.618.618 0 0 1 .654-.492c2 .143 3.43 1.163 3.633 3.485.015.164.032.337-.005.494a.51.51 0 0 1-.461.416z" fill="#000"/></g></svg>