<svg width="16" height="25" viewBox="0 0 16 25" xmlns="http://www.w3.org/2000/svg"><title>icon_mic</title><g fill-rule="evenodd"><path d="M8 16c2.755 0 5-2.14 5-4.767V4.767C13 2.14 10.755 0 8 0S3 2.14 3 4.767v6.466C3 13.864 5.245 16 8 16zM4.273 4.767C4.273 2.81 5.947 1.214 8 1.214s3.727 1.596 3.727 3.553v6.466c0 1.957-1.674 3.553-3.727 3.553s-3.727-1.596-3.727-3.553V4.767z"/><path d="M.602 11a.613.613 0 0 0-.602.623c0 4.351 3.267 7.932 7.4 8.246v3.885H4.27a.613.613 0 0 0-.602.623c0 .344.27.623.603.623h7.458a.613.613 0 0 0 .603-.623.613.613 0 0 0-.603-.623H8.6v-3.885c4.134-.32 7.401-3.895 7.401-8.246a.613.613 0 0 0-.602-.623.613.613 0 0 0-.603.623c0 3.88-3.05 7.035-6.802 7.035S1.19 15.503 1.19 11.623A.594.594 0 0 0 .602 11z"/></g></svg>