<svg width="40" height="40" viewBox="0 0 40 40" xmlns="http://www.w3.org/2000/svg"><title>whatsapp</title><path d="M20 1C9.523 1 1 9.523 1 20c0 3.65 1.038 7.195 3 10.251l.472.735-1.848 6.564 6.79-1.748.701.427A18.961 18.961 0 0 0 20 39c10.477 0 19-8.523 19-19S30.477 1 20 1zm11.651 24.84l-.237 1.107a4.793 4.793 0 0 1-2.086 3.043c-1.359.869-3.12 1.296-5.359.663-6.948-1.965-10.878-6.565-12.986-9.44-2.109-2.876-2.923-5.75-2.396-8.099.353-1.575 1.504-2.783 2.224-3.408a1.8 1.8 0 0 1 1.276-.437l1.485.081a.77.77 0 0 1 .666.466l2.163 5.06a.77.77 0 0 1-.126.806l-1.882 2.178a.57.57 0 0 0-.072.635c2.48 4.776 6.998 6.669 8.347 7.143.23.08.485.004.634-.189l1.97-2.553a.77.77 0 0 1 .93-.23l5.019 2.314a.77.77 0 0 1 .43.86z" stroke="#000" stroke-width="2" fill="none"/></svg>