<svg width="28" height="32" viewBox="0 0 28 32" xmlns="http://www.w3.org/2000/svg"><title>icon_profile</title><g fill="none" fill-rule="evenodd"><path d="M-2 0h32v32H-2z"/><path d="M27.842 30.203a.604.604 0 0 1-.237.975A13.113 13.113 0 0 1 23 32c-1.142 0-2.404-.143-3.766-.508-1.773-.477-3.024-1.145-3.45-1.391a11.037 11.037 0 0 1-3.569 0c-.427.246-1.678.914-3.451 1.39-1.02.275-2.32.508-3.785.508-1.41 0-2.972-.216-4.585-.821a.604.604 0 0 1-.238-.975c1.434-1.575 1.494-5.59 1.325-9.743a3.16 3.16 0 0 1-.217-4.421c-.21-4.236-.32-7.068 1.034-9.685.076-.147.157-.294.24-.436.974-1.66 2.783-2.735 4.771-2.853A8.383 8.383 0 0 1 13.483.01c2.73-.097 5.42.565 7.778 1.912 2.023 1.157 3.517 2.648 4.44 4.433 1.354 2.615 1.243 5.448 1.035 9.684a3.161 3.161 0 0 1-.218 4.422c-.17 4.154-.109 8.167 1.324 9.743zM24.934 19.39c0 .212-.007.422-.019.63.808-.25 1.395-1 1.395-1.884 0-.876-.578-1.62-1.376-1.877v3.131zM3.388 6.908c-1.084 2.095-1.117 4.372-.939 8.285a3.15 3.15 0 0 1 .618-.185v-.111c0-.31.235-.57.545-.604 2.445-.265 3.998-1.388 4.887-3.534a.615.615 0 0 1 1.007-.19c1.218 1.26 5.779 5.29 14.205 5.2V14.39a.61.61 0 0 1 .611-.607.61.61 0 0 1 .612.607v.618c.214.041.42.103.617.184.178-3.913.145-6.19-.938-8.284-.814-1.573-2.147-2.896-3.962-3.934a13.39 13.39 0 0 0-7.125-1.751A7.169 7.169 0 0 0 8.1 4.032a.613.613 0 0 1-.48.237c-1.675.02-3.216.885-4.022 2.26a8.277 8.277 0 0 0-.21.38zm-.302 13.114a10.906 10.906 0 0 1-.02-.63V16.26a1.978 1.978 0 0 0-1.376 1.878 1.98 1.98 0 0 0 1.396 1.884zM1.59 30.298c3.689 1.1 7.038.098 8.808-.658-3.68-1.278-6.468-4.457-7.164-8.345a3.203 3.203 0 0 1-.502-.11c.138 4.192-.05 7.265-1.142 9.113zm14.418-6.14a.614.614 0 0 1 .82 0 .51.51 0 0 1 0 .76C16.05 25.638 15.026 26 14 26c-1.025 0-2.05-.361-2.83-1.083a.51.51 0 0 1 0-.76.614.614 0 0 1 .821 0c1.108 1.025 2.91 1.025 4.018 0zM14 29.03c5.355 0 9.71-4.324 9.71-9.64v-2.407c-3.714.04-7.124-.672-10.143-2.114-2.008-.96-3.433-2.054-4.314-2.852-1.036 1.913-2.669 3.034-4.963 3.408v3.965c0 5.316 4.356 9.64 9.71 9.64zm5.595 1.299c2.366.628 4.654.617 6.814-.031-1.091-1.848-1.28-4.921-1.141-9.114-.163.05-.33.086-.503.11-.695 3.889-3.485 7.068-7.166 8.346.535.23 1.211.48 1.996.689zm-12.39-11.56a2.482 2.482 0 0 1 3.59 0 .74.74 0 0 1 0 1.02.683.683 0 0 1-.985 0 1.12 1.12 0 0 0-1.62 0 .68.68 0 0 1-.986 0 .74.74 0 0 1 0-1.02zm14.59 1.02a.683.683 0 0 1-.985 0 1.12 1.12 0 0 0-1.62 0 .68.68 0 0 1-.986 0 .74.74 0 0 1 0-1.02 2.482 2.482 0 0 1 3.592 0 .74.74 0 0 1 0 1.02z" fill="#000"/></g></svg>