<svg width="128" height="128" viewBox="0 0 128 128" xmlns="http://www.w3.org/2000/svg"><title>icon_boy</title><g transform="translate(28 24)" fill-rule="evenodd"><ellipse cx="20.245" cy="49.914" rx="2.852" ry="2.854"/><ellipse cx="51.8" cy="49.914" rx="2.852" ry="2.854"/><path d="M20.245 40.762a5.793 5.793 0 0 0-4.124 1.71 1.525 1.525 0 0 0 2.155 2.156 2.766 2.766 0 0 1 1.97-.817c.743 0 1.443.29 1.969.817.297.297.687.446 1.077.446a1.525 1.525 0 0 0 1.078-2.603 5.794 5.794 0 0 0-4.125-1.709zm27.431 1.709a1.525 1.525 0 0 0 2.155 2.157 2.787 2.787 0 0 1 3.939 0c.297.297.687.446 1.077.446a1.525 1.525 0 0 0 1.078-2.603 5.838 5.838 0 0 0-8.25 0zm-8.718 19.561a4.122 4.122 0 0 1-2.935 1.216 4.121 4.121 0 0 1-2.935-1.216 1.523 1.523 0 1 0-2.155 2.156 7.148 7.148 0 0 0 5.09 2.11c1.923 0 3.73-.75 5.09-2.11a1.525 1.525 0 0 0-2.155-2.156z"/><path d="M71.977 48.443c0-4.141-2.992-7.595-6.927-8.315V14.621a9.827 9.827 0 0 0-4.4-8.206 9.813 9.813 0 0 0-8.707-1.084l-9.567-3.249c-7.351-2.497-15.09-2.753-22.378-.741-9.54 2.634-15.011 8.204-15.855 16.122a11.577 11.577 0 0 0-1.745 3.289l-.742 2.197a2.61 2.61 0 0 0 1.093 3.086 2.606 2.606 0 0 0 3.255-.336c.305-.295.64-.545.99-.753v15.182c-3.934.72-6.926 4.174-6.926 8.316 0 4.307 3.236 7.87 7.403 8.388 1.047 5.782 3.797 11.115 8.002 15.383 5.49 5.572 12.787 8.64 20.55 8.64h.003c7.752 0 15.04-3.022 20.522-8.507 4.282-4.284 7.062-9.672 8.074-15.522 4.144-.54 7.355-4.092 7.355-8.383zM58.965 8.956c1.93 1.282 3.038 3.346 3.038 5.665v19.952c-4.73-.735-8.361-4.837-8.361-9.773l-.127-16.764c1.861-.49 3.802-.174 5.45.92zM4.99 22.605l.296-.877a8.549 8.549 0 0 1 4.726-5.118 8.54 8.54 0 0 1 6.963.11c4.615 2.15 10.193.987 13.566-2.827l.377-.428a1.525 1.525 0 0 0-2.282-2.02l-.378.427c-2.485 2.811-6.596 3.668-9.996 2.083a11.59 11.59 0 0 0-9.45-.148c-.274.118-.542.25-.806.388C9.778 9.47 14.065 6.142 20.81 4.28c6.698-1.849 13.817-1.61 20.588.69l9.07 3.08.12 7.879a26.782 26.782 0 0 1-16.643 10.493A26.778 26.778 0 0 1 14.2 22.52a8.254 8.254 0 0 0-9.21.085zM3.116 48.443a5.415 5.415 0 0 1 3.879-5.186v8.265c0 .714.026 1.424.076 2.129a5.415 5.415 0 0 1-3.955-5.208zm51.278 21.749c-4.907 4.909-11.43 7.613-18.369 7.614h-.002c-6.94 0-13.468-2.747-18.38-7.732-4.901-4.975-7.6-11.564-7.6-18.552V24.227a5.261 5.261 0 0 1 2.49.847 29.81 29.81 0 0 0 21.98 4.344 29.798 29.798 0 0 0 16.08-8.755V24.8c0 6.62 4.994 12.09 11.41 12.848V51.81c0 6.944-2.702 13.472-7.61 18.382zm10.598-16.546c.037-.609.058-1.22.058-1.836v-8.553a5.415 5.415 0 0 1 3.88 5.186 5.414 5.414 0 0 1-3.938 5.203z"/></g></svg>