<svg width="1600" height="1113" viewBox="0 0 1600 1113" xmlns="http://www.w3.org/2000/svg"><defs><radialGradient fx="50%" fy="50%" id="a"><stop stop-color="#FFF" offset="0%"/><stop stop-color="#E7E9ED" offset="100%"/></radialGradient><radialGradient fx="50%" fy="50%" id="b"><stop stop-color="#FFF" offset="0%"/><stop stop-color="#E8E9ED" offset="100%"/></radialGradient></defs><g transform="translate(0 -487)" fill="none" fill-rule="evenodd"><circle fill="#F0F0F6" cx="800" cy="800" r="800"/><circle fill="url(#a)" cx="800" cy="800" r="600"/><circle fill="url(#b)" cx="800" cy="800" r="400"/><circle fill="url(#a)" cx="800" cy="800" r="200"/><g class="planet" transform="translate(418 940)"><text font-size="19" fill="#989BA8"><tspan x="36" y="18">Учим</tspan> <tspan x="83.843" y="18"> </tspan> <tspan x="88.878" y="18">хорошему</tspan> <tspan x="186.392" y="18"> </tspan> <tspan x="191.427" y="18">дизайну</tspan></text><circle fill="#1E4BFF" cx="12" cy="14" r="12"/></g><g class="planet" transform="translate(246 615)"><text font-size="19" fill="#989BA8"><tspan x="0" y="31">Делаем</tspan> <tspan x="71.102" y="31"> </tspan> <tspan x="76.137" y="31">крутые</tspan> <tspan x="142.646" y="31"> </tspan> <tspan x="0" y="58">фирменные</tspan> <tspan x="111.078" y="58"> </tspan> <tspan x="116.113" y="58">стили</tspan></text><circle fill="#1E4BFF" cx="915" cy="12" r="12"/></g><g class="planet" transform="translate(210 614)"><text font-size="19" fill="#989BA8"><tspan x="975" y="18">Создаем</tspan> <tspan x="1056.585" y="18"> </tspan> <tspan x="1061.62" y="18">дизайн</tspan> <tspan x="1129.716" y="18"> </tspan> <tspan x="975" y="45">среды</tspan></text><circle fill="#1E4BFF" cx="12" cy="29" r="12"/></g></g></svg>