<svg width="53" height="48" viewBox="0 0 53 48" xmlns="http://www.w3.org/2000/svg"><title>icon_smile_col_2</title><g fill="none" fill-rule="evenodd"><path d="M52.143 20.129C50.194 7.509 36.399-.929 24.162.309a.99.99 0 0 0-.702.31C13.64 1.394 4.988 7.2 1.793 16.723c-3.352 9.91.623 21.754 9.586 27.406 9.353 5.961 21.902 4.49 30.475-2.168 6.47-5.032 11.614-13.47 10.289-21.832zM49.259 26.4c-2.183 9.058-10.366 16.335-19.33 18.348-13.094 3.02-25.954-5.342-27.201-18.89-1.091-12.62 8.651-22.529 20.81-23.69.156.155.39.232.624.232 12.314.774 28.682 9.213 25.097 24z" fill="#FFC600"/><path d="M38.37 20.736l-3.44-3.556-3.439 3.556a.854.854 0 0 1-1.235 0 .926.926 0 0 1 0-1.278l4.056-4.194a.854.854 0 0 1 1.235 0l4.056 4.194a.926.926 0 0 1 0 1.278.85.85 0 0 1-1.233 0zm-19 0l-3.44-3.556-3.439 3.556a.854.854 0 0 1-1.235 0 .926.926 0 0 1 0-1.278l4.056-4.194a.854.854 0 0 1 1.235 0l4.056 4.194a.926.926 0 0 1 0 1.278.85.85 0 0 1-1.233 0z" fill="#FF4E00"/><path d="M34.76 31.196c-1.95 1.884-3.685 3.607-6.396 4.415-2.06.592-4.282.484-6.288-.162-1.41-.484-4.282-1.777-4.39-3.553-.109-1.077-1.79-1.077-1.681 0 .271 4.307 6.993 6.192 10.408 5.923 3.523-.216 8.294-2.37 9.54-5.923.271-.7-.704-1.185-1.192-.7z" fill="#FF5E17"/></g></svg>