<svg width="53" height="48" viewBox="0 0 53 48" xmlns="http://www.w3.org/2000/svg"><title>icon_smile_3</title><g fill="#CDCCC8" fill-rule="evenodd"><path d="M48.182 11.12c-3.614-4.8-9.396-6.32-15.258-5.6-1.606.16-1.686 2.48 0 2.48 6.585.16 11.805 1.44 14.776 7.84 2.65 5.68 2.008 12.08-.883 17.52-6.264 11.68-20.638 14.16-32.041 8.16C4.818 36.24.642 24 5.62 13.92 10.841 3.36 23.53.72 34.048 4.08c1.366.48 1.928-1.68.563-2.08C25.055-1.12 13.65.32 6.665 8.08.562 14.8-1.285 26 3.533 34c5.862 9.84 17.426 14.8 28.749 13.2C42.56 45.76 50.43 36.8 52.036 26.72c.803-5.44-.562-11.2-3.854-15.6z"/><path d="M31.018 32.315c-2.216 2.05-5.82 2.05-8.036 0a1.228 1.228 0 0 0-1.642 0 1.02 1.02 0 0 0 0 1.52C22.9 35.277 24.95 36 27 36c2.05 0 4.1-.722 5.66-2.166a1.02 1.02 0 0 0 0-1.52 1.228 1.228 0 0 0-1.642 0zm-17.61-13.778a1.478 1.478 0 0 0 0 2.04 1.36 1.36 0 0 0 1.972 0 2.24 2.24 0 0 1 3.24 0 1.363 1.363 0 0 0 1.972 0 1.478 1.478 0 0 0 0-2.04 4.964 4.964 0 0 0-7.184 0zm27.184 1.529c.544-.482.544-1.265 0-1.748-1.98-1.757-5.203-1.757-7.184 0-.544.483-.544 1.266 0 1.748a1.523 1.523 0 0 0 1.972 0c.893-.792 2.347-.792 3.24 0 .272.242.63.363.986.363.357 0 .713-.121.986-.363z"/></g></svg>