<svg width="53" height="48" viewBox="0 0 53 48" xmlns="http://www.w3.org/2000/svg"><title>icon_smile_col_4</title><g fill="none" fill-rule="evenodd"><path d="M48.182 11.12c-3.614-4.8-9.396-6.32-15.258-5.6-1.606.16-1.686 2.48 0 2.48 6.585.16 11.805 1.44 14.776 7.84 2.65 5.68 2.008 12.08-.883 17.52-6.264 11.68-20.638 14.16-32.041 8.16C4.818 36.24.642 24 5.62 13.92 10.841 3.36 23.53.72 34.048 4.08c1.366.48 1.928-1.68.563-2.08C25.055-1.12 13.65.32 6.665 8.08.562 14.8-1.285 26 3.533 34c5.862 9.84 17.426 14.8 28.749 13.2C42.56 45.76 50.43 36.8 52.036 26.72c.803-5.44-.562-11.2-3.854-15.6z" fill="#FFC600"/><path d="M16 17c-1.381 0-2.68.612-3.656 1.722-.459.521-.459 1.366 0 1.887.458.521 1.201.521 1.66 0 .533-.606 1.242-.94 1.996-.94s1.463.334 1.997.94c.229.26.529.39.83.39.3 0 .6-.13.83-.39.458-.521.458-1.366 0-1.887C18.68 17.612 17.38 17 16 17zm24.826 4c.3 0 .601-.13.83-.39.459-.522.459-1.367 0-1.888C40.68 17.612 39.381 17 38 17c-1.381 0-2.68.612-3.656 1.722-.459.521-.459 1.366 0 1.887.458.521 1.201.521 1.66 0 .533-.606 1.242-.94 1.996-.94s1.463.334 1.996.94c.23.26.53.391.83.391zM31.99 31H21.337c-.738 0-1.337.599-1.337 1.337A6.67 6.67 0 0 0 26.663 39a6.67 6.67 0 0 0 6.664-6.663c0-.738-.599-1.337-1.337-1.337zm-10.086 1.5h10c-.732 2.91-2.697 5-5 5-2.302 0-4.267-2.09-5-5zM12.823 24h-2.646C9.527 24 9 24.448 9 25s.527 1 1.177 1h2.646c.65 0 1.177-.448 1.177-1s-.527-1-1.177-1zM45 25c0-.552-.527-1-1.177-1h-2.646c-.65 0-1.177.448-1.177 1s.527 1 1.177 1h2.646c.65 0 1.177-.448 1.177-1z" fill="#FF5E17"/></g></svg>