<svg width="53" height="48" viewBox="0 0 53 48" xmlns="http://www.w3.org/2000/svg"><title>icon_smile_1</title><g fill="#CDCCC8" fill-rule="evenodd"><path d="M32.924 5.52c-1.606.16-1.686 2.48 0 2.48 6.585.16 11.805 1.44 14.776 7.84 2.65 5.68 2.008 12.08-.883 17.52-6.264 11.68-20.638 14.16-32.041 8.16C4.818 36.24.642 24 5.62 13.92 10.841 3.36 23.53.72 34.048 4.08c1.366.48 1.928-1.68.563-2.08C25.055-1.12 13.65.32 6.665 8.08.562 14.8-1.285 26 3.533 34c5.862 9.84 17.426 14.8 28.749 13.2C42.56 45.76 50.43 36.8 52.036 26.72c.803-5.44-.562-11.2-3.854-15.6-3.614-4.8-9.396-6.32-15.258-5.6z"/><path d="M13.144 24.027c-.51.697.445 1.521 1.145 1.141 2.353-1.33 4.39-3.676 6.425-5.387.381-.317.381-1.014 0-1.394-1.654-1.584-3.5-2.788-5.726-3.612-1.081-.317-1.526 1.394-.445 1.838 1.463.57 2.8 1.394 4.008 2.408-1.972 1.52-4.135 3.105-5.407 5.006zm22.408-9.016a263.774 263.774 0 0 1-4.114 2.99c-.556.388-.611 1.22 0 1.607 1.223.775 2.446 1.55 3.614 2.437 1.111.83 2.168 2.049 3.446 2.658.668.332 1.501-.332 1.057-1.052-.667-1.219-2.002-2.05-3.114-2.88-1-.72-1.945-1.385-3.002-2.05l3.002-2.325c.89-.665-.11-1.994-.889-1.385zM26.964 37.43c2.546-.267 4.622-3.204 3.885-5.673-.334-1.202-2.01-.868-2.076.267-.134 1.268-.402 2.803-1.876 3.137-1.407.333-2.68-1.002-2.88-2.27-.135-1.268-2.145-1.334-2.01 0 .267 2.47 2.277 4.872 4.957 4.539z"/></g></svg>