<svg width="32" height="31" viewBox="0 0 32 31" xmlns="http://www.w3.org/2000/svg"><title>icon-dating</title><g fill="#FFC600" fill-rule="evenodd"><path d="M26.017 1.728V.058H23.93v1.67h-3.895V.058h-2.087v1.67h-3.896V.058h-2.087v1.67H8.07V.058H5.983v1.67H0v29.214h32V1.728h-5.983zm3.896 27.136H2.087V10.507h27.826v18.357zm0-20.435H2.087V3.806h3.896v1.67H8.07v-1.67h3.895v1.67h2.087v-1.67h3.896v1.67h2.087v-1.67h3.895v1.67h2.087v-1.67h3.896V8.43z"/><path d="M13.39 23.897a36.222 36.222 0 0 0 2.042 1.426l.568.367.568-.367c.049-.032 1.201-.778 2.042-1.426 1.904-1.467 4.09-3.446 4.09-5.753 0-2.35-1.92-4.263-4.28-4.263-.87 0-1.714.265-2.42.747a4.294 4.294 0 0 0-2.42-.747c-2.36 0-4.28 1.912-4.28 4.263 0 2.307 2.186 4.286 4.09 5.753zm.19-7.938a2.2 2.2 0 0 1 1.64.735l.78.873.78-.873a2.2 2.2 0 0 1 1.64-.735c1.21 0 2.193.98 2.193 2.185 0 1.05-1.103 2.433-3.28 4.11-.42.323-.942.685-1.333.948-.39-.263-.913-.625-1.333-.949-2.177-1.676-3.28-3.059-3.28-4.109 0-1.205.984-2.185 2.193-2.185z"/></g></svg>