<svg width="32" height="28" viewBox="0 0 32 28" xmlns="http://www.w3.org/2000/svg"><title>icon-cake</title><path d="M27.97 3.932A4.212 4.212 0 0 0 23.78.03a4.213 4.213 0 0 0-4.122 3.396L0 10.13v17.84h32V10.881c0-2.987-1.39-5.378-4.03-6.95zm-4.19-1.806a2.12 2.12 0 0 1 0 4.24 2.12 2.12 0 0 1 0-4.24zm-3.982 3.466a4.21 4.21 0 0 0 3.982 2.87 4.205 4.205 0 0 0 3.749-2.314c1.293.952 2.064 2.185 2.303 3.686H7.362l12.436-4.242zM2.087 11.93h27.826v3.549a7.174 7.174 0 0 1-1.164-.258c-.65-.185-1.386-.395-2.778-.395-1.391 0-2.128.21-2.777.395-.594.169-1.107.315-2.208.315-1.101 0-1.614-.146-2.208-.315-.65-.185-1.386-.395-2.777-.395-1.392 0-2.128.21-2.778.395-.594.169-1.107.315-2.208.315-1.101 0-1.614-.146-2.208-.315-.65-.185-1.386-.395-2.778-.395-1.391 0-2.128.21-2.777.395-.367.104-.703.2-1.165.258V11.93zm27.826 13.944H2.087v-2.941a8.777 8.777 0 0 0 1.734-.349c.594-.17 1.107-.315 2.208-.315 1.102 0 1.615.146 2.208.315.65.185 1.386.395 2.778.395 1.392 0 2.128-.21 2.778-.395.594-.17 1.106-.315 2.208-.315 1.1 0 1.614.146 2.207.315.65.185 1.386.395 2.778.395 1.391 0 2.128-.21 2.777-.395.594-.17 1.107-.315 2.208-.315 1.101 0 1.614.146 2.208.315.464.132.974.277 1.734.349v2.94zm0-5.049a7.17 7.17 0 0 1-1.164-.258c-.65-.185-1.386-.395-2.778-.395-1.391 0-2.128.21-2.777.395-.594.17-1.107.316-2.208.316-1.101 0-1.614-.146-2.208-.316-.65-.185-1.386-.395-2.777-.395-1.392 0-2.128.21-2.778.395-.594.17-1.107.316-2.208.316-1.101 0-1.614-.146-2.208-.316-.65-.185-1.386-.395-2.778-.395-1.391 0-2.128.21-2.777.395-.367.105-.703.2-1.165.258v-3.239a8.777 8.777 0 0 0 1.734-.348c.594-.17 1.107-.316 2.208-.316 1.101 0 1.614.146 2.208.316.65.185 1.386.394 2.778.394 1.391 0 2.128-.21 2.778-.394.593-.17 1.106-.316 2.207-.316 1.102 0 1.615.146 2.208.316.65.185 1.386.394 2.778.394 1.391 0 2.128-.21 2.777-.394.594-.17 1.107-.316 2.208-.316 1.101 0 1.614.146 2.208.316.464.132.974.276 1.734.348v3.24z" fill="#FFC600" fill-rule="evenodd"/></svg>