<svg width="36" height="30" viewBox="0 0 36 30" xmlns="http://www.w3.org/2000/svg"><title>icon-hearts</title><path d="M32.96 12.818a11.06 11.06 0 0 0 .441-3.187c0-2.614-.962-5.027-2.709-6.795-1.797-1.819-4.318-2.82-7.099-2.82-2.674 0-5.185 1.251-6.892 3.356C14.993 1.267 12.483.016 9.808.016c-2.78 0-5.301 1.001-7.099 2.82C.962 4.604 0 7.016 0 9.631c0 5.27 3.075 8.41 9.13 12.695 3.954 2.797 6.033 5.145 6.577 5.991l.99 1.584.994-1.579c.01-.015.945-1.445 3.544-3.652.245.181.5.365.766.553 2.48 1.755 3.358 3.006 3.421 3.098l.98 1.663 1.002-1.662c.058-.086.935-1.34 3.421-3.099C34.257 22.795 36 20.996 36 17.905c0-2.263-1.2-4.14-3.04-5.087zM16.7 25.796c-1.03-1.176-2.959-3.087-6.214-5.39-3.231-2.287-5.121-3.924-6.321-5.475-1.257-1.625-1.817-3.26-1.817-5.3 0-1.99.72-3.816 2.03-5.14 1.373-1.39 3.25-2.124 5.43-2.124 2.414 0 4.657 1.41 5.855 3.678L16.7 8.011l1.037-1.966c1.198-2.268 3.441-3.678 5.855-3.678 2.18 0 4.058.735 5.43 2.123 1.31 1.325 2.03 3.15 2.03 5.14 0 .924-.116 1.766-.354 2.55a5.317 5.317 0 0 0-4.286 1.533 5.316 5.316 0 0 0-3.735-1.557c-3.336 0-5.852 2.472-5.852 5.749 0 2.168.859 3.7 2.555 5.26-1.229 1.068-2.098 1.967-2.68 2.631zm12.77-2.493c-1.448 1.025-2.425 1.91-3.057 2.564-.632-.655-1.609-1.54-3.057-2.564-3.244-2.295-4.182-3.506-4.182-5.398 0-2 1.441-3.397 3.504-3.397 1.109 0 2.142.654 2.697 1.706l1.038 1.966 1.038-1.966c.555-1.052 1.589-1.706 2.697-1.706 2.063 0 3.504 1.397 3.504 3.397 0 1.892-.938 3.103-4.182 5.398z" fill="#FFC600" fill-rule="evenodd"/></svg>