<svg width="40" height="33" viewBox="0 0 40 33" xmlns="http://www.w3.org/2000/svg"><title>icon-fireworks</title><g fill="#FFC600" fill-rule="evenodd"><path d="M12.94 13.307l2.044-5.429L9.456 9.55 4.954 5.917l-.128 5.804L0 14.905l5.449 1.916 1.52 5.6 3.495-4.62 5.765.277-3.289-4.77zm-3.629 2.009L8.01 17.038l-.567-2.087-2.03-.714L7.21 13.05l.048-2.163 1.678 1.354 2.06-.623-.762 2.023 1.226 1.778-2.149-.103zm25.863-3.596l-.128-5.803-4.502 3.632-5.528-1.67 2.043 5.428-3.288 4.77 5.765-.276 3.495 4.62 1.52-5.6L40 14.905l-4.826-3.184zm-2.616 3.23l-.567 2.088-1.302-1.722-2.149.103 1.226-1.778-.762-2.023 2.06.623 1.678-1.354.047 2.163 1.799 1.187-2.03.714zm-11.376-3.327l-.26-2.382-1.722 1.657-2.333-.487 1.034 2.158-1.181 2.081 2.36-.322 1.603 1.773.425-2.358 2.172-.985zm-1.655-4.736L20.97 4.98l2.38.115-1.358-1.97.844-2.24-2.282.69-1.859-1.5-.053 2.396-1.992 1.314 2.25.79z"/><path d="M10.474 20.501c1.74 2.122 4.66 6.553 4.66 12.4h2.414c0-6.606-3.266-11.572-5.213-13.944l-1.86 1.544zM21.834 32.9h2.413c0-5.846 2.92-10.277 4.66-12.399l-1.861-1.544c-1.947 2.372-5.212 7.338-5.212 13.944zm-4.138-13.333c.97 4.273.86 9.71.788 13.31l2.413.048c.074-3.717.187-9.334-.849-13.898l-2.352.54z"/></g></svg>