<svg width="29" height="33" viewBox="0 0 29 33" xmlns="http://www.w3.org/2000/svg"><title>icon-flowers</title><g fill="#FFC600" fill-rule="evenodd"><ellipse cx="6.482" cy="13.989" rx="1.484" ry="1.484"/><path d="M28.042 11.7a3.193 3.193 0 0 0-.942-2.294 3.204 3.204 0 0 0-2.294-.942 3.192 3.192 0 0 0-2.288-.956c-.165 0-.327.012-.487.036v-.011c0-1.02-.417-1.968-1.143-2.647a3.606 3.606 0 0 0-1.062-2.68 3.603 3.603 0 0 0-2.68-1.062A3.604 3.604 0 0 0 14.5 0c-1.02 0-1.968.418-2.646 1.144a3.603 3.603 0 0 0-2.68 1.062 3.606 3.606 0 0 0-1.062 2.68 3.606 3.606 0 0 0-1.144 2.647v.011a3.265 3.265 0 0 0-.486-.036 3.19 3.19 0 0 0-2.288.956 3.197 3.197 0 0 0-2.294.942A3.19 3.19 0 0 0 .958 11.7a3.193 3.193 0 0 0-.956 2.29c0 .876.348 1.691.956 2.288a3.193 3.193 0 0 0 .942 2.294 3.193 3.193 0 0 0 2.293.941 3.192 3.192 0 0 0 2.29.957 3.19 3.19 0 0 0 2.289-.957h.02c.436 0 .858-.086 1.248-.25 1.294 1.822 2.22 3.67 2.772 5.532-.95-.687-1.86-1.167-2.725-1.432-2.036-.625-3.285.09-3.848.573-1.428 1.223-1.619 3.516-.426 5.113.79 1.056 2.05 1.637 3.552 1.637h.05c1.21-.011 2.553-.388 4.009-1.122V33h2.152v-3.436c1.456.734 2.8 1.111 4.01 1.121h.049c1.502 0 2.762-.58 3.551-1.636 1.193-1.597 1.002-3.89-.426-5.113-.563-.483-1.811-1.198-3.848-.573-.864.265-1.775.745-2.724 1.432.552-1.861 1.478-3.71 2.773-5.533.396.167.825.254 1.267.251a3.192 3.192 0 0 0 2.29.957c.876 0 1.692-.348 2.29-.957.864.002 1.68-.33 2.292-.941.62-.62.95-1.442.942-2.294a3.193 3.193 0 0 0 .956-2.289c0-.876-.348-1.692-.956-2.289zM7.537 27.76c-.51-.683-.463-1.706.102-2.19.254-.217.57-.315.932-.315 1.129 0 2.698.957 4.16 2.248-2.81 1.504-4.512 1.17-5.194.257zm13.824-2.19c.565.484.612 1.507.102 2.19-.682.913-2.383 1.247-5.193-.257 1.93-1.704 4.046-2.827 5.09-1.933zM10.306 14.893l-.657.408.177.753c.085.362-.021.734-.283.996a1.055 1.055 0 0 1-.996.283l-.753-.177-.407.658a1.057 1.057 0 0 1-.905.504c-.37 0-.708-.188-.904-.504l-.407-.658-.753.177a1.055 1.055 0 0 1-.996-.282 1.058 1.058 0 0 1-.283-.997l.177-.753-.657-.408a1.058 1.058 0 0 1-.505-.904c0-.37.189-.708.505-.904l.657-.407-.177-.754a1.057 1.057 0 0 1 .283-.996c.262-.262.634-.367.996-.282l.753.177.407-.658c.196-.316.534-.505.904-.505s.709.189.904.505l.408.658.343-.08a3.61 3.61 0 0 0 1.037 2.116 3.614 3.614 0 0 0 1.619.938 1.057 1.057 0 0 1-.486 1.096zm3.118 5.758a23.734 23.734 0 0 0-1.786-2.853c.247-.467.374-.988.369-1.52a3.18 3.18 0 0 0 .879-1.588c.173.085.353.157.538.214v5.747zm1.076-7.738a1.47 1.47 0 0 1-1.258-.702l-.407-.658-.754.177a1.468 1.468 0 0 1-1.385-.393 1.471 1.471 0 0 1-.393-1.385l.177-.754-.658-.407a1.471 1.471 0 0 1-.702-1.258c0-.516.263-.986.702-1.258l.658-.408-.177-.753a1.471 1.471 0 0 1 .393-1.386 1.472 1.472 0 0 1 1.385-.393l.754.177.407-.658a1.47 1.47 0 0 1 1.258-.702c.516 0 .986.263 1.258.702l.407.658.754-.177a1.471 1.471 0 0 1 1.385.393c.364.364.511.882.393 1.386l-.177.753.658.407c.44.273.702.743.702 1.259 0 .515-.263.986-.702 1.258l-.658.407.177.753a1.471 1.471 0 0 1-.393 1.386 1.468 1.468 0 0 1-1.385.393l-.754-.177-.407.658a1.47 1.47 0 0 1-1.258.702zm1.076 7.738v-5.747c.185-.057.365-.129.538-.214a3.18 3.18 0 0 0 .879 1.588 3.182 3.182 0 0 0 .37 1.52 23.737 23.737 0 0 0-1.787 2.853zm10.766-5.758l-.658.408.177.753c.085.362-.02.734-.283.996a1.055 1.055 0 0 1-.996.283l-.753-.177-.407.658a1.057 1.057 0 0 1-.904.504c-.37 0-.709-.188-.904-.504l-.408-.658-.753.177a1.055 1.055 0 0 1-.996-.282 1.058 1.058 0 0 1-.283-.997l.177-.753-.657-.408a1.058 1.058 0 0 1-.487-1.096 3.612 3.612 0 0 0 1.619-.938 3.61 3.61 0 0 0 1.037-2.117l.343.08.407-.657c.196-.316.534-.505.905-.505.37 0 .708.189.904.505l.407.658.753-.177c.362-.085.734.02.996.282.262.262.367.634.282.996l-.176.753.657.408c.316.196.505.534.505.904s-.189.709-.504.904z"/><ellipse cx="22.517" cy="13.989" rx="1.484" ry="1.484"/><ellipse cx="14.5" cy="7.533" rx="1.773" ry="1.773"/></g></svg>