<svg width="32" height="30" viewBox="0 0 32 30" xmlns="http://www.w3.org/2000/svg"><title>icon-wedding</title><path d="M22.13 9.996A9.745 9.745 0 0 0 16 12.163a9.745 9.745 0 0 0-6.13-2.167C4.428 9.996 0 14.48 0 19.99c0 5.511 4.428 9.995 9.87 9.995A9.745 9.745 0 0 0 16 27.819a9.745 9.745 0 0 0 6.13 2.167c5.442 0 9.87-4.484 9.87-9.995 0-5.511-4.428-9.995-9.87-9.995zM9.87 27.872c-4.292 0-7.783-3.535-7.783-7.881s3.491-7.882 7.783-7.882c1.732 0 3.334.577 4.63 1.55a10.025 10.025 0 0 0-2.24 6.332c0 2.4.84 4.607 2.24 6.332a7.678 7.678 0 0 1-4.63 1.55zm4.477-7.881c0-1.828.618-3.513 1.653-4.851a7.906 7.906 0 0 1 1.653 4.85A7.906 7.906 0 0 1 16 24.843a7.906 7.906 0 0 1-1.653-4.851zm7.783 7.881a7.678 7.678 0 0 1-4.63-1.55 10.025 10.025 0 0 0 2.24-6.331c0-2.401-.84-4.607-2.239-6.332a7.678 7.678 0 0 1 4.629-1.55c4.292 0 7.783 3.536 7.783 7.882s-3.491 7.881-7.783 7.881zM13.84 8.306a28.176 28.176 0 0 0 1.592 1.13l.568.373.568-.373c.038-.025.935-.616 1.592-1.13 1.513-1.185 3.249-2.79 3.249-4.705 0-1.978-1.589-3.587-3.542-3.587A3.51 3.51 0 0 0 16 .554a3.51 3.51 0 0 0-1.867-.54c-1.953 0-3.542 1.61-3.542 3.587 0 1.915 1.736 3.52 3.25 4.705zm.293-6.178c.414 0 .81.18 1.087.495l.78.888.78-.888a1.449 1.449 0 0 1 1.087-.495c.802 0 1.455.66 1.455 1.473 0 .745-.82 1.766-2.439 3.033-.274.215-.606.452-.883.644a19.93 19.93 0 0 1-.883-.644c-1.618-1.267-2.439-2.288-2.439-3.033 0-.813.653-1.473 1.455-1.473z" fill="#FFC600" fill-rule="evenodd"/></svg>