<?xml version="1.0" standalone="no"?>
<!DOCTYPE svg PUBLIC "-//W3C//DTD SVG 1.1//EN" "http://www.w3.org/Graphics/SVG/1.1/DTD/svg11.dtd" >
<svg xmlns="http://www.w3.org/2000/svg" xmlns:xlink="http://www.w3.org/1999/xlink" version="1.1">
<metadata>
Created by FontForge 20170910 at Thu Feb  9 15:42:46 2017
 By jimmywarting
</metadata>
<defs>
<font id="Navigo-Bold" horiz-adv-x="603" >
  <font-face 
    font-family="Navigo"
    font-weight="700"
    font-stretch="normal"
    units-per-em="1000"
    panose-1="2 7 5 3 7 7 6 4 3 3"
    ascent="750"
    descent="-250"
    x-height="505"
    cap-height="750"
    bbox="-135 -260 1073 1149"
    underline-thickness="50"
    underline-position="-75"
    unicode-range="U+0020-2013"
  />
<missing-glyph horiz-adv-x="607" 
 />
    <glyph glyph-name=".notdef" horiz-adv-x="607" 
 />
    <glyph glyph-name="A" unicode="A" horiz-adv-x="706" 
d="M146 0h-133v70l255 680h169l254 -670v-80h-144l-58 159h-286zM445 295l-98 276l-98 -276h196z" />
    <glyph glyph-name="AE" unicode="&#xc6;" horiz-adv-x="978" 
d="M7 75l381 675h540v-141h-305v-159h270v-130h-270v-179h305v-141h-471v154h-238l-86 -154h-126v75zM294 290h163v296z" />
    <glyph glyph-name="Aacute" unicode="&#xc1;" horiz-adv-x="706" 
d="M279 805v60l72 80h156v-60l-92 -80h-136zM146 0h-133v70l255 680h169l254 -670v-80h-144l-58 159h-286zM445 295l-98 276l-98 -276h196z" />
    <glyph glyph-name="Abreve" unicode="&#x102;" horiz-adv-x="706" 
d="M351 790q-48 0 -78 10.5t-46.5 23.5t-22.5 23.5l-6 10.5v75h80l3 -6.5t11 -14.5t22 -14.5t37 -6.5t37 6.5t21 14.5t9 14.5l2 6.5h80v-75l-5.5 -10.5t-21.5 -23.5t-45.5 -23.5t-76.5 -10.5zM146 0h-133v70l255 680h169l254 -670v-80h-144l-58 159h-286zM445 295l-98 276
l-98 -276h196z" />
    <glyph glyph-name="Acircumflex" unicode="&#xc2;" horiz-adv-x="706" 
d="M407 800l-56 58l-56 -58h-116v60l92 80h160l92 -80v-60h-116zM146 0h-133v70l255 680h169l254 -670v-80h-144l-58 159h-286zM445 295l-98 276l-98 -276h196z" />
    <glyph glyph-name="Adieresis" unicode="&#xc4;" horiz-adv-x="706" 
d="M175 800v135h150v-135h-150zM380 800v135h151v-135h-151zM146 0h-133v70l255 680h169l254 -670v-80h-144l-58 159h-286zM445 295l-98 276l-98 -276h196z" />
    <glyph glyph-name="Agrave" unicode="&#xc0;" horiz-adv-x="706" 
d="M290 805l-92 80v60h156l72 -80v-60h-136zM146 0h-133v70l255 680h169l254 -670v-80h-144l-58 159h-286zM445 295l-98 276l-98 -276h196z" />
    <glyph glyph-name="Amacron" unicode="&#x100;" horiz-adv-x="706" 
d="M199 805v110h306v-110h-306zM146 0h-133v70l255 680h169l254 -670v-80h-144l-58 159h-286zM445 295l-98 276l-98 -276h196z" />
    <glyph glyph-name="Aogonek" unicode="&#x104;" horiz-adv-x="706" 
d="M501 -91q0 35 23 60t61 31h-38l-58 159h-286l-57 -159h-133v70l255 680h169l254 -670v-80q-19 -4 -38 -14.5t-19 -39.5q0 -18 8 -28.5t19.5 -16t24 -7t21.5 -1.5v-85h-80q-19 1 -41.5 6.5t-41 16.5t-31 30t-12.5 48zM445 295l-98 276l-98 -276h196z" />
    <glyph glyph-name="Aring" unicode="&#xc5;" horiz-adv-x="706" 
d="M350 785q-70 0 -104 26.5t-34 66.5t34 66.5t104 26.5q71 0 105 -26.5t34 -66.5t-34 -66.5t-105 -26.5zM350 851q16 0 28 7t12 20t-12 20t-28 7t-28 -7t-12 -20t12 -20t28 -7zM146 0h-133v70l255 680h169l254 -670v-80h-144l-58 159h-286zM445 295l-98 276l-98 -276h196z
" />
    <glyph glyph-name="Aringacute" unicode="&#x1fa;" horiz-adv-x="706" 
d="M284 1009v60l72 80h156v-60l-92 -80h-136zM350 785q-70 0 -104 26.5t-34 66.5t34 66.5t104 26.5q71 0 105 -26.5t34 -66.5t-34 -66.5t-105 -26.5zM350 851q16 0 28 7t12 20t-12 20t-28 7t-28 -7t-12 -20t12 -20t28 -7zM146 0h-133v70l255 680h169l254 -670v-80h-144
l-58 159h-286zM445 295l-98 276l-98 -276h196z" />
    <glyph glyph-name="Atilde" unicode="&#xc3;" horiz-adv-x="706" 
d="M425 792q-41 0 -65.5 15t-52.5 15q-13 0 -22.5 -6.5t-12.5 -18.5h-100q-4 60 24 98.5t82 38.5q42 0 63.5 -15t49.5 -15q11 0 21 5t13 20h100q4 -61 -20 -99t-80 -38zM146 0h-133v70l255 680h169l254 -670v-80h-144l-58 159h-286zM445 295l-98 276l-98 -276h196z" />
    <glyph glyph-name="B" unicode="B" horiz-adv-x="687" 
d="M82 0v750h299q109 0 173 -55t64 -146q0 -55 -27 -96.5t-73 -59.5q60 -19 94 -64t34 -105q0 -102 -69.5 -163t-191.5 -61h-303zM241 448h114q47 0 74 22.5t27 61.5t-25.5 62.5t-71.5 23.5h-118v-170zM241 132h127q56 0 85.5 29t29.5 69t-28.5 66t-85.5 26h-128v-190z" />
    <glyph glyph-name="C" unicode="C" horiz-adv-x="729" 
d="M409 -15q-86 0 -154.5 28.5t-115.5 80t-72 123.5t-25 158q0 88 26.5 160t74 123t116 79t150.5 28q75 0 127.5 -17.5t85.5 -42t50.5 -51.5t21.5 -45v-76h-131q-2 11 -11 26.5t-26.5 30t-46 24.5t-68.5 10q-93 0 -148 -66.5t-55 -181.5q0 -113 55 -181t148 -68
q40 0 68.5 11t47 26t28.5 31t13 27h131v-76q-6 -22 -26 -50.5t-55.5 -52.5t-87.5 -41t-121 -17z" />
    <glyph glyph-name="Cacute" unicode="&#x106;" horiz-adv-x="729" 
d="M341 805v60l72 80h156v-60l-92 -80h-136zM409 -15q-86 0 -154.5 28.5t-115.5 80t-72 123.5t-25 158q0 88 26.5 160t74 123t116 79t150.5 28q75 0 127.5 -17.5t85.5 -42t50.5 -51.5t21.5 -45v-76h-131q-2 11 -11 26.5t-26.5 30t-46 24.5t-68.5 10q-93 0 -148 -66.5
t-55 -181.5q0 -113 55 -181t148 -68q40 0 68.5 11t47 26t28.5 31t13 27h131v-76q-6 -22 -26 -50.5t-55.5 -52.5t-87.5 -41t-121 -17z" />
    <glyph glyph-name="Ccaron" unicode="&#x10c;" horiz-adv-x="729" 
d="M484 800h-160l-94 80v60h116l58 -58l54 58h116v-60zM409 -15q-86 0 -154.5 28.5t-115.5 80t-72 123.5t-25 158q0 88 26.5 160t74 123t116 79t150.5 28q75 0 127.5 -17.5t85.5 -42t50.5 -51.5t21.5 -45v-76h-131q-2 11 -11 26.5t-26.5 30t-46 24.5t-68.5 10
q-93 0 -148 -66.5t-55 -181.5q0 -113 55 -181t148 -68q40 0 68.5 11t47 26t28.5 31t13 27h131v-76q-6 -22 -26 -50.5t-55.5 -52.5t-87.5 -41t-121 -17z" />
    <glyph glyph-name="Ccedilla" unicode="&#xc7;" horiz-adv-x="729" 
d="M549 -123q0 -29 -11.5 -47.5t-29.5 -30t-40 -16.5t-43 -7h-85v80q28 0 48 7t20 29q0 21 -20.5 28t-43.5 7v63q-71 10 -127.5 42.5t-95 82.5t-59 116.5t-20.5 143.5q0 88 26.5 160t74 123t116 79t150.5 28q75 0 127.5 -17.5t85.5 -42t50.5 -51.5t21.5 -45v-76h-131
q-2 11 -11 26.5t-26.5 30t-46 24.5t-68.5 10q-93 0 -148 -66.5t-55 -181.5q0 -113 55 -181t148 -68q40 0 68.5 11t47 26t28.5 31t13 27h131v-76q-5 -20 -21.5 -45t-45 -47.5t-70.5 -40.5t-97 -25v-28q37 -6 60.5 -27.5t23.5 -55.5z" />
    <glyph glyph-name="Ccircumflex" unicode="&#x108;" horiz-adv-x="729" 
d="M461 800l-56 58l-56 -58h-116v60l92 80h160l92 -80v-60h-116zM409 -15q-86 0 -154.5 28.5t-115.5 80t-72 123.5t-25 158q0 88 26.5 160t74 123t116 79t150.5 28q75 0 127.5 -17.5t85.5 -42t50.5 -51.5t21.5 -45v-76h-131q-2 11 -11 26.5t-26.5 30t-46 24.5t-68.5 10
q-93 0 -148 -66.5t-55 -181.5q0 -113 55 -181t148 -68q40 0 68.5 11t47 26t28.5 31t13 27h131v-76q-6 -22 -26 -50.5t-55.5 -52.5t-87.5 -41t-121 -17z" />
    <glyph glyph-name="Cdotaccent" unicode="&#x10a;" horiz-adv-x="729" 
d="M324 810v135h166v-135h-166zM409 -15q-86 0 -154.5 28.5t-115.5 80t-72 123.5t-25 158q0 88 26.5 160t74 123t116 79t150.5 28q75 0 127.5 -17.5t85.5 -42t50.5 -51.5t21.5 -45v-76h-131q-2 11 -11 26.5t-26.5 30t-46 24.5t-68.5 10q-93 0 -148 -66.5t-55 -181.5
q0 -113 55 -181t148 -68q40 0 68.5 11t47 26t28.5 31t13 27h131v-76q-6 -22 -26 -50.5t-55.5 -52.5t-87.5 -41t-121 -17z" />
    <glyph glyph-name="D" unicode="D" horiz-adv-x="760" 
d="M82 0v750h263q86 0 155.5 -29.5t118 -79.5t74.5 -118.5t26 -144.5q0 -78 -26 -147t-74.5 -120t-118 -81t-155.5 -30h-263zM248 141h94q49 0 87.5 18.5t64.5 50.5t40 75.5t14 92.5q0 47 -14 89.5t-40 73.5t-64.5 49.5t-87.5 18.5h-94v-468z" />
    <glyph glyph-name="E" unicode="E" 
d="M82 0v750h471v-141h-305v-159h270v-130h-270v-179h305v-141h-471z" />
    <glyph glyph-name="Eacute" unicode="&#xc9;" 
d="M254 805v60l72 80h156v-60l-92 -80h-136zM82 0v750h471v-141h-305v-159h270v-130h-270v-179h305v-141h-471z" />
    <glyph glyph-name="Ebreve" unicode="&#x114;" 
d="M319 790q-48 0 -78 10.5t-46.5 23.5t-22.5 23.5l-6 10.5v75h80l3 -6.5t11 -14.5t22 -14.5t37 -6.5t37 6.5t21 14.5t9 14.5l2 6.5h80v-75l-5.5 -10.5t-21.5 -23.5t-45.5 -23.5t-76.5 -10.5zM82 0v750h471v-141h-305v-159h270v-130h-270v-179h305v-141h-471z" />
    <glyph glyph-name="Ecaron" unicode="&#x11a;" 
d="M406 800h-160l-94 80v60h116l58 -58l54 58h116v-60zM82 0v750h471v-141h-305v-159h270v-130h-270v-179h305v-141h-471z" />
    <glyph glyph-name="Ecircumflex" unicode="&#xca;" 
d="M374 800l-56 58l-56 -58h-116v60l92 80h160l92 -80v-60h-116zM82 0v750h471v-141h-305v-159h270v-130h-270v-179h305v-141h-471z" />
    <glyph glyph-name="Edieresis" unicode="&#xcb;" 
d="M141 800v135h150v-135h-150zM346 800v135h151v-135h-151zM82 0v750h471v-141h-305v-159h270v-130h-270v-179h305v-141h-471z" />
    <glyph glyph-name="Edotaccent" unicode="&#x116;" 
d="M240 800v135h166v-135h-166zM82 0v750h471v-141h-305v-159h270v-130h-270v-179h305v-141h-471z" />
    <glyph glyph-name="Egrave" unicode="&#xc8;" 
d="M272 805l-92 80v60h156l72 -80v-60h-136zM82 0v750h471v-141h-305v-159h270v-130h-270v-179h305v-141h-471z" />
    <glyph glyph-name="Emacron" unicode="&#x112;" 
d="M168 805v110h306v-110h-306zM82 0v750h471v-141h-305v-159h270v-130h-270v-179h305v-141h-471z" />
    <glyph glyph-name="Eogonek" unicode="&#x118;" 
d="M364 -91q0 35 23 60t61 31h-366v750h471v-141h-305v-159h270v-130h-270v-179h305v-141h1q-19 -4 -38 -14.5t-19 -39.5q0 -18 8 -28.5t19.5 -16t24 -7t21.5 -1.5v-85h-80q-19 1 -41.5 6.5t-41 16.5t-31 30t-12.5 48z" />
    <glyph glyph-name="F" unicode="F" horiz-adv-x="582" 
d="M82 0v750h461v-141h-295v-169h265v-130h-265v-310h-166z" />
    <glyph glyph-name="G" unicode="G" horiz-adv-x="770" 
d="M428 -15q-90 0 -162.5 29t-122 80.5t-76 123.5t-26.5 157q0 84 27 156t76.5 123.5t120.5 81t159 29.5q70 0 122.5 -16t87 -39.5t53.5 -50t23 -48.5v-75h-130q-3 9 -12.5 23.5t-28 29t-47 25t-67.5 10.5q-51 0 -92 -19t-69 -52t-42.5 -78.5t-14.5 -98.5t15 -99t43.5 -79
t70 -52t94.5 -19q43 0 74.5 7.5t54.5 17.5v130h-155v128h310v-324q-8 -12 -31 -29.5t-59.5 -33.5t-86 -27t-109.5 -11z" />
    <glyph glyph-name="Gbreve" unicode="&#x11e;" horiz-adv-x="770" 
d="M419 790q-48 0 -78 10.5t-46.5 23.5t-22.5 23.5l-6 10.5v75h80l3 -6.5t11 -14.5t22 -14.5t37 -6.5t37 6.5t21 14.5t9 14.5l2 6.5h80v-75l-5.5 -10.5t-21.5 -23.5t-45.5 -23.5t-76.5 -10.5zM428 -15q-90 0 -162.5 29t-122 80.5t-76 123.5t-26.5 157q0 84 27 156
t76.5 123.5t120.5 81t159 29.5q70 0 122.5 -16t87 -39.5t53.5 -50t23 -48.5v-75h-130q-3 9 -12.5 23.5t-28 29t-47 25t-67.5 10.5q-51 0 -92 -19t-69 -52t-42.5 -78.5t-14.5 -98.5t15 -99t43.5 -79t70 -52t94.5 -19q43 0 74.5 7.5t54.5 17.5v130h-155v128h310v-324
q-8 -12 -31 -29.5t-59.5 -33.5t-86 -27t-109.5 -11z" />
    <glyph glyph-name="Gcircumflex" unicode="&#x11c;" horiz-adv-x="770" 
d="M468 800l-56 58l-56 -58h-116v60l92 80h160l92 -80v-60h-116zM428 -15q-90 0 -162.5 29t-122 80.5t-76 123.5t-26.5 157q0 84 27 156t76.5 123.5t120.5 81t159 29.5q70 0 122.5 -16t87 -39.5t53.5 -50t23 -48.5v-75h-130q-3 9 -12.5 23.5t-28 29t-47 25t-67.5 10.5
q-51 0 -92 -19t-69 -52t-42.5 -78.5t-14.5 -98.5t15 -99t43.5 -79t70 -52t94.5 -19q43 0 74.5 7.5t54.5 17.5v130h-155v128h310v-324q-8 -12 -31 -29.5t-59.5 -33.5t-86 -27t-109.5 -11z" />
    <glyph glyph-name="uni0122" unicode="&#x122;" horiz-adv-x="770" 
d="M428 -15q-90 0 -162.5 29t-122 80.5t-76 123.5t-26.5 157q0 84 27 156t76.5 123.5t120.5 81t159 29.5q70 0 122.5 -16t87 -39.5t53.5 -50t23 -48.5v-75h-130q-3 9 -12.5 23.5t-28 29t-47 25t-67.5 10.5q-51 0 -92 -19t-69 -52t-42.5 -78.5t-14.5 -98.5t15 -99t43.5 -79
t70 -52t94.5 -19q43 0 74.5 7.5t54.5 17.5v130h-155v128h310v-324q-8 -12 -31 -29.5t-59.5 -33.5t-86 -27t-109.5 -11zM361 -205l-5 153h156v-72l-55 -81h-96z" />
    <glyph glyph-name="Gdotaccent" unicode="&#x120;" horiz-adv-x="770" 
d="M335 800v135h166v-135h-166zM428 -15q-90 0 -162.5 29t-122 80.5t-76 123.5t-26.5 157q0 84 27 156t76.5 123.5t120.5 81t159 29.5q70 0 122.5 -16t87 -39.5t53.5 -50t23 -48.5v-75h-130q-3 9 -12.5 23.5t-28 29t-47 25t-67.5 10.5q-51 0 -92 -19t-69 -52t-42.5 -78.5
t-14.5 -98.5t15 -99t43.5 -79t70 -52t94.5 -19q43 0 74.5 7.5t54.5 17.5v130h-155v128h310v-324q-8 -12 -31 -29.5t-59.5 -33.5t-86 -27t-109.5 -11z" />
    <glyph glyph-name="H" unicode="H" horiz-adv-x="790" 
d="M82 0v750h166v-295h294v295h166v-750h-166v315h-294v-315h-166z" />
    <glyph glyph-name="Hcircumflex" unicode="&#x124;" horiz-adv-x="790" 
d="M451 800l-56 58l-56 -58h-116v60l92 80h160l92 -80v-60h-116zM82 0v750h166v-295h294v295h166v-750h-166v315h-294v-315h-166z" />
    <glyph glyph-name="I" unicode="I" horiz-adv-x="330" 
d="M82 0v750h166v-750h-166z" />
    <glyph glyph-name="Iacute" unicode="&#xcd;" horiz-adv-x="330" 
d="M96 805v60l72 80h156v-60l-92 -80h-136zM82 0v750h166v-750h-166z" />
    <glyph glyph-name="Ibreve" unicode="&#x12c;" horiz-adv-x="330" 
d="M166 790q-48 0 -78 10.5t-46.5 23.5t-22.5 23.5l-6 10.5v75h80l3 -6.5t11 -14.5t22 -14.5t37 -6.5t37 6.5t21 14.5t9 14.5l2 6.5h80v-75l-5.5 -10.5t-21.5 -23.5t-45.5 -23.5t-76.5 -10.5zM82 0v750h166v-750h-166z" />
    <glyph glyph-name="Icircumflex" unicode="&#xce;" horiz-adv-x="330" 
d="M220 800l-56 58l-56 -58h-116v60l92 80h160l92 -80v-60h-116zM82 0v750h166v-750h-166z" />
    <glyph glyph-name="Idieresis" unicode="&#xcf;" horiz-adv-x="330" 
d="M-13 800v135h150v-135h-150zM192 800v135h151v-135h-151zM82 0v750h166v-750h-166z" />
    <glyph glyph-name="Idotaccent" unicode="&#x130;" horiz-adv-x="330" 
d="M82 800v135h166v-135h-166zM82 0v750h166v-750h-166z" />
    <glyph glyph-name="Igrave" unicode="&#xcc;" horiz-adv-x="330" 
d="M100 805l-92 80v60h156l72 -80v-60h-136zM82 0v750h166v-750h-166z" />
    <glyph glyph-name="Imacron" unicode="&#x12a;" horiz-adv-x="330" 
d="M12 805v110h306v-110h-306zM82 0v750h166v-750h-166z" />
    <glyph glyph-name="Iogonek" unicode="&#x12e;" horiz-adv-x="330" 
d="M58 -91q0 35 23 60t61 31h-60v750h166v-750q-19 -4 -38 -14.5t-19 -39.5q0 -18 8 -28.5t19.5 -16t24 -7t21.5 -1.5v-85h-80q-19 1 -41.5 6.5t-41 16.5t-31 30t-12.5 48z" />
    <glyph glyph-name="Itilde" unicode="&#x128;" horiz-adv-x="330" 
d="M242 792q-41 0 -65.5 15t-52.5 15q-13 0 -22.5 -6.5t-12.5 -18.5h-100q-4 60 24 98.5t82 38.5q42 0 63.5 -15t49.5 -15q11 0 21 5t13 20h100q4 -61 -20 -99t-80 -38zM83 0v750h166v-750h-166z" />
    <glyph glyph-name="J" unicode="J" horiz-adv-x="519" 
d="M224 -15q-55 0 -92.5 14t-61.5 34t-35 42t-14 38v75h130q0 -19 13.5 -40.5t48.5 -21.5q31 0 48 19.5t17 77.5v527h165v-521q0 -122 -56 -183t-163 -61z" />
    <glyph glyph-name="K" unicode="K" horiz-adv-x="694" 
d="M248 326v-326h-166v750h166v-322l271 322h131v-75l-245 -285l273 -312v-78h-146z" />
    <glyph glyph-name="uni0136" unicode="&#x136;" horiz-adv-x="694" 
d="M248 326v-326h-166v750h166v-322l271 322h131v-75l-245 -285l273 -312v-78h-146zM307 -205l-5 153h156v-72l-55 -81h-96z" />
    <glyph glyph-name="L" unicode="L" horiz-adv-x="569" 
d="M82 0v750h166v-609h300v-141h-466z" />
    <glyph glyph-name="Lacute" unicode="&#x139;" horiz-adv-x="569" 
d="M86 805v60l72 80h156v-60l-92 -80h-136zM82 0v750h166v-609h300v-141h-466z" />
    <glyph glyph-name="uni013B" unicode="&#x13b;" horiz-adv-x="569" 
d="M82 0v750h166v-609h300v-141h-466zM260 -205l-5 153h156v-72l-55 -81h-96z" />
    <glyph glyph-name="M" unicode="M" horiz-adv-x="931" 
d="M405 159l-167 353v-512h-156v750h204l182 -382l178 382h203v-750h-165v512l-168 -353h-111z" />
    <glyph glyph-name="N" unicode="N" horiz-adv-x="795" 
d="M82 0v750h156l319 -477v477h156v-750h-156l-319 469v-469h-156z" />
    <glyph glyph-name="Nacute" unicode="&#x143;" horiz-adv-x="795" 
d="M325 805v60l72 80h156v-60l-92 -80h-136zM82 0v750h156l319 -477v477h156v-750h-156l-319 469v-469h-156z" />
    <glyph glyph-name="Ncaron" unicode="&#x147;" horiz-adv-x="795" 
d="M475 800h-160l-94 80v60h116l58 -58l54 58h116v-60zM82 0v750h156l319 -477v477h156v-750h-156l-319 469v-469h-156z" />
    <glyph glyph-name="uni0145" unicode="&#x145;" horiz-adv-x="795" 
d="M82 0v750h156l319 -477v477h156v-750h-156l-319 469v-469h-156zM317 -205l-5 153h156v-72l-55 -81h-96z" />
    <glyph glyph-name="Ntilde" unicode="&#xd1;" horiz-adv-x="795" 
d="M490 792q-41 0 -65.5 15t-52.5 15q-13 0 -22.5 -6.5t-12.5 -18.5h-100q-4 60 24 98.5t82 38.5q42 0 63.5 -15t49.5 -15q11 0 21 5t13 20h100q4 -61 -20 -99t-80 -38zM82 0v750h156l319 -477v477h156v-750h-156l-319 469v-469h-156z" />
    <glyph glyph-name="O" unicode="O" horiz-adv-x="826" 
d="M413 -15q-83 0 -152 29t-117.5 81t-75.5 124.5t-27 158.5q0 85 27 156.5t75.5 122.5t117.5 79.5t152 28.5t152 -28.5t117.5 -79.5t75.5 -122.5t27 -156.5q0 -86 -27 -158.5t-75.5 -124.5t-117.5 -81t-152 -29zM413 126q94 0 150 70t56 182q0 109 -56 177.5t-150 68.5
t-150 -68.5t-56 -177.5q0 -112 56 -182t150 -70z" />
    <glyph glyph-name="Oacute" unicode="&#xd3;" horiz-adv-x="826" 
d="M349 805v60l72 80h156v-60l-92 -80h-136zM413 -15q-83 0 -152 29t-117.5 81t-75.5 124.5t-27 158.5q0 85 27 156.5t75.5 122.5t117.5 79.5t152 28.5t152 -28.5t117.5 -79.5t75.5 -122.5t27 -156.5q0 -86 -27 -158.5t-75.5 -124.5t-117.5 -81t-152 -29zM413 126
q94 0 150 70t56 182q0 109 -56 177.5t-150 68.5t-150 -68.5t-56 -177.5q0 -112 56 -182t150 -70z" />
    <glyph glyph-name="Obreve" unicode="&#x14e;" horiz-adv-x="826" 
d="M411 790q-48 0 -78 10.5t-46.5 23.5t-22.5 23.5l-6 10.5v75h80l3 -6.5t11 -14.5t22 -14.5t37 -6.5t37 6.5t21 14.5t9 14.5l2 6.5h80v-75l-5.5 -10.5t-21.5 -23.5t-45.5 -23.5t-76.5 -10.5zM413 -15q-83 0 -152 29t-117.5 81t-75.5 124.5t-27 158.5q0 85 27 156.5
t75.5 122.5t117.5 79.5t152 28.5t152 -28.5t117.5 -79.5t75.5 -122.5t27 -156.5q0 -86 -27 -158.5t-75.5 -124.5t-117.5 -81t-152 -29zM413 126q94 0 150 70t56 182q0 109 -56 177.5t-150 68.5t-150 -68.5t-56 -177.5q0 -112 56 -182t150 -70z" />
    <glyph glyph-name="Ocircumflex" unicode="&#xd4;" horiz-adv-x="826" 
d="M469 800l-56 58l-56 -58h-116v60l92 80h160l92 -80v-60h-116zM413 -15q-83 0 -152 29t-117.5 81t-75.5 124.5t-27 158.5q0 85 27 156.5t75.5 122.5t117.5 79.5t152 28.5t152 -28.5t117.5 -79.5t75.5 -122.5t27 -156.5q0 -86 -27 -158.5t-75.5 -124.5t-117.5 -81t-152 -29
zM413 126q94 0 150 70t56 182q0 109 -56 177.5t-150 68.5t-150 -68.5t-56 -177.5q0 -112 56 -182t150 -70z" />
    <glyph glyph-name="Odieresis" unicode="&#xd6;" horiz-adv-x="826" 
d="M233 800v135h150v-135h-150zM438 800v135h151v-135h-151zM413 -15q-83 0 -152 29t-117.5 81t-75.5 124.5t-27 158.5q0 85 27 156.5t75.5 122.5t117.5 79.5t152 28.5t152 -28.5t117.5 -79.5t75.5 -122.5t27 -156.5q0 -86 -27 -158.5t-75.5 -124.5t-117.5 -81t-152 -29z
M413 126q94 0 150 70t56 182q0 109 -56 177.5t-150 68.5t-150 -68.5t-56 -177.5q0 -112 56 -182t150 -70z" />
    <glyph glyph-name="Ograve" unicode="&#xd2;" horiz-adv-x="826" 
d="M341 805l-92 80v60h156l72 -80v-60h-136zM413 -15q-83 0 -152 29t-117.5 81t-75.5 124.5t-27 158.5q0 85 27 156.5t75.5 122.5t117.5 79.5t152 28.5t152 -28.5t117.5 -79.5t75.5 -122.5t27 -156.5q0 -86 -27 -158.5t-75.5 -124.5t-117.5 -81t-152 -29zM413 126
q94 0 150 70t56 182q0 109 -56 177.5t-150 68.5t-150 -68.5t-56 -177.5q0 -112 56 -182t150 -70z" />
    <glyph glyph-name="Ohungarumlaut" unicode="&#x150;" horiz-adv-x="826" 
d="M247 803v60l55 80h141l-14 -60l-62 -80h-120zM444 803v60l72 80h141v-60l-92 -80h-121zM413 -15q-83 0 -152 29t-117.5 81t-75.5 124.5t-27 158.5q0 85 27 156.5t75.5 122.5t117.5 79.5t152 28.5t152 -28.5t117.5 -79.5t75.5 -122.5t27 -156.5q0 -86 -27 -158.5
t-75.5 -124.5t-117.5 -81t-152 -29zM413 126q94 0 150 70t56 182q0 109 -56 177.5t-150 68.5t-150 -68.5t-56 -177.5q0 -112 56 -182t150 -70z" />
    <glyph glyph-name="Omacron" unicode="&#x14c;" horiz-adv-x="826" 
d="M257 805v110h306v-110h-306zM413 -15q-83 0 -152 29t-117.5 81t-75.5 124.5t-27 158.5q0 85 27 156.5t75.5 122.5t117.5 79.5t152 28.5t152 -28.5t117.5 -79.5t75.5 -122.5t27 -156.5q0 -86 -27 -158.5t-75.5 -124.5t-117.5 -81t-152 -29zM413 126q94 0 150 70t56 182
q0 109 -56 177.5t-150 68.5t-150 -68.5t-56 -177.5q0 -112 56 -182t150 -70z" />
    <glyph glyph-name="Otilde" unicode="&#xd5;" horiz-adv-x="826" 
d="M486 792q-41 0 -65.5 15t-52.5 15q-13 0 -22.5 -6.5t-12.5 -18.5h-100q-4 60 24 98.5t82 38.5q42 0 63.5 -15t49.5 -15q11 0 21 5t13 20h100q4 -61 -20 -99t-80 -38zM413 -15q-83 0 -152 29t-117.5 81t-75.5 124.5t-27 158.5q0 85 27 156.5t75.5 122.5t117.5 79.5
t152 28.5t152 -28.5t117.5 -79.5t75.5 -122.5t27 -156.5q0 -86 -27 -158.5t-75.5 -124.5t-117.5 -81t-152 -29zM413 126q94 0 150 70t56 182q0 109 -56 177.5t-150 68.5t-150 -68.5t-56 -177.5q0 -112 56 -182t150 -70z" />
    <glyph glyph-name="P" unicode="P" horiz-adv-x="643" 
d="M82 0v750h241q132 0 210.5 -67t78.5 -180q0 -49 -18 -96t-54.5 -82.5t-90.5 -57.5t-126 -22h-75v-245h-166zM245 383h77q57 0 90.5 33t33.5 86q0 47 -32.5 78.5t-91.5 31.5h-77v-229z" />
    <glyph glyph-name="Q" unicode="Q" horiz-adv-x="826" 
d="M748 -26v-78h-121l-84 110q-29 -10 -62 -15.5t-68 -5.5q-83 0 -152 29t-117.5 81t-75.5 124.5t-27 158.5q0 85 27 156.5t75.5 122.5t117.5 79.5t152 28.5t152 -28.5t117.5 -79.5t75.5 -122.5t27 -156.5q0 -93 -31 -169.5t-87 -128.5zM207 378q0 -112 56 -182t150 -70
q10 0 19 1l18 2l-72 94v78h121l72 -95q23 33 35.5 77t12.5 95q0 109 -56 177.5t-150 68.5t-150 -68.5t-56 -177.5z" />
    <glyph glyph-name="R" unicode="R" horiz-adv-x="682" 
d="M248 0h-166v750h246q130 0 207 -65t77 -174q0 -69 -36 -122.5t-99 -83.5l173 -227v-78h-143l-192 264h-67v-264zM245 398h82q55 0 87 30.5t32 80.5q0 43 -31 71.5t-88 28.5h-82v-211z" />
    <glyph glyph-name="Racute" unicode="&#x154;" horiz-adv-x="682" 
d="M238 805v60l72 80h156v-60l-92 -80h-136zM248 0h-166v750h246q130 0 207 -65t77 -174q0 -69 -36 -122.5t-99 -83.5l173 -227v-78h-143l-192 264h-67v-264zM245 398h82q55 0 87 30.5t32 80.5q0 43 -31 71.5t-88 28.5h-82v-211z" />
    <glyph glyph-name="Rcaron" unicode="&#x158;" horiz-adv-x="682" 
d="M403 800h-160l-94 80v60h116l58 -58l54 58h116v-60zM248 0h-166v750h246q130 0 207 -65t77 -174q0 -69 -36 -122.5t-99 -83.5l173 -227v-78h-143l-192 264h-67v-264zM245 398h82q55 0 87 30.5t32 80.5q0 43 -31 71.5t-88 28.5h-82v-211z" />
    <glyph glyph-name="uni0156" unicode="&#x156;" horiz-adv-x="682" 
d="M248 0h-166v750h246q130 0 207 -65t77 -174q0 -69 -36 -122.5t-99 -83.5l173 -227v-78h-143l-192 264h-67v-264zM245 398h82q55 0 87 30.5t32 80.5q0 43 -31 71.5t-88 28.5h-82v-211zM303 -205l-5 153h156v-72l-55 -81h-96z" />
    <glyph glyph-name="S" unicode="S" horiz-adv-x="646" 
d="M324 -15q-116 0 -184 45t-92 107v75h131q15 -42 51.5 -66.5t96.5 -24.5q52 0 84.5 23t32.5 65q0 37 -26.5 59t-83.5 35l-69 13q-102 20 -157.5 75.5t-55.5 145.5q0 107 75 167.5t198 60.5q103 0 170.5 -40t83.5 -109v-76h-130q-10 38 -40 63.5t-88 25.5q-52 0 -80 -23
t-28 -60q0 -31 23 -51.5t77 -32.5l72 -16q102 -21 161 -78t59 -150q0 -53 -20.5 -96.5t-57.5 -73.5t-89 -46.5t-114 -16.5z" />
    <glyph glyph-name="Sacute" unicode="&#x15a;" horiz-adv-x="646" 
d="M251 805v60l72 80h156v-60l-92 -80h-136zM324 -15q-116 0 -184 45t-92 107v75h131q15 -42 51.5 -66.5t96.5 -24.5q52 0 84.5 23t32.5 65q0 37 -26.5 59t-83.5 35l-69 13q-102 20 -157.5 75.5t-55.5 145.5q0 107 75 167.5t198 60.5q103 0 170.5 -40t83.5 -109v-76h-130
q-10 38 -40 63.5t-88 25.5q-52 0 -80 -23t-28 -60q0 -31 23 -51.5t77 -32.5l72 -16q102 -21 161 -78t59 -150q0 -53 -20.5 -96.5t-57.5 -73.5t-89 -46.5t-114 -16.5z" />
    <glyph glyph-name="Scaron" unicode="&#x160;" horiz-adv-x="646" 
d="M408 800h-160l-94 80v60h116l58 -58l54 58h116v-60zM324 -15q-116 0 -184 45t-92 107v75h131q15 -42 51.5 -66.5t96.5 -24.5q52 0 84.5 23t32.5 65q0 37 -26.5 59t-83.5 35l-69 13q-102 20 -157.5 75.5t-55.5 145.5q0 107 75 167.5t198 60.5q103 0 170.5 -40t83.5 -109
v-76h-130q-10 38 -40 63.5t-88 25.5q-52 0 -80 -23t-28 -60q0 -31 23 -51.5t77 -32.5l72 -16q102 -21 161 -78t59 -150q0 -53 -20.5 -96.5t-57.5 -73.5t-89 -46.5t-114 -16.5z" />
    <glyph glyph-name="Scedilla" unicode="&#x15e;" horiz-adv-x="646" 
d="M462 -123q0 -29 -11.5 -47.5t-29.5 -30t-40 -16.5t-43 -7h-85v80q28 0 48 7t20 29q0 21 -20.5 28t-43.5 7v63q-85 13 -137 54t-72 93v75h131q15 -42 51.5 -66.5t96.5 -24.5q52 0 84.5 23t32.5 65q0 37 -26.5 59t-83.5 35l-69 13q-102 20 -157.5 75.5t-55.5 145.5
q0 107 75 167.5t198 60.5q103 0 170.5 -40t83.5 -109v-76h-130q-10 38 -40 63.5t-88 25.5q-52 0 -80 -23t-28 -60q0 -31 23 -51.5t77 -32.5l72 -16q102 -21 161 -78t59 -150q0 -95 -62.5 -156t-164.5 -74v-28q37 -6 60.5 -27.5t23.5 -55.5z" />
    <glyph glyph-name="Scircumflex" unicode="&#x15c;" horiz-adv-x="646" 
d="M379 800l-56 58l-56 -58h-116v60l92 80h160l92 -80v-60h-116zM324 -15q-116 0 -184 45t-92 107v75h131q15 -42 51.5 -66.5t96.5 -24.5q52 0 84.5 23t32.5 65q0 37 -26.5 59t-83.5 35l-69 13q-102 20 -157.5 75.5t-55.5 145.5q0 107 75 167.5t198 60.5q103 0 170.5 -40
t83.5 -109v-76h-130q-10 38 -40 63.5t-88 25.5q-52 0 -80 -23t-28 -60q0 -31 23 -51.5t77 -32.5l72 -16q102 -21 161 -78t59 -150q0 -53 -20.5 -96.5t-57.5 -73.5t-89 -46.5t-114 -16.5z" />
    <glyph glyph-name="uni0218" unicode="&#x218;" horiz-adv-x="646" 
d="M324 -15q-116 0 -184 45t-92 107v75h131q15 -42 51.5 -66.5t96.5 -24.5q52 0 84.5 23t32.5 65q0 37 -26.5 59t-83.5 35l-69 13q-102 20 -157.5 75.5t-55.5 145.5q0 107 75 167.5t198 60.5q103 0 170.5 -40t83.5 -109v-76h-130q-10 38 -40 63.5t-88 25.5q-52 0 -80 -23
t-28 -60q0 -31 23 -51.5t77 -32.5l72 -16q102 -21 161 -78t59 -150q0 -53 -20.5 -96.5t-57.5 -73.5t-89 -46.5t-114 -16.5zM260 -205l-5 153h156v-72l-55 -81h-96z" />
    <glyph glyph-name="T" unicode="T" horiz-adv-x="635" 
d="M234 0v609h-214v141h595v-141h-215v-609h-166z" />
    <glyph glyph-name="uni0162" unicode="&#x162;" horiz-adv-x="635" 
d="M234 0v609h-214v141h595v-141h-215v-609h-166zM246 -205l-5 153h156v-72l-55 -81h-96z" />
    <glyph glyph-name="U" unicode="U" horiz-adv-x="759" 
d="M383 -15q-71 0 -128 23t-97 62t-62 92t-22 113v475h166v-476q0 -61 37.5 -104.5t104.5 -43.5q70 0 108.5 43.5t38.5 104.5v476h156v-475q0 -60 -21.5 -113t-61 -92t-95.5 -62t-124 -23z" />
    <glyph glyph-name="Uacute" unicode="&#xda;" horiz-adv-x="759" 
d="M312 805v60l72 80h156v-60l-92 -80h-136zM383 -15q-71 0 -128 23t-97 62t-62 92t-22 113v475h166v-476q0 -61 37.5 -104.5t104.5 -43.5q70 0 108.5 43.5t38.5 104.5v476h156v-475q0 -60 -21.5 -113t-61 -92t-95.5 -62t-124 -23z" />
    <glyph glyph-name="Ubreve" unicode="&#x16c;" horiz-adv-x="759" 
d="M384 790q-48 0 -78 10.5t-46.5 23.5t-22.5 23.5l-6 10.5v75h80l3 -6.5t11 -14.5t22 -14.5t37 -6.5t37 6.5t21 14.5t9 14.5l2 6.5h80v-75l-5.5 -10.5t-21.5 -23.5t-45.5 -23.5t-76.5 -10.5zM383 -15q-71 0 -128 23t-97 62t-62 92t-22 113v475h166v-476q0 -61 37.5 -104.5
t104.5 -43.5q70 0 108.5 43.5t38.5 104.5v476h156v-475q0 -60 -21.5 -113t-61 -92t-95.5 -62t-124 -23z" />
    <glyph glyph-name="Ucircumflex" unicode="&#xdb;" horiz-adv-x="759" 
d="M438 800l-56 58l-56 -58h-116v60l92 80h160l92 -80v-60h-116zM383 -15q-71 0 -128 23t-97 62t-62 92t-22 113v475h166v-476q0 -61 37.5 -104.5t104.5 -43.5q70 0 108.5 43.5t38.5 104.5v476h156v-475q0 -60 -21.5 -113t-61 -92t-95.5 -62t-124 -23z" />
    <glyph glyph-name="Udieresis" unicode="&#xdc;" horiz-adv-x="759" 
d="M205 800v135h150v-135h-150zM410 800v135h151v-135h-151zM383 -15q-71 0 -128 23t-97 62t-62 92t-22 113v475h166v-476q0 -61 37.5 -104.5t104.5 -43.5q70 0 108.5 43.5t38.5 104.5v476h156v-475q0 -60 -21.5 -113t-61 -92t-95.5 -62t-124 -23z" />
    <glyph glyph-name="Ugrave" unicode="&#xd9;" horiz-adv-x="759" 
d="M319 805l-92 80v60h156l72 -80v-60h-136zM383 -15q-71 0 -128 23t-97 62t-62 92t-22 113v475h166v-476q0 -61 37.5 -104.5t104.5 -43.5q70 0 108.5 43.5t38.5 104.5v476h156v-475q0 -60 -21.5 -113t-61 -92t-95.5 -62t-124 -23z" />
    <glyph glyph-name="Uhungarumlaut" unicode="&#x170;" horiz-adv-x="759" 
d="M215 805v60l55 80h141l-14 -60l-62 -80h-120zM412 805v60l72 80h141v-60l-92 -80h-121zM383 -15q-71 0 -128 23t-97 62t-62 92t-22 113v475h166v-476q0 -61 37.5 -104.5t104.5 -43.5q70 0 108.5 43.5t38.5 104.5v476h156v-475q0 -60 -21.5 -113t-61 -92t-95.5 -62
t-124 -23z" />
    <glyph glyph-name="Umacron" unicode="&#x16a;" horiz-adv-x="759" 
d="M232 805v110h306v-110h-306zM383 -15q-71 0 -128 23t-97 62t-62 92t-22 113v475h166v-476q0 -61 37.5 -104.5t104.5 -43.5q70 0 108.5 43.5t38.5 104.5v476h156v-475q0 -60 -21.5 -113t-61 -92t-95.5 -62t-124 -23z" />
    <glyph glyph-name="Uogonek" unicode="&#x172;" horiz-adv-x="759" 
d="M489 -107v-85h-80q-19 1 -41.5 6.5t-41 16.5t-31 30t-12.5 48q0 27 15 47.5t41 30.5q-61 7 -110 32.5t-83.5 63.5t-53 87.5t-18.5 104.5v475h166v-476q0 -61 37.5 -104.5t104.5 -43.5q70 0 108.5 43.5t38.5 104.5v476h156v-475q0 -50 -15.5 -96t-44.5 -83t-70 -63.5
t-92 -38.5q-23 -8 -35 -19.5t-12 -32.5q0 -16 8 -25.5t19.5 -15t24 -7t21.5 -1.5z" />
    <glyph glyph-name="Uring" unicode="&#x16e;" horiz-adv-x="759" 
d="M382 783q-70 0 -104 26.5t-34 66.5t34 66.5t104 26.5q71 0 105 -26.5t34 -66.5t-34 -66.5t-105 -26.5zM382 849q16 0 28 7t12 20t-12 20t-28 7t-28 -7t-12 -20t12 -20t28 -7zM383 -15q-71 0 -128 23t-97 62t-62 92t-22 113v475h166v-476q0 -61 37.5 -104.5t104.5 -43.5
q70 0 108.5 43.5t38.5 104.5v476h156v-475q0 -60 -21.5 -113t-61 -92t-95.5 -62t-124 -23z" />
    <glyph glyph-name="Utilde" unicode="&#x168;" horiz-adv-x="759" 
d="M460 792q-41 0 -65.5 15t-52.5 15q-13 0 -22.5 -6.5t-12.5 -18.5h-100q-4 60 24 98.5t82 38.5q42 0 63.5 -15t49.5 -15q11 0 21 5t13 20h100q4 -61 -20 -99t-80 -38zM383 -15q-71 0 -128 23t-97 62t-62 92t-22 113v475h166v-476q0 -61 37.5 -104.5t104.5 -43.5
q70 0 108.5 43.5t38.5 104.5v476h156v-475q0 -60 -21.5 -113t-61 -92t-95.5 -62t-124 -23z" />
    <glyph glyph-name="V" unicode="V" horiz-adv-x="709" 
d="M264 0l-248 670v80h153l188 -546l193 546h146v-70l-251 -680h-181z" />
    <glyph glyph-name="W" unicode="W" horiz-adv-x="1000" 
d="M628 0l-129 458l-127 -458h-169l-179 670v80h154l119 -515l137 515h141l133 -515l124 515h146v-70l-181 -680h-169z" />
    <glyph glyph-name="Wacute" unicode="&#x1e82;" horiz-adv-x="1000" 
d="M433 805v60l72 80h156v-60l-92 -80h-136zM628 0l-129 458l-127 -458h-169l-179 670v80h154l119 -515l137 515h141l133 -515l124 515h146v-70l-181 -680h-169z" />
    <glyph glyph-name="Wcircumflex" unicode="&#x174;" horiz-adv-x="1000" 
d="M560 800l-56 58l-56 -58h-116v60l92 80h160l92 -80v-60h-116zM628 0l-129 458l-127 -458h-169l-179 670v80h154l119 -515l137 515h141l133 -515l124 515h146v-70l-181 -680h-169z" />
    <glyph glyph-name="Wdieresis" unicode="&#x1e84;" horiz-adv-x="1000" 
d="M323 800v135h150v-135h-150zM528 800v135h151v-135h-151zM628 0l-129 458l-127 -458h-169l-179 670v80h154l119 -515l137 515h141l133 -515l124 515h146v-70l-181 -680h-169z" />
    <glyph glyph-name="Wgrave" unicode="&#x1e80;" horiz-adv-x="1000" 
d="M440 805l-92 80v60h156l72 -80v-60h-136zM628 0l-129 458l-127 -458h-169l-179 670v80h154l119 -515l137 515h141l133 -515l124 515h146v-70l-181 -680h-169z" />
    <glyph glyph-name="X" unicode="X" horiz-adv-x="690" 
d="M27 0v75l220 305l-209 292v78h146l173 -250l162 250h131v-75l-205 -290l219 -307v-78h-146l-181 264l-179 -264h-131z" />
    <glyph glyph-name="Y" unicode="Y" horiz-adv-x="662" 
d="M249 0v300l-242 372v78h146l190 -304l178 304h130v-75l-236 -376v-299h-166z" />
    <glyph glyph-name="Yacute" unicode="&#xdd;" horiz-adv-x="662" 
d="M263 805v60l72 80h156v-60l-92 -80h-136zM249 0v300l-242 372v78h146l190 -304l178 304h130v-75l-236 -376v-299h-166z" />
    <glyph glyph-name="Ycircumflex" unicode="&#x176;" horiz-adv-x="662" 
d="M388 800l-56 58l-56 -58h-116v60l92 80h160l92 -80v-60h-116zM249 0v300l-242 372v78h146l190 -304l178 304h130v-75l-236 -376v-299h-166z" />
    <glyph glyph-name="Ydieresis" unicode="&#x178;" horiz-adv-x="662" 
d="M157 800v135h150v-135h-150zM362 800v135h151v-135h-151zM249 0v300l-242 372v78h146l190 -304l178 304h130v-75l-236 -376v-299h-166z" />
    <glyph glyph-name="Ygrave" unicode="&#x1ef2;" horiz-adv-x="662" 
d="M266 805l-92 80v60h156l72 -80v-60h-136zM249 0v300l-242 372v78h146l190 -304l178 304h130v-75l-236 -376v-299h-166z" />
    <glyph glyph-name="Z" unicode="Z" horiz-adv-x="643" 
d="M603 0h-562v131l356 478h-346v141h541v-131l-355 -478h366v-141z" />
    <glyph glyph-name="Zacute" unicode="&#x179;" horiz-adv-x="643" 
d="M247 805v60l72 80h156v-60l-92 -80h-136zM603 0h-562v131l356 478h-346v141h541v-131l-355 -478h366v-141z" />
    <glyph glyph-name="Zcaron" unicode="&#x17d;" horiz-adv-x="643" 
d="M410 800h-160l-94 80v60h116l58 -58l54 58h116v-60zM603 0h-562v131l356 478h-346v141h541v-131l-355 -478h366v-141z" />
    <glyph glyph-name="Zdotaccent" unicode="&#x17b;" horiz-adv-x="643" 
d="M237 800v135h166v-135h-166zM603 0h-562v131l356 478h-346v141h541v-131l-355 -478h366v-141z" />
    <glyph glyph-name="a" unicode="a" horiz-adv-x="551" 
d="M197 -15q-83 0 -124.5 46.5t-41.5 110.5q0 72 53.5 114.5t163.5 42.5q39 0 66.5 -5l27.5 -5v22q0 41 -20 62.5t-63 21.5q-24 0 -40.5 -7t-26.5 -16t-14.5 -16l-4.5 -7h-114v67l9.5 16.5t32 35.5t62 35.5t99.5 16.5q115 0 173 -54.5t58 -159.5v-306h-136l-10 64
q-19 -31 -54.5 -55t-95.5 -24zM246 101q49 0 72.5 27.5t23.5 54.5v22l-23.5 4t-60.5 4q-44 0 -61 -16.5t-17 -40.5q0 -29 17.5 -42t48.5 -13z" />
    <glyph glyph-name="aacute" unicode="&#xe1;" horiz-adv-x="551" 
d="M216 600v60l77 90h144v-60l-98 -90h-123zM197 -15q-83 0 -124.5 46.5t-41.5 110.5q0 72 53.5 114.5t163.5 42.5q39 0 66.5 -5l27.5 -5v22q0 41 -20 62.5t-63 21.5q-24 0 -40.5 -7t-26.5 -16t-14.5 -16l-4.5 -7h-114v67l9.5 16.5t32 35.5t62 35.5t99.5 16.5
q115 0 173 -54.5t58 -159.5v-306h-136l-10 64q-19 -31 -54.5 -55t-95.5 -24zM246 101q49 0 72.5 27.5t23.5 54.5v22l-23.5 4t-60.5 4q-44 0 -61 -16.5t-17 -40.5q0 -29 17.5 -42t48.5 -13z" />
    <glyph glyph-name="abreve" unicode="&#x103;" horiz-adv-x="551" 
d="M271 588q-46 0 -76 11.5t-47 24.5t-23.5 24.5l-6.5 11.5v75h80l3.5 -6.5t12 -14.5t22.5 -14.5t35 -6.5t34.5 6.5t21 14.5t10.5 14.5l3 6.5h80v-75l-6.5 -11.5t-23 -24.5t-45.5 -24.5t-74 -11.5zM197 -15q-83 0 -124.5 46.5t-41.5 110.5q0 72 53.5 114.5t163.5 42.5
q39 0 66.5 -5l27.5 -5v22q0 41 -20 62.5t-63 21.5q-24 0 -40.5 -7t-26.5 -16t-14.5 -16l-4.5 -7h-114v67l9.5 16.5t32 35.5t62 35.5t99.5 16.5q115 0 173 -54.5t58 -159.5v-306h-136l-10 64q-19 -31 -54.5 -55t-95.5 -24zM246 101q49 0 72.5 27.5t23.5 54.5v22l-23.5 4
t-60.5 4q-44 0 -61 -16.5t-17 -40.5q0 -29 17.5 -42t48.5 -13z" />
    <glyph glyph-name="acircumflex" unicode="&#xe2;" horiz-adv-x="551" 
d="M341 600l-61 73l-61 -73h-106v60l92 90h150l92 -90v-60h-106zM197 -15q-83 0 -124.5 46.5t-41.5 110.5q0 72 53.5 114.5t163.5 42.5q39 0 66.5 -5l27.5 -5v22q0 41 -20 62.5t-63 21.5q-24 0 -40.5 -7t-26.5 -16t-14.5 -16l-4.5 -7h-114v67l9.5 16.5t32 35.5t62 35.5
t99.5 16.5q115 0 173 -54.5t58 -159.5v-306h-136l-10 64q-19 -31 -54.5 -55t-95.5 -24zM246 101q49 0 72.5 27.5t23.5 54.5v22l-23.5 4t-60.5 4q-44 0 -61 -16.5t-17 -40.5q0 -29 17.5 -42t48.5 -13z" />
    <glyph glyph-name="adieresis" unicode="&#xe4;" horiz-adv-x="551" 
d="M105 600v140h145v-140h-145zM310 600v140h146v-140h-146zM197 -15q-83 0 -124.5 46.5t-41.5 110.5q0 72 53.5 114.5t163.5 42.5q39 0 66.5 -5l27.5 -5v22q0 41 -20 62.5t-63 21.5q-24 0 -40.5 -7t-26.5 -16t-14.5 -16l-4.5 -7h-114v67l9.5 16.5t32 35.5t62 35.5
t99.5 16.5q115 0 173 -54.5t58 -159.5v-306h-136l-10 64q-19 -31 -54.5 -55t-95.5 -24zM246 101q49 0 72.5 27.5t23.5 54.5v22l-23.5 4t-60.5 4q-44 0 -61 -16.5t-17 -40.5q0 -29 17.5 -42t48.5 -13z" />
    <glyph glyph-name="ae" unicode="&#xe6;" horiz-adv-x="897" 
d="M622 -15q-66 0 -115.5 22.5t-80.5 62.5q-34 -46 -86 -65.5t-114 -19.5q-93 0 -144.5 45t-51.5 112q0 72 54.5 116t170.5 44q40 0 68 -5l28 -5v19q0 41 -25 62.5t-67 21.5q-25 0 -41.5 -7t-26.5 -16t-14.5 -16l-4.5 -7h-113v67l9.5 16.5t32 35.5t62 35.5t98.5 16.5
q61 0 107.5 -19t74.5 -54q31 33 75.5 53t100.5 20q63 0 109 -18.5t75 -50t43.5 -75.5t14.5 -94q0 -26 -3.5 -45l-3.5 -19h-352q6 -51 37 -81.5t85 -30.5q34 0 55 7t33 16t16.5 16l4.5 7h118v-67l-10.5 -15.5t-36.5 -34.5t-70.5 -34.5t-111.5 -15.5zM504 309h212
q0 36 -25.5 63.5t-76.5 27.5q-49 0 -74.5 -25.5t-35.5 -65.5zM250 96q49 0 75 27t26 60v14l-24 4t-62 4q-51 0 -68.5 -17.5t-17.5 -37.5q0 -28 19.5 -41t51.5 -13z" />
    <glyph glyph-name="uni0410" unicode="&#x410;" horiz-adv-x="706" 
d="M146 0h-133v70l255 680h169l254 -670v-80h-144l-58 159h-286zM445 295l-98 276l-98 -276h196z" />
    <glyph glyph-name="uni0411" unicode="&#x411;" horiz-adv-x="662" 
d="M82 0v750h490v-141h-324v-139h100q68 0 121 -17.5t89 -47.5t55 -72t19 -90q0 -50 -18.5 -94.5t-54.5 -77.5t-89 -52t-122 -19h-266zM245 138h102q54 0 86.5 27t32.5 78q0 43 -31.5 71t-87.5 28h-102v-204z" />
    <glyph glyph-name="uni0412" unicode="&#x412;" horiz-adv-x="687" 
d="M82 0v750h299q109 0 173 -55t64 -146q0 -55 -27 -96.5t-73 -59.5q60 -19 94 -64t34 -105q0 -102 -69.5 -163t-191.5 -61h-303zM241 448h114q47 0 74 22.5t27 61.5t-25.5 62.5t-71.5 23.5h-118v-170zM241 132h127q56 0 85.5 29t29.5 69t-28.5 66t-85.5 26h-128v-190z" />
    <glyph glyph-name="uni0413" unicode="&#x413;" horiz-adv-x="559" 
d="M82 0v750h456v-141h-290v-609h-166z" />
    <glyph glyph-name="uni0414" unicode="&#x414;" horiz-adv-x="816" 
d="M11 -150v291h61q7 6 20.5 26t26.5 55.5t24 87t13 119.5l9 321h522v-609h105v-291h-151v150h-479v-150h-151zM239 141h282v468h-209l-6 -188q-3 -67 -11.5 -116.5t-19 -83t-20.5 -53t-16 -27.5z" />
    <glyph glyph-name="uni0415" unicode="&#x415;" 
d="M82 0v750h471v-141h-305v-159h270v-130h-270v-179h305v-141h-471z" />
    <glyph glyph-name="uni0401" unicode="&#x401;" 
d="M141 800v135h150v-135h-150zM346 800v135h151v-135h-151zM82 0v750h471v-141h-305v-159h270v-130h-270v-179h305v-141h-471z" />
    <glyph glyph-name="uni0416" unicode="&#x416;" horiz-adv-x="1011" 
d="M425 326l-259 -326h-143v78l245 307l-228 288v77h135l250 -321v321h161v-321l251 321h131v-75l-226 -283l249 -314v-78h-146l-259 326v-326h-161v326z" />
    <glyph glyph-name="uni0417" unicode="&#x417;" horiz-adv-x="626" 
d="M311 -15q-68 0 -117.5 16.5t-82.5 40.5t-51 51.5t-22 48.5v75h131q1 -11 9 -27.5t24 -31.5t41.5 -25.5t62.5 -10.5q57 0 87 28t30 73q0 43 -29 70t-93 27h-90v126h78q53 0 80 28t27 68t-29.5 63.5t-71.5 23.5q-31 0 -52.5 -9t-34.5 -22t-19.5 -28t-7.5 -27h-131v75
q4 19 19.5 44.5t45.5 48t76.5 38.5t111.5 16q56 0 103 -14t80 -40.5t51.5 -65t18.5 -87.5q0 -54 -28.5 -97t-78.5 -64q63 -16 99 -63.5t36 -113.5q0 -104 -71.5 -169.5t-201.5 -65.5z" />
    <glyph glyph-name="uni0418" unicode="&#x418;" horiz-adv-x="804" 
d="M82 0v750h166v-498l309 498h165v-750h-165v494l-309 -494h-166z" />
    <glyph glyph-name="uni0419" unicode="&#x419;" horiz-adv-x="804" 
d="M406 804q-41 0 -72 9t-52 21.5t-33 26t-16 21.5v66h116q0 -5 2.5 -14.5t9 -19t18 -17t27.5 -7.5q15 0 26 7.5t17.5 17t10 19t3.5 14.5h116v-66q-4 -8 -15.5 -21.5t-32.5 -26t-52 -21.5t-73 -9zM82 0v750h166v-498l309 498h165v-750h-165v494l-309 -494h-166z" />
    <glyph glyph-name="uni041A" unicode="&#x41a;" horiz-adv-x="694" 
d="M248 326v-326h-166v750h166v-322l271 322h131v-75l-245 -285l273 -312v-78h-146z" />
    <glyph glyph-name="uni041B" unicode="&#x41b;" horiz-adv-x="736" 
d="M19 0v152h26q48 0 70 60t25 184l7 354h507v-750h-166v609h-193l-4 -218q-4 -184 -51.5 -287.5t-169.5 -103.5h-51z" />
    <glyph glyph-name="uni041C" unicode="&#x41c;" horiz-adv-x="931" 
d="M405 159l-167 353v-512h-156v750h204l182 -382l178 382h203v-750h-165v512l-168 -353h-111z" />
    <glyph glyph-name="uni041D" unicode="&#x41d;" horiz-adv-x="790" 
d="M82 0v750h166v-295h294v295h166v-750h-166v315h-294v-315h-166z" />
    <glyph glyph-name="uni041E" unicode="&#x41e;" horiz-adv-x="826" 
d="M413 -15q-83 0 -152 29t-117.5 81t-75.5 124.5t-27 158.5q0 85 27 156.5t75.5 122.5t117.5 79.5t152 28.5t152 -28.5t117.5 -79.5t75.5 -122.5t27 -156.5q0 -86 -27 -158.5t-75.5 -124.5t-117.5 -81t-152 -29zM413 126q94 0 150 70t56 182q0 109 -56 177.5t-150 68.5
t-150 -68.5t-56 -177.5q0 -112 56 -182t150 -70z" />
    <glyph glyph-name="uni041F" unicode="&#x41f;" horiz-adv-x="780" 
d="M82 0v750h616v-750h-166v609h-284v-609h-166z" />
    <glyph glyph-name="uni0420" unicode="&#x420;" horiz-adv-x="643" 
d="M82 0v750h241q132 0 210.5 -67t78.5 -180q0 -49 -18 -96t-54.5 -82.5t-90.5 -57.5t-126 -22h-75v-245h-166zM245 383h77q57 0 90.5 33t33.5 86q0 47 -32.5 78.5t-91.5 31.5h-77v-229z" />
    <glyph glyph-name="uni0421" unicode="&#x421;" horiz-adv-x="729" 
d="M409 -15q-86 0 -154.5 28.5t-115.5 80t-72 123.5t-25 158q0 88 26.5 160t74 123t116 79t150.5 28q75 0 127.5 -17.5t85.5 -42t50.5 -51.5t21.5 -45v-76h-131q-2 11 -11 26.5t-26.5 30t-46 24.5t-68.5 10q-93 0 -148 -66.5t-55 -181.5q0 -113 55 -181t148 -68
q40 0 68.5 11t47 26t28.5 31t13 27h131v-76q-6 -22 -26 -50.5t-55.5 -52.5t-87.5 -41t-121 -17z" />
    <glyph glyph-name="uni0422" unicode="&#x422;" horiz-adv-x="635" 
d="M234 0v609h-214v141h595v-141h-215v-609h-166z" />
    <glyph glyph-name="uni0423" unicode="&#x423;" horiz-adv-x="656" 
d="M294 0h-131v75l88 154l-239 443v78h146l185 -350l175 350h131v-75z" />
    <glyph glyph-name="uni0424" unicode="&#x424;" horiz-adv-x="892" 
d="M363 -10v79q-74 1 -135.5 26.5t-104.5 67t-66.5 97.5t-23.5 118t23.5 117.5t66.5 97t104.5 66.5t135.5 26v75h166v-75q74 -1 135.5 -26.5t104.5 -67t66.5 -97.5t23.5 -118t-23.5 -117.5t-66.5 -97t-104.5 -66.5t-135.5 -26v-79h-166zM363 203v349q-81 -3 -124 -54
t-43 -120q0 -70 43 -121t124 -54zM529 202q81 3 124 54t43 120q0 70 -43 121t-124 54v-349z" />
    <glyph glyph-name="uni0425" unicode="&#x425;" horiz-adv-x="690" 
d="M27 0v75l220 305l-209 292v78h146l173 -250l162 250h131v-75l-205 -290l219 -307v-78h-146l-181 264l-179 -264h-131z" />
    <glyph glyph-name="uni0426" unicode="&#x426;" horiz-adv-x="829" 
d="M652 -150v150h-570v750h166v-609h284v609h166v-609h105v-291h-151z" />
    <glyph glyph-name="uni0427" unicode="&#x427;" horiz-adv-x="715" 
d="M467 0v274h-117q-151 0 -229.5 68t-78.5 221v187h166v-187q0 -77 34.5 -114t109.5 -37h115v338h166v-750h-166z" />
    <glyph glyph-name="uni0428" unicode="&#x428;" horiz-adv-x="1050" 
d="M82 0v750h166v-609h194v609h166v-609h194v609h166v-750h-886z" />
    <glyph glyph-name="uni0429" unicode="&#x429;" horiz-adv-x="1099" 
d="M922 -150v150h-840v750h166v-609h194v609h166v-609h194v609h166v-609h105v-291h-151z" />
    <glyph glyph-name="uni042A" unicode="&#x42a;" horiz-adv-x="746" 
d="M432 0h-252v609h-160v141h326v-245h86q69 0 122.5 -19.5t90.5 -52.5t56 -78.5t19 -96.5q0 -53 -19 -100t-55 -82t-90 -55.5t-124 -20.5zM343 138h88q57 0 90 32t33 86q0 46 -32.5 78.5t-90.5 32.5h-88v-229z" />
    <glyph glyph-name="uni042B" unicode="&#x42b;" horiz-adv-x="939" 
d="M82 0v750h166v-245h85q69 0 123 -19.5t91 -52.5t56 -78.5t19 -96.5q0 -53 -19 -100t-55 -82t-90.5 -55.5t-124.5 -20.5h-251zM691 0v750h166v-750h-166zM245 138h87q57 0 90.5 32t33.5 86q0 46 -32.5 78.5t-91.5 32.5h-87v-229z" />
    <glyph glyph-name="uni042C" unicode="&#x42c;" horiz-adv-x="648" 
d="M82 0v750h166v-245h85q69 0 123 -19.5t91 -52.5t56 -78.5t19 -96.5q0 -53 -19 -100t-55 -82t-90.5 -55.5t-124.5 -20.5h-251zM245 138h87q57 0 90.5 32t33.5 86q0 46 -32.5 78.5t-91.5 32.5h-87v-229z" />
    <glyph glyph-name="uni042D" unicode="&#x42d;" horiz-adv-x="737" 
d="M338 -15q-68 0 -120.5 16t-89.5 39.5t-59.5 52t-29.5 53.5v76h130q3 -9 13.5 -25t30.5 -31.5t50.5 -27t73.5 -11.5q87 0 133 51.5t55 136.5h-293v131h293q-9 80 -55 129t-130 49q-42 0 -72 -11t-49.5 -25.5t-29.5 -30t-12 -24.5h-131v76q4 17 23 43.5t54 51.5t89 43
t128 18q84 0 150 -28.5t111.5 -80t69.5 -123t24 -156.5q0 -86 -24 -158.5t-69 -124t-112 -80.5t-152 -29z" />
    <glyph glyph-name="uni042E" unicode="&#x42e;" horiz-adv-x="1083" 
d="M684 -15q-73 0 -134.5 24.5t-106.5 68t-74 104.5t-38 133h-83v-315h-166v750h166v-295h86q10 68 39.5 125t74.5 98t105 64t131 23q81 0 147.5 -29t113 -80.5t71.5 -123t25 -154.5q0 -84 -25 -156.5t-71.5 -124.5t-113 -82t-147.5 -30zM684 126q45 0 81 19t60.5 52.5
t37.5 80t13 100.5q0 53 -13 98t-38 78t-60.5 51.5t-80.5 18.5t-80.5 -18.5t-60 -51.5t-37.5 -78t-13 -98q0 -54 13 -100.5t37.5 -80t60 -52.5t80.5 -19z" />
    <glyph glyph-name="uni042F" unicode="&#x42f;" horiz-adv-x="685" 
d="M437 270h-77l-187 -270h-138v78l167 230q-60 22 -99.5 75.5t-39.5 126.5q0 110 76.5 175t204.5 65h259v-750h-166v270zM345 403h95v209h-95q-55 0 -85.5 -28.5t-30.5 -74.5t31 -76t85 -30z" />
    <glyph glyph-name="uni0490" unicode="&#x490;" horiz-adv-x="559" 
d="M387 900h151v-291h-290v-609h-166v750h305v150z" />
    <glyph glyph-name="uni0403" unicode="&#x403;" horiz-adv-x="559" 
d="M252 805v60l72 80h156v-60l-92 -80h-136zM82 0v750h456v-141h-290v-609h-166z" />
    <glyph glyph-name="uni040E" unicode="&#x40e;" horiz-adv-x="656" 
d="M343 804q-41 0 -72 9t-52 21.5t-33 26t-16 21.5v66h116q0 -5 2.5 -14.5t9 -19t18 -17t27.5 -7.5q15 0 26 7.5t17.5 17t10 19t3.5 14.5h116v-66q-4 -8 -15.5 -21.5t-32.5 -26t-52 -21.5t-73 -9zM294 0h-131v75l88 154l-239 443v78h146l185 -350l175 350h131v-75z" />
    <glyph glyph-name="uni0430" unicode="&#x430;" horiz-adv-x="551" 
d="M197 -15q-83 0 -124.5 46.5t-41.5 110.5q0 72 53.5 114.5t163.5 42.5q39 0 66.5 -5l27.5 -5v22q0 41 -20 62.5t-63 21.5q-24 0 -40.5 -7t-26.5 -16t-14.5 -16l-4.5 -7h-114v67l9.5 16.5t32 35.5t62 35.5t99.5 16.5q115 0 173 -54.5t58 -159.5v-306h-136l-10 64
q-19 -31 -54.5 -55t-95.5 -24zM246 101q49 0 72.5 27.5t23.5 54.5v22l-23.5 4t-60.5 4q-44 0 -61 -16.5t-17 -40.5q0 -29 17.5 -42t48.5 -13z" />
    <glyph glyph-name="uni0431" unicode="&#x431;" horiz-adv-x="627" 
d="M321 -15q-128 0 -199 81.5t-71 221.5v82q0 77 13 141.5t44.5 112t86 77.5t136.5 38l55 5q43 4 55.5 15.5l12.5 11.5h108v-67q-16 -40 -51 -61t-112 -29l-67 -7q-84 -9 -114.5 -50.5t-34.5 -134.5q23 43 68 68t102 25q56 0 100.5 -20t75 -55t46.5 -83.5t16 -105.5
q0 -54 -19 -103t-53.5 -85t-85 -57t-112.5 -21zM321 116q60 0 90 39.5t30 95.5q0 54 -30 93.5t-90 39.5q-61 0 -90 -39.5t-29 -93.5q0 -56 29.5 -95.5t89.5 -39.5z" />
    <glyph glyph-name="uni0432" unicode="&#x432;" horiz-adv-x="556" 
d="M64 0v510h256q79 0 129 -34t50 -99q0 -37 -20 -65.5t-55 -42.5q46 -13 70.5 -44t24.5 -73q0 -77 -52.5 -114.5t-135.5 -37.5h-267zM209 315h81q28 0 43.5 11.5t15.5 34.5q0 24 -16 34t-43 10h-81v-90zM209 105h90q32 0 51 12.5t19 39.5q0 26 -18 39t-52 13h-90v-104z" />
    <glyph glyph-name="uni0433" unicode="&#x433;" horiz-adv-x="443" 
d="M64 0v505h360v-123h-209v-382h-151z" />
    <glyph glyph-name="uni0434" unicode="&#x434;" horiz-adv-x="637" 
d="M14 -140v261h49q19 14 30 53.5t15 105.5l15 225h412v-384h75v-261h-136v140h-324v-140h-136zM204 121h183v265h-141l-9 -122q-3 -45 -11 -81t-22 -62z" />
    <glyph glyph-name="uni0435" unicode="&#x435;" horiz-adv-x="583" 
d="M308 -15q-68 0 -119 20.5t-85 56t-51 84.5t-17 105q0 55 17.5 104.5t51.5 85.5t84 57.5t113 21.5q64 0 110.5 -18.5t76 -50t44 -75.5t14.5 -94q0 -26 -3.5 -45l-3.5 -19h-352q7 -51 37.5 -81.5t85.5 -30.5q34 0 55 7t33 16t16 16l4 7h118v-67l-10.5 -15.5t-36.5 -34.5
t-70.5 -34.5t-111.5 -15.5zM191 309h211q0 36 -25 63.5t-76 27.5q-49 0 -75 -25.5t-35 -65.5z" />
    <glyph glyph-name="uni0451" unicode="&#x451;" horiz-adv-x="583" 
d="M126 600v140h145v-140h-145zM331 600v140h146v-140h-146zM308 -15q-68 0 -119 20.5t-85 56t-51 84.5t-17 105q0 55 17.5 104.5t51.5 85.5t84 57.5t113 21.5q64 0 110.5 -18.5t76 -50t44 -75.5t14.5 -94q0 -26 -3.5 -45l-3.5 -19h-352q7 -51 37.5 -81.5t85.5 -30.5
q34 0 55 7t33 16t16 16l4 7h118v-67l-10.5 -15.5t-36.5 -34.5t-70.5 -34.5t-111.5 -15.5zM191 309h211q0 36 -25 63.5t-76 27.5q-49 0 -75 -25.5t-35 -65.5z" />
    <glyph glyph-name="uni0436" unicode="&#x436;" horiz-adv-x="818" 
d="M32 0v70l152 192l-151 177v66h131l169 -206v206h151v-206l167 206h129v-67l-146 -175l156 -193v-70h-139l-167 219v-219h-151v218l-164 -218h-137z" />
    <glyph glyph-name="uni0437" unicode="&#x437;" horiz-adv-x="507" 
d="M248 -15q-53 0 -90.5 12t-62 28t-38.5 33t-21 27v67h119q8 -16 27.5 -36.5t65.5 -20.5q41 0 60 16.5t19 41.5q0 23 -18 38t-63 15h-75v96h70q37 0 52.5 15t15.5 40q0 23 -16.5 37.5t-50.5 14.5q-40 0 -59 -20.5t-26 -35.5h-116v68q6 9 20 26t38.5 33t62 28t91.5 12
q93 0 145.5 -37t52.5 -105q0 -37 -18.5 -66t-59.5 -44q48 -14 72.5 -46t24.5 -78q0 -76 -57.5 -117.5t-164.5 -41.5z" />
    <glyph glyph-name="uni0438" unicode="&#x438;" horiz-adv-x="618" 
d="M64 0v505h151v-300l193 300h146v-505h-151v300l-193 -300h-146z" />
    <glyph glyph-name="uni0439" unicode="&#x439;" horiz-adv-x="618" 
d="M310 583q-42 0 -71.5 10.5t-48.5 25t-29 29.5t-13 24v64h108q0 -7 1.5 -17.5t7.5 -20t17 -16.5t28 -7q16 0 26.5 7t17 16.5t9 20t2.5 17.5h108v-64q-3 -9 -13 -24t-29.5 -29.5t-49 -25t-71.5 -10.5zM64 0v505h151v-300l193 300h146v-505h-151v300l-193 -300h-146z" />
    <glyph glyph-name="uni043A" unicode="&#x43a;" horiz-adv-x="559" 
d="M64 0v505h151v-205l173 205h128v-67l-149 -174l167 -194v-70h-141l-178 218v-218h-151z" />
    <glyph glyph-name="uni043B" unicode="&#x43b;" horiz-adv-x="577" 
d="M23 0v129h10q41 1 58.5 30.5t18.5 92.5l5 253h398v-505h-150v384h-119l-3 -150q-1 -50 -9.5 -93t-27.5 -74t-52 -49t-82 -18h-47z" />
    <glyph glyph-name="uni043C" unicode="&#x43c;" horiz-adv-x="752" 
d="M317 88l-115 223v-311h-138v505h186l128 -248l125 248h185v-505h-146v313l-116 -225h-109z" />
    <glyph glyph-name="uni043D" unicode="&#x43d;" horiz-adv-x="608" 
d="M64 0v505h151v-187h178v187h151v-505h-151v195h-178v-195h-151z" />
    <glyph glyph-name="uni043E" unicode="&#x43e;" horiz-adv-x="606" 
d="M303 -15q-63 0 -112.5 21.5t-84 57.5t-52.5 85.5t-18 104.5t18 103.5t52.5 84.5t84 57t112.5 21q62 0 112 -21t84 -57t52.5 -84.5t18.5 -103.5t-18.5 -104.5t-52.5 -85.5t-84 -57.5t-112 -21.5zM303 116q59 0 87.5 40.5t28.5 97.5q0 55 -28.5 95t-87.5 40t-87.5 -40
t-28.5 -95q0 -57 28.5 -97.5t87.5 -40.5z" />
    <glyph glyph-name="uni043F" unicode="&#x43f;" horiz-adv-x="598" 
d="M64 0v505h470v-505h-151v382h-168v-382h-151z" />
    <glyph glyph-name="uni0440" unicode="&#x440;" horiz-adv-x="642" 
d="M64 -250v755h141l7 -72q25 40 69 63.5t99 23.5q53 0 95 -21t71 -57t44 -84.5t15 -103.5q0 -56 -16 -105.5t-45 -85.5t-71 -57t-93 -21q-54 0 -96.5 22t-68.5 61v-318h-151zM334 121q59 0 89.5 38.5t30.5 94.5q0 54 -30.5 92t-89.5 38q-54 0 -86.5 -37.5t-32.5 -92.5
q0 -56 32.5 -94.5t86.5 -38.5z" />
    <glyph glyph-name="uni0441" unicode="&#x441;" horiz-adv-x="547" 
d="M300 -15q-66 0 -116 21t-82.5 57t-49 85t-16.5 103q0 55 18 104.5t52 86t83 58t111 21.5q64 0 104.5 -18.5t63 -40.5t31 -40.5l8.5 -18.5v-67h-113l-3.5 8.5t-14 18.5t-29 18.5t-47.5 8.5q-57 0 -85 -41t-28 -98q0 -56 28 -95.5t85 -39.5q31 0 50 8.5t29 18.5t13 18.5
l3 8.5h113v-67l-9 -18.5t-32 -40.5t-63.5 -40.5t-103.5 -18.5z" />
    <glyph glyph-name="uni0442" unicode="&#x442;" horiz-adv-x="480" 
d="M164 0v382h-144v123h440v-123h-145v-382h-151z" />
    <glyph glyph-name="uni0443" unicode="&#x443;" horiz-adv-x="556" 
d="M204 -250h-128v70l126 226l-182 389v70h136l129 -296l134 296h125v-67z" />
    <glyph glyph-name="uni0444" unicode="&#x444;" horiz-adv-x="764" 
d="M307 -250v237q-62 2 -112.5 23.5t-86 57t-54.5 83.5t-19 103q0 54 19 102t54.5 83t86 56.5t112.5 23.5v181h150v-181q62 -2 112.5 -23.5t86 -57t54.5 -84t19 -102.5q0 -55 -19 -102.5t-54.5 -83t-86 -56.5t-112.5 -23v-237h-150zM307 118v270q-58 -1 -89.5 -40t-31.5 -94
q0 -56 31.5 -95.5t89.5 -40.5zM457 118q57 1 89 40t32 94q0 56 -32 95.5t-89 40.5v-270z" />
    <glyph glyph-name="uni0445" unicode="&#x445;" horiz-adv-x="559" 
d="M31 0v68l158 189l-155 178v70h138l114 -146l113 146h126v-67l-156 -183l159 -185v-70h-138l-118 151l-115 -151h-126z" />
    <glyph glyph-name="uni0446" unicode="&#x446;" horiz-adv-x="636" 
d="M473 -140v140h-409v505h151v-384h168v384h151v-384h75v-261h-136z" />
    <glyph glyph-name="uni0447" unicode="&#x447;" horiz-adv-x="563" 
d="M348 0v163h-82q-117 0 -173.5 49.5t-56.5 153.5v139h151v-139q0 -44 21 -63t62 -19h78v221h151v-505h-151z" />
    <glyph glyph-name="uni0448" unicode="&#x448;" horiz-adv-x="819" 
d="M64 0v505h151v-384h119v384h151v-384h119v384h151v-505h-691z" />
    <glyph glyph-name="uni0449" unicode="&#x449;" horiz-adv-x="857" 
d="M694 -140v140h-630v505h151v-384h119v384h151v-384h119v384h151v-384h75v-261h-136z" />
    <glyph glyph-name="uni044A" unicode="&#x44a;" horiz-adv-x="619" 
d="M376 0h-226v384h-130v121h281v-152h77q110 0 163.5 -49t53.5 -123q0 -76 -53 -128.5t-166 -52.5zM301 113h63q35 0 56 16t21 50q0 30 -20 45.5t-56 15.5h-64v-127z" />
    <glyph glyph-name="uni044B" unicode="&#x44b;" horiz-adv-x="771" 
d="M64 0v505h151v-152h77q110 0 163.5 -49t53.5 -123q0 -76 -53 -128.5t-166 -52.5h-226zM556 0v505h151v-505h-151zM215 113h63q35 0 56 16t21 50q0 30 -20 45.5t-56 15.5h-64v-127z" />
    <glyph glyph-name="uni044C" unicode="&#x44c;" horiz-adv-x="533" 
d="M64 0v505h151v-152h77q110 0 163.5 -49t53.5 -123q0 -76 -53 -128.5t-166 -52.5h-226zM215 109h63q37 0 58.5 16.5t21.5 53.5q0 31 -21 47.5t-58 16.5h-64v-134z" />
    <glyph glyph-name="uni044D" unicode="&#x44d;" horiz-adv-x="546" 
d="M247 -15q-60 0 -100 17.5t-64.5 39t-34.5 39l-10 17.5v67h114l4.5 -9t15.5 -19.5t29 -19.5t46 -9q49 0 75.5 27t30.5 73h-168v92h167q-4 45 -31 70.5t-74 25.5q-28 0 -46.5 -8.5t-29 -19t-14.5 -19l-4 -8.5h-114v67l10 17.5t33.5 39t64 39t100.5 17.5q63 0 112.5 -21.5
t82.5 -58t50.5 -86t17.5 -104.5q0 -54 -16.5 -103t-49 -85t-82 -57t-115.5 -21z" />
    <glyph glyph-name="uni044E" unicode="&#x44e;" horiz-adv-x="824" 
d="M526 -15q-53 0 -96 16.5t-75 44.5t-52.5 67t-28.5 84h-59v-197h-151v505h151v-187h60q18 87 83 144.5t168 57.5q61 0 110 -21t82.5 -57t51.5 -84.5t18 -103.5t-18 -104.5t-51.5 -85.5t-82.5 -57.5t-110 -21.5zM526 118q57 0 84 40t27 96q0 54 -27 93.5t-84 39.5
t-84.5 -39.5t-27.5 -93.5q0 -56 27.5 -96t84.5 -40z" />
    <glyph glyph-name="uni044F" unicode="&#x44f;" horiz-adv-x="556" 
d="M341 169h-45l-134 -169h-121v68l109 123q-51 19 -78.5 55t-27.5 87q0 35 13 66.5t39.5 55t67 37t96.5 13.5h232v-505h-151v169zM272 269h69v129h-69q-35 0 -56 -16t-21 -50q0 -31 20 -47t57 -16z" />
    <glyph glyph-name="uni0453" unicode="&#x453;" horiz-adv-x="443" 
d="M176 593v60l77 90h144v-60l-98 -90h-123zM64 0v505h360v-123h-209v-382h-151z" />
    <glyph glyph-name="uni045E" unicode="&#x45e;" horiz-adv-x="556" 
d="M287 583q-42 0 -71.5 10.5t-48.5 25t-29 29.5t-13 24v64h108q0 -7 1.5 -17.5t7.5 -20t17 -16.5t28 -7q16 0 26.5 7t17 16.5t9 20t2.5 17.5h108v-64q-3 -9 -13 -24t-29.5 -29.5t-49 -25t-71.5 -10.5zM204 -250h-128v70l126 226l-182 389v70h136l129 -296l134 296h125v-67z
" />
    <glyph glyph-name="agrave" unicode="&#xe0;" horiz-adv-x="551" 
d="M231 600l-97 90v60h143l77 -90v-60h-123zM197 -15q-83 0 -124.5 46.5t-41.5 110.5q0 72 53.5 114.5t163.5 42.5q39 0 66.5 -5l27.5 -5v22q0 41 -20 62.5t-63 21.5q-24 0 -40.5 -7t-26.5 -16t-14.5 -16l-4.5 -7h-114v67l9.5 16.5t32 35.5t62 35.5t99.5 16.5
q115 0 173 -54.5t58 -159.5v-306h-136l-10 64q-19 -31 -54.5 -55t-95.5 -24zM246 101q49 0 72.5 27.5t23.5 54.5v22l-23.5 4t-60.5 4q-44 0 -61 -16.5t-17 -40.5q0 -29 17.5 -42t48.5 -13z" />
    <glyph glyph-name="amacron" unicode="&#x101;" horiz-adv-x="551" 
d="M142 610v116h286v-116h-286zM197 -15q-83 0 -124.5 46.5t-41.5 110.5q0 72 53.5 114.5t163.5 42.5q39 0 66.5 -5l27.5 -5v22q0 41 -20 62.5t-63 21.5q-24 0 -40.5 -7t-26.5 -16t-14.5 -16l-4.5 -7h-114v67l9.5 16.5t32 35.5t62 35.5t99.5 16.5q115 0 173 -54.5t58 -159.5
v-306h-136l-10 64q-19 -31 -54.5 -55t-95.5 -24zM246 101q49 0 72.5 27.5t23.5 54.5v22l-23.5 4t-60.5 4q-44 0 -61 -16.5t-17 -40.5q0 -29 17.5 -42t48.5 -13z" />
    <glyph glyph-name="aogonek" unicode="&#x105;" horiz-adv-x="551" 
d="M303 -91q0 35 23 60t61 31h-30l-10 64q-19 -31 -54.5 -55t-95.5 -24q-83 0 -124.5 46.5t-41.5 110.5q0 72 53.5 114.5t163.5 42.5q39 0 66.5 -5l27.5 -5v22q0 41 -20 62.5t-63 21.5q-24 0 -40.5 -7t-26.5 -16t-14.5 -16l-4.5 -7h-114v67l9.5 16.5t32 35.5t62 35.5
t99.5 16.5q115 0 173 -54.5t58 -159.5v-306q-19 -4 -38 -14.5t-19 -39.5q0 -18 8 -28.5t19.5 -16t24 -7t21.5 -1.5v-85h-80q-19 1 -41.5 6.5t-41 16.5t-31 30t-12.5 48zM246 101q49 0 72.5 27.5t23.5 54.5v22l-23.5 4t-60.5 4q-44 0 -61 -16.5t-17 -40.5q0 -29 17.5 -42
t48.5 -13z" />
    <glyph glyph-name="aring" unicode="&#xe5;" horiz-adv-x="551" 
d="M283 568q-68 0 -100.5 28t-32.5 68t32.5 68t100.5 28t101 -28t33 -68t-33 -68t-101 -28zM283 634q14 0 24.5 8t10.5 22t-10.5 22t-24.5 8q-13 0 -24 -8t-11 -22t11 -22t24 -8zM197 -15q-83 0 -124.5 46.5t-41.5 110.5q0 72 53.5 114.5t163.5 42.5q39 0 66.5 -5l27.5 -5
v22q0 41 -20 62.5t-63 21.5q-24 0 -40.5 -7t-26.5 -16t-14.5 -16l-4.5 -7h-114v67l9.5 16.5t32 35.5t62 35.5t99.5 16.5q115 0 173 -54.5t58 -159.5v-306h-136l-10 64q-19 -31 -54.5 -55t-95.5 -24zM246 101q49 0 72.5 27.5t23.5 54.5v22l-23.5 4t-60.5 4q-44 0 -61 -16.5
t-17 -40.5q0 -29 17.5 -42t48.5 -13z" />
    <glyph glyph-name="aringacute" unicode="&#x1fb;" horiz-adv-x="551" 
d="M215 809v60l72 80h156v-60l-92 -80h-136zM283 568q-68 0 -100.5 28t-32.5 68t32.5 68t100.5 28t101 -28t33 -68t-33 -68t-101 -28zM283 634q14 0 24.5 8t10.5 22t-10.5 22t-24.5 8q-13 0 -24 -8t-11 -22t11 -22t24 -8zM197 -15q-83 0 -124.5 46.5t-41.5 110.5
q0 72 53.5 114.5t163.5 42.5q39 0 66.5 -5l27.5 -5v22q0 41 -20 62.5t-63 21.5q-24 0 -40.5 -7t-26.5 -16t-14.5 -16l-4.5 -7h-114v67l9.5 16.5t32 35.5t62 35.5t99.5 16.5q115 0 173 -54.5t58 -159.5v-306h-136l-10 64q-19 -31 -54.5 -55t-95.5 -24zM246 101
q49 0 72.5 27.5t23.5 54.5v22l-23.5 4t-60.5 4q-44 0 -61 -16.5t-17 -40.5q0 -29 17.5 -42t48.5 -13z" />
    <glyph glyph-name="atilde" unicode="&#xe3;" horiz-adv-x="551" 
d="M361 599q-24 0 -40 5.5t-29 12t-25.5 12t-28.5 5.5q-13 0 -22 -8t-13 -22h-95q-4 60 24 98.5t82 38.5q24 0 39.5 -5.5t27.5 -11.5t23.5 -11.5t27.5 -5.5q11 0 21 6t13 23h95q4 -60 -20 -98.5t-80 -38.5zM197 -15q-83 0 -124.5 46.5t-41.5 110.5q0 72 53.5 114.5
t163.5 42.5q39 0 66.5 -5l27.5 -5v22q0 41 -20 62.5t-63 21.5q-24 0 -40.5 -7t-26.5 -16t-14.5 -16l-4.5 -7h-114v67l9.5 16.5t32 35.5t62 35.5t99.5 16.5q115 0 173 -54.5t58 -159.5v-306h-136l-10 64q-19 -31 -54.5 -55t-95.5 -24zM246 101q49 0 72.5 27.5t23.5 54.5v22
l-23.5 4t-60.5 4q-44 0 -61 -16.5t-17 -40.5q0 -29 17.5 -42t48.5 -13z" />
    <glyph glyph-name="b" unicode="b" horiz-adv-x="642" 
d="M378 -15q-56 0 -98 23.5t-67 63.5l-8 -72h-141v750h151v-313q25 39 67.5 61t97.5 22q52 0 94 -20.5t71 -56t44.5 -84t15.5 -102.5q0 -56 -15.5 -105.5t-44 -86.5t-71 -58.5t-96.5 -21.5zM334 121q58 0 89 38.5t31 92.5q0 55 -31 93.5t-90 38.5q-53 0 -85.5 -38t-32.5 -93
q0 -56 32.5 -94t86.5 -38z" />
    <glyph glyph-name="c" unicode="c" horiz-adv-x="545" 
d="M300 -15q-66 0 -116 21t-82.5 57t-49 85t-16.5 103q0 55 18 104.5t52 86t83 58t111 21.5q64 0 104.5 -18.5t63 -40.5t31 -40.5l8.5 -18.5v-67h-113l-3.5 8.5t-14 18.5t-29 18.5t-47.5 8.5q-57 0 -85 -41t-28 -98q0 -56 28 -95.5t85 -39.5q31 0 50 8.5t29 18.5t13 18.5
l3 8.5h113v-67l-9 -18.5t-32 -40.5t-63.5 -40.5t-103.5 -18.5z" />
    <glyph glyph-name="cacute" unicode="&#x107;" horiz-adv-x="545" 
d="M225 600v60l77 90h144v-60l-98 -90h-123zM300 -15q-66 0 -116 21t-82.5 57t-49 85t-16.5 103q0 55 18 104.5t52 86t83 58t111 21.5q64 0 104.5 -18.5t63 -40.5t31 -40.5l8.5 -18.5v-67h-113l-3.5 8.5t-14 18.5t-29 18.5t-47.5 8.5q-57 0 -85 -41t-28 -98q0 -56 28 -95.5
t85 -39.5q31 0 50 8.5t29 18.5t13 18.5l3 8.5h113v-67l-9 -18.5t-32 -40.5t-63.5 -40.5t-103.5 -18.5z" />
    <glyph glyph-name="ccaron" unicode="&#x10d;" horiz-adv-x="545" 
d="M367 600h-150l-94 90v60h106l63 -73l59 73h106v-60zM300 -15q-66 0 -116 21t-82.5 57t-49 85t-16.5 103q0 55 18 104.5t52 86t83 58t111 21.5q64 0 104.5 -18.5t63 -40.5t31 -40.5l8.5 -18.5v-67h-113l-3.5 8.5t-14 18.5t-29 18.5t-47.5 8.5q-57 0 -85 -41t-28 -98
q0 -56 28 -95.5t85 -39.5q31 0 50 8.5t29 18.5t13 18.5l3 8.5h113v-67l-9 -18.5t-32 -40.5t-63.5 -40.5t-103.5 -18.5z" />
    <glyph glyph-name="ccedilla" unicode="&#xe7;" horiz-adv-x="545" 
d="M441 -123q0 -29 -11.5 -47.5t-29.5 -30t-40 -16.5t-43 -7h-85v80q28 0 48 7t20 29q0 21 -20.5 28t-43.5 7v64q-50 9 -87.5 33t-62.5 58.5t-37.5 78t-12.5 90.5q0 55 18 104.5t52 86t83 58t111 21.5q64 0 104.5 -18.5t63 -40.5t31 -40.5l8.5 -18.5v-67h-113l-3.5 8.5
t-14 18.5t-29 18.5t-47.5 8.5q-57 0 -85 -41t-28 -98q0 -56 28 -95.5t85 -39.5q31 0 50 8.5t29 18.5t13 18.5l3 8.5h113v-67l-6.5 -14.5t-23.5 -33.5t-46.5 -38t-74.5 -27v-30q37 -6 60.5 -27.5t23.5 -55.5z" />
    <glyph glyph-name="ccircumflex" unicode="&#x109;" horiz-adv-x="545" 
d="M355 600l-61 73l-61 -73h-106v60l92 90h150l92 -90v-60h-106zM300 -15q-66 0 -116 21t-82.5 57t-49 85t-16.5 103q0 55 18 104.5t52 86t83 58t111 21.5q64 0 104.5 -18.5t63 -40.5t31 -40.5l8.5 -18.5v-67h-113l-3.5 8.5t-14 18.5t-29 18.5t-47.5 8.5q-57 0 -85 -41
t-28 -98q0 -56 28 -95.5t85 -39.5q31 0 50 8.5t29 18.5t13 18.5l3 8.5h113v-67l-9 -18.5t-32 -40.5t-63.5 -40.5t-103.5 -18.5z" />
    <glyph glyph-name="cdotaccent" unicode="&#x10b;" horiz-adv-x="545" 
d="M214 600v140h156v-140h-156zM300 -15q-66 0 -116 21t-82.5 57t-49 85t-16.5 103q0 55 18 104.5t52 86t83 58t111 21.5q64 0 104.5 -18.5t63 -40.5t31 -40.5l8.5 -18.5v-67h-113l-3.5 8.5t-14 18.5t-29 18.5t-47.5 8.5q-57 0 -85 -41t-28 -98q0 -56 28 -95.5t85 -39.5
q31 0 50 8.5t29 18.5t13 18.5l3 8.5h113v-67l-9 -18.5t-32 -40.5t-63.5 -40.5t-103.5 -18.5z" />
    <glyph glyph-name="colon" unicode=":" horiz-adv-x="279" 
d="M59 344v161h161v-161h-161zM59 0v161h161v-161h-161z" />
    <glyph glyph-name="comma" unicode="," horiz-adv-x="279" 
d="M59 -140v301h161v-151l-61 -150h-100z" />
    <glyph glyph-name="d" unicode="d" horiz-adv-x="642" 
d="M262 -15q-53 0 -95 21t-70.5 57t-44 85t-15.5 104q0 56 16 105.5t45.5 85.5t72 56.5t94.5 20.5q54 0 95 -22t68 -61v313h150v-750h-140l-9 72q-25 -40 -68.5 -63.5t-98.5 -23.5zM308 121q54 0 87 38t33 94q0 55 -33 93t-87 38q-58 0 -89 -38.5t-31 -93.5q0 -54 31 -92.5
t89 -38.5z" />
    <glyph glyph-name="dotlessi" unicode="&#x131;" horiz-adv-x="278" 
d="M64 0v505h150v-505h-150z" />
    <glyph glyph-name="e" unicode="e" horiz-adv-x="583" 
d="M308 -15q-68 0 -119 20.5t-85 56t-51 84.5t-17 105q0 55 17.5 104.5t51.5 85.5t84 57.5t113 21.5q64 0 110.5 -18.5t76 -50t44 -75.5t14.5 -94q0 -26 -3.5 -45l-3.5 -19h-352q7 -51 37.5 -81.5t85.5 -30.5q34 0 55 7t33 16t16 16l4 7h118v-67l-10.5 -15.5t-36.5 -34.5
t-70.5 -34.5t-111.5 -15.5zM191 309h211q0 36 -25 63.5t-76 27.5q-49 0 -75 -25.5t-35 -65.5z" />
    <glyph glyph-name="eacute" unicode="&#xe9;" horiz-adv-x="583" 
d="M233 600v60l77 90h144v-60l-98 -90h-123zM308 -15q-68 0 -119 20.5t-85 56t-51 84.5t-17 105q0 55 17.5 104.5t51.5 85.5t84 57.5t113 21.5q64 0 110.5 -18.5t76 -50t44 -75.5t14.5 -94q0 -26 -3.5 -45l-3.5 -19h-352q7 -51 37.5 -81.5t85.5 -30.5q34 0 55 7t33 16t16 16
l4 7h118v-67l-10.5 -15.5t-36.5 -34.5t-70.5 -34.5t-111.5 -15.5zM191 309h211q0 36 -25 63.5t-76 27.5q-49 0 -75 -25.5t-35 -65.5z" />
    <glyph glyph-name="ebreve" unicode="&#x115;" horiz-adv-x="583" 
d="M302 588q-46 0 -76 11.5t-47 24.5t-23.5 24.5l-6.5 11.5v75h80l3.5 -6.5t12 -14.5t22.5 -14.5t35 -6.5t34.5 6.5t21 14.5t10.5 14.5l3 6.5h80v-75l-6.5 -11.5t-23 -24.5t-45.5 -24.5t-74 -11.5zM308 -15q-68 0 -119 20.5t-85 56t-51 84.5t-17 105q0 55 17.5 104.5
t51.5 85.5t84 57.5t113 21.5q64 0 110.5 -18.5t76 -50t44 -75.5t14.5 -94q0 -26 -3.5 -45l-3.5 -19h-352q7 -51 37.5 -81.5t85.5 -30.5q34 0 55 7t33 16t16 16l4 7h118v-67l-10.5 -15.5t-36.5 -34.5t-70.5 -34.5t-111.5 -15.5zM191 309h211q0 36 -25 63.5t-76 27.5
q-49 0 -75 -25.5t-35 -65.5z" />
    <glyph glyph-name="ecaron" unicode="&#x11b;" horiz-adv-x="583" 
d="M376 600h-150l-94 90v60h106l63 -73l59 73h106v-60zM308 -15q-68 0 -119 20.5t-85 56t-51 84.5t-17 105q0 55 17.5 104.5t51.5 85.5t84 57.5t113 21.5q64 0 110.5 -18.5t76 -50t44 -75.5t14.5 -94q0 -26 -3.5 -45l-3.5 -19h-352q7 -51 37.5 -81.5t85.5 -30.5q34 0 55 7
t33 16t16 16l4 7h118v-67l-10.5 -15.5t-36.5 -34.5t-70.5 -34.5t-111.5 -15.5zM191 309h211q0 36 -25 63.5t-76 27.5q-49 0 -75 -25.5t-35 -65.5z" />
    <glyph glyph-name="ecircumflex" unicode="&#xea;" horiz-adv-x="583" 
d="M363 600l-61 73l-61 -73h-106v60l92 90h150l92 -90v-60h-106zM308 -15q-68 0 -119 20.5t-85 56t-51 84.5t-17 105q0 55 17.5 104.5t51.5 85.5t84 57.5t113 21.5q64 0 110.5 -18.5t76 -50t44 -75.5t14.5 -94q0 -26 -3.5 -45l-3.5 -19h-352q7 -51 37.5 -81.5t85.5 -30.5
q34 0 55 7t33 16t16 16l4 7h118v-67l-10.5 -15.5t-36.5 -34.5t-70.5 -34.5t-111.5 -15.5zM191 309h211q0 36 -25 63.5t-76 27.5q-49 0 -75 -25.5t-35 -65.5z" />
    <glyph glyph-name="edieresis" unicode="&#xeb;" horiz-adv-x="583" 
d="M126 600v140h145v-140h-145zM331 600v140h146v-140h-146zM308 -15q-68 0 -119 20.5t-85 56t-51 84.5t-17 105q0 55 17.5 104.5t51.5 85.5t84 57.5t113 21.5q64 0 110.5 -18.5t76 -50t44 -75.5t14.5 -94q0 -26 -3.5 -45l-3.5 -19h-352q7 -51 37.5 -81.5t85.5 -30.5
q34 0 55 7t33 16t16 16l4 7h118v-67l-10.5 -15.5t-36.5 -34.5t-70.5 -34.5t-111.5 -15.5zM191 309h211q0 36 -25 63.5t-76 27.5q-49 0 -75 -25.5t-35 -65.5z" />
    <glyph glyph-name="edotaccent" unicode="&#x117;" horiz-adv-x="583" 
d="M223 600v140h156v-140h-156zM308 -15q-68 0 -119 20.5t-85 56t-51 84.5t-17 105q0 55 17.5 104.5t51.5 85.5t84 57.5t113 21.5q64 0 110.5 -18.5t76 -50t44 -75.5t14.5 -94q0 -26 -3.5 -45l-3.5 -19h-352q7 -51 37.5 -81.5t85.5 -30.5q34 0 55 7t33 16t16 16l4 7h118v-67
l-10.5 -15.5t-36.5 -34.5t-70.5 -34.5t-111.5 -15.5zM191 309h211q0 36 -25 63.5t-76 27.5q-49 0 -75 -25.5t-35 -65.5z" />
    <glyph glyph-name="egrave" unicode="&#xe8;" horiz-adv-x="583" 
d="M230 600l-97 90v60h143l77 -90v-60h-123zM308 -15q-68 0 -119 20.5t-85 56t-51 84.5t-17 105q0 55 17.5 104.5t51.5 85.5t84 57.5t113 21.5q64 0 110.5 -18.5t76 -50t44 -75.5t14.5 -94q0 -26 -3.5 -45l-3.5 -19h-352q7 -51 37.5 -81.5t85.5 -30.5q34 0 55 7t33 16t16 16
l4 7h118v-67l-10.5 -15.5t-36.5 -34.5t-70.5 -34.5t-111.5 -15.5zM191 309h211q0 36 -25 63.5t-76 27.5q-49 0 -75 -25.5t-35 -65.5z" />
    <glyph glyph-name="eight" unicode="8" horiz-adv-x="639" 
d="M319 -15q-65 0 -116.5 18.5t-87 50t-54 74t-18.5 90.5q0 51 26.5 103.5t86.5 80.5q-46 30 -65.5 73t-19.5 85t16.5 79.5t48 65.5t78 44.5t105.5 16.5t105 -16.5t77.5 -44.5t48 -65.5t16.5 -79.5q0 -53 -23.5 -93.5t-60.5 -64.5q61 -27 87.5 -80t26.5 -104
q0 -48 -18.5 -90.5t-54 -74t-87 -50t-117.5 -18.5zM319 460q44 0 66.5 26.5t22.5 63.5q0 34 -22.5 59.5t-66.5 25.5t-66.5 -25.5t-22.5 -59.5q0 -37 22.5 -63.5t66.5 -26.5zM319 121q54 0 81 30t27 73t-27.5 74t-80.5 31q-52 0 -79.5 -31t-27.5 -74t27.5 -73t79.5 -30z" />
    <glyph glyph-name="emacron" unicode="&#x113;" horiz-adv-x="583" 
d="M157 610v116h286v-116h-286zM308 -15q-68 0 -119 20.5t-85 56t-51 84.5t-17 105q0 55 17.5 104.5t51.5 85.5t84 57.5t113 21.5q64 0 110.5 -18.5t76 -50t44 -75.5t14.5 -94q0 -26 -3.5 -45l-3.5 -19h-352q7 -51 37.5 -81.5t85.5 -30.5q34 0 55 7t33 16t16 16l4 7h118v-67
l-10.5 -15.5t-36.5 -34.5t-70.5 -34.5t-111.5 -15.5zM191 309h211q0 36 -25 63.5t-76 27.5q-49 0 -75 -25.5t-35 -65.5z" />
    <glyph glyph-name="endash" unicode="&#x2013;" horiz-adv-x="583" 
d="M59 247v123h465v-123h-465z" />
    <glyph glyph-name="eogonek" unicode="&#x119;" horiz-adv-x="583" 
d="M518 -117v-75h-80q-20 1 -42 6.5t-40.5 16.5t-31 30t-12.5 48q0 25 12.5 45t37.5 34q-13 -1 -26.5 -2t-27.5 -1q-68 0 -119 20.5t-85 56t-51 84.5t-17 105q0 55 17.5 104.5t51.5 85.5t84 57.5t113 21.5q64 0 110.5 -18.5t76 -50t44 -75.5t14.5 -94q0 -26 -3.5 -45
l-3.5 -19h-352q7 -51 37.5 -81.5t85.5 -30.5q34 0 55 7t33 16t16 16l4 7h118v-67l-9.5 -14t-31.5 -31q-22 -22 -36.5 -46.5t-14.5 -55.5q0 -17 8 -27.5t19.5 -16.5t24 -8.5t21.5 -2.5zM191 309h211q0 36 -25 63.5t-76 27.5q-49 0 -75 -25.5t-35 -65.5z" />
    <glyph glyph-name="exclam" unicode="!" horiz-adv-x="312" 
d="M83 241l-10 509h166l-10 -509h-146zM76 0v161h161v-161h-161z" />
    <glyph glyph-name="f" unicode="f" horiz-adv-x="438" 
d="M111 0v382h-85v123h85v56q0 91 54 145t150 54q66 0 105.5 -25.5t53.5 -65.5v-68h-112q0 6 -9 18.5t-37 12.5q-27 0 -40.5 -17t-13.5 -53v-57h161v-123h-161v-382h-151z" />
    <glyph glyph-name="five" unicode="5" horiz-adv-x="590" 
d="M281 -13q-59 0 -103.5 18t-75 44t-47.5 55.5t-21 51.5v75h131q1 -9 6.5 -26t18.5 -34t34.5 -29.5t55.5 -12.5q52 0 80.5 36t28.5 82q0 49 -29.5 83t-83.5 34q-25 0 -43 -5t-29.5 -11t-17 -11l-5.5 -5l-110 42l37 376h399v-141h-269l-15 -128q7 1 29.5 7.5t53.5 6.5
q54 0 100 -17t79 -48.5t51.5 -77.5t18.5 -105q0 -57 -19.5 -105.5t-54.5 -82.5t-86 -53t-114 -19z" />
    <glyph glyph-name="four" unicode="4" horiz-adv-x="650" 
d="M615 150h-96v-160h-156v160h-343v117l353 483h146v-471h96v-129zM363 279v247l-177 -247h177z" />
    <glyph glyph-name="g" unicode="g" horiz-adv-x="642" 
d="M305 -260q-72 0 -119 21t-73.5 45.5t-37 45.5l-10.5 21v67h121l5 -10.5t17.5 -23t35 -23t57.5 -10.5q65 0 96 41t31 105v54q-25 -37 -68 -57.5t-98 -20.5q-52 0 -94 20.5t-71 55.5t-44.5 82.5t-15.5 100.5q0 55 16 104t45.5 85t72 57t95.5 21q54 0 96.5 -24t67.5 -63
l8 71h141v-482q0 -64 -20 -116.5t-55.5 -89.5t-86.5 -57t-112 -20zM309 125q53 0 86 38t33 93q0 54 -33 91.5t-87 37.5q-57 0 -88.5 -37.5t-31.5 -91.5t31.5 -92.5t89.5 -38.5z" />
    <glyph glyph-name="gbreve" unicode="&#x11f;" horiz-adv-x="642" 
d="M326 588q-46 0 -76 11.5t-47 24.5t-23.5 24.5l-6.5 11.5v75h80l3.5 -6.5t12 -14.5t22.5 -14.5t35 -6.5t34.5 6.5t21 14.5t10.5 14.5l3 6.5h80v-75l-6.5 -11.5t-23 -24.5t-45.5 -24.5t-74 -11.5zM305 -260q-72 0 -119 21t-73.5 45.5t-37 45.5l-10.5 21v67h121l5 -10.5
t17.5 -23t35 -23t57.5 -10.5q65 0 96 41t31 105v54q-25 -37 -68 -57.5t-98 -20.5q-52 0 -94 20.5t-71 55.5t-44.5 82.5t-15.5 100.5q0 55 16 104t45.5 85t72 57t95.5 21q54 0 96.5 -24t67.5 -63l8 71h141v-482q0 -64 -20 -116.5t-55.5 -89.5t-86.5 -57t-112 -20zM309 125
q53 0 86 38t33 93q0 54 -33 91.5t-87 37.5q-57 0 -88.5 -37.5t-31.5 -91.5t31.5 -92.5t89.5 -38.5z" />
    <glyph glyph-name="gcircumflex" unicode="&#x11d;" horiz-adv-x="642" 
d="M391 600l-61 73l-61 -73h-106v60l92 90h150l92 -90v-60h-106zM305 -260q-72 0 -119 21t-73.5 45.5t-37 45.5l-10.5 21v67h121l5 -10.5t17.5 -23t35 -23t57.5 -10.5q65 0 96 41t31 105v54q-25 -37 -68 -57.5t-98 -20.5q-52 0 -94 20.5t-71 55.5t-44.5 82.5t-15.5 100.5
q0 55 16 104t45.5 85t72 57t95.5 21q54 0 96.5 -24t67.5 -63l8 71h141v-482q0 -64 -20 -116.5t-55.5 -89.5t-86.5 -57t-112 -20zM309 125q53 0 86 38t33 93q0 54 -33 91.5t-87 37.5q-57 0 -88.5 -37.5t-31.5 -91.5t31.5 -92.5t89.5 -38.5z" />
    <glyph glyph-name="uni0123" unicode="&#x123;" horiz-adv-x="642" 
d="M399 763l5 -153h-156v72l55 81h96zM305 -260q-72 0 -119 21t-73.5 45.5t-37 45.5l-10.5 21v67h121l5 -10.5t17.5 -23t35 -23t57.5 -10.5q65 0 96 41t31 105v54q-25 -37 -68 -57.5t-98 -20.5q-52 0 -94 20.5t-71 55.5t-44.5 82.5t-15.5 100.5q0 55 16 104t45.5 85t72 57
t95.5 21q54 0 96.5 -24t67.5 -63l8 71h141v-482q0 -64 -20 -116.5t-55.5 -89.5t-86.5 -57t-112 -20zM309 125q53 0 86 38t33 93q0 54 -33 91.5t-87 37.5q-57 0 -88.5 -37.5t-31.5 -91.5t31.5 -92.5t89.5 -38.5z" />
    <glyph glyph-name="gdotaccent" unicode="&#x121;" horiz-adv-x="642" 
d="M255 600v140h156v-140h-156zM305 -260q-72 0 -119 21t-73.5 45.5t-37 45.5l-10.5 21v67h121l5 -10.5t17.5 -23t35 -23t57.5 -10.5q65 0 96 41t31 105v54q-25 -37 -68 -57.5t-98 -20.5q-52 0 -94 20.5t-71 55.5t-44.5 82.5t-15.5 100.5q0 55 16 104t45.5 85t72 57t95.5 21
q54 0 96.5 -24t67.5 -63l8 71h141v-482q0 -64 -20 -116.5t-55.5 -89.5t-86.5 -57t-112 -20zM309 125q53 0 86 38t33 93q0 54 -33 91.5t-87 37.5q-57 0 -88.5 -37.5t-31.5 -91.5t31.5 -92.5t89.5 -38.5z" />
    <glyph glyph-name="germandbls" unicode="&#xdf;" horiz-adv-x="617" 
d="M366 -15q-37 0 -61 7t-33 8v123q9 -2 26.5 -7t41.5 -5q46 0 66.5 26t20.5 64q0 52 -36 80t-111 32v120q52 7 79 40t27 77q0 35 -20 59.5t-66 24.5q-43 0 -64 -28.5t-21 -76.5v-529h-151v528q0 108 64 170t176 62q105 0 171.5 -52t66.5 -151q0 -53 -29.5 -98.5
t-78.5 -70.5q68 -18 108 -68.5t40 -119.5q0 -40 -11.5 -78.5t-37.5 -69t-67 -49t-100 -18.5z" />
    <glyph glyph-name="h" unicode="h" 
d="M64 0v750h151v-307q17 27 54.5 52t93.5 25q50 0 84.5 -17t56 -45t31 -65.5t9.5 -78.5v-314h-150v286q0 44 -19 71.5t-64 27.5q-54 0 -75 -32t-21 -69v-284h-151z" />
    <glyph glyph-name="hcircumflex" unicode="&#x125;" 
d="M360 800l-56 58l-56 -58h-116v60l92 80h160l92 -80v-60h-116zM64 0v750h151v-307q17 27 54.5 52t93.5 25q50 0 84.5 -17t56 -45t31 -65.5t9.5 -78.5v-314h-150v286q0 44 -19 71.5t-64 27.5q-54 0 -75 -32t-21 -69v-284h-151z" />
    <glyph glyph-name="hyphen" unicode="-" horiz-adv-x="403" 
d="M59 247v123h285v-123h-285z" />
    <glyph glyph-name="i" unicode="i" horiz-adv-x="278" 
d="M60 600v140h156v-140h-156zM64 0v505h150v-505h-150z" />
    <glyph glyph-name="iacute" unicode="&#xed;" horiz-adv-x="277" 
d="M64 600v60l77 90h144v-60l-98 -90h-123zM64 0v505h150v-505h-150z" />
    <glyph glyph-name="ibreve" unicode="&#x12d;" horiz-adv-x="276" 
d="M140 588q-46 0 -76 11.5t-47 24.5t-23.5 24.5l-6.5 11.5v75h80l3.5 -6.5t12 -14.5t22.5 -14.5t35 -6.5t34.5 6.5t21 14.5t10.5 14.5l3 6.5h80v-75l-6.5 -11.5t-23 -24.5t-45.5 -24.5t-74 -11.5zM63 0v505h150v-505h-150z" />
    <glyph glyph-name="icircumflex" unicode="&#xee;" horiz-adv-x="276" 
d="M199 600l-61 73l-61 -73h-106v60l92 90h150l92 -90v-60h-106zM63 0v505h150v-505h-150z" />
    <glyph glyph-name="idieresis" unicode="&#xef;" horiz-adv-x="276" 
d="M-38 600v140h145v-140h-145zM167 600v140h146v-140h-146zM63 0v505h150v-505h-150z" />
    <glyph glyph-name="igrave" unicode="&#xec;" horiz-adv-x="277" 
d="M89 600l-97 90v60h143l77 -90v-60h-123zM63 0v505h150v-505h-150z" />
    <glyph glyph-name="imacron" unicode="&#x12b;" horiz-adv-x="276" 
d="M-5 610v116h286v-116h-286zM63 0v505h150v-505h-150z" />
    <glyph glyph-name="iogonek" unicode="&#x12f;" horiz-adv-x="278" 
d="M60 600v140h156v-140h-156zM19 -91q0 35 23 60t61 31h-39v505h150v-505h-5q-19 -4 -38 -14.5t-19 -39.5q0 -18 8 -28.5t19.5 -16t24 -7t21.5 -1.5v-85h-80q-19 1 -41.5 6.5t-41 16.5t-31 30t-12.5 48z" />
    <glyph glyph-name="itilde" unicode="&#x129;" horiz-adv-x="276" 
d="M216 599q-24 0 -40 5.5t-29 12t-25.5 12t-28.5 5.5q-13 0 -22 -8t-13 -22h-95q-4 60 24 98.5t82 38.5q24 0 39.5 -5.5t27.5 -11.5t23.5 -11.5t27.5 -5.5q11 0 21 6t13 23h95q4 -60 -20 -98.5t-80 -38.5zM64 0v505h150v-505h-150z" />
    <glyph glyph-name="j" unicode="j" horiz-adv-x="276" 
d="M60 600v140h156v-140h-156zM22 -260q-66 0 -105 26.5t-52 65.5v72h113q0 -7 8 -21.5t33 -14.5t34.5 16t9.5 53v568h150v-569q0 -89 -48 -142.5t-143 -53.5z" />
    <glyph glyph-name="k" unicode="k" horiz-adv-x="555" 
d="M64 0v750h151v-450l170 205h129v-67l-147 -174l167 -194v-70h-141l-178 218v-218h-151z" />
    <glyph glyph-name="uni0137" unicode="&#x137;" horiz-adv-x="555" 
d="M64 0v750h151v-450l170 205h129v-67l-147 -174l167 -194v-70h-141l-178 218v-218h-151zM225 -205l-5 153h156v-72l-55 -81h-96z" />
    <glyph glyph-name="l" unicode="l" horiz-adv-x="279" 
d="M64 0v750h151v-750h-151z" />
    <glyph glyph-name="lacute" unicode="&#x13a;" horiz-adv-x="279" 
d="M61 805v60l68 80h149v-60l-87 -80h-130zM64 0v750h151v-750h-151z" />
    <glyph glyph-name="uni013C" unicode="&#x13c;" horiz-adv-x="279" 
d="M64 0v750h151v-750h-151zM66 -205l-5 153h150v-72l-53 -81h-92z" />
    <glyph glyph-name="m" unicode="m" horiz-adv-x="868" 
d="M64 0v505h140l7 -64q16 28 49 53.5t84 25.5q55 0 90 -25t51 -62q19 31 55 59t95 28q47 0 80.5 -16.5t54 -44.5t30 -65.5t9.5 -79.5v-314h-150v295q0 40 -16 65t-56 25q-43 0 -60.5 -28.5t-17.5 -59.5v-297h-145v299q0 39 -17 62.5t-55 23.5q-43 0 -60.5 -30.5
t-17.5 -65.5v-289h-150z" />
    <glyph glyph-name="n" unicode="n" 
d="M64 0v505h141l7 -67q16 28 54 55t97 27q50 0 84.5 -17t56 -45t31 -65.5t9.5 -78.5v-314h-150v286q0 44 -19 71.5t-64 27.5q-54 0 -75 -32t-21 -69v-284h-151z" />
    <glyph glyph-name="nacute" unicode="&#x144;" 
d="M216 600v60l77 90h144v-60l-98 -90h-123zM64 0v505h141l7 -67q16 28 54 55t97 27q50 0 84.5 -17t56 -45t31 -65.5t9.5 -78.5v-314h-150v286q0 44 -19 71.5t-64 27.5q-54 0 -75 -32t-21 -69v-284h-151z" />
    <glyph glyph-name="ncaron" unicode="&#x148;" 
d="M362 600h-150l-94 90v60h106l63 -73l59 73h106v-60zM64 0v505h141l7 -67q16 28 54 55t97 27q50 0 84.5 -17t56 -45t31 -65.5t9.5 -78.5v-314h-150v286q0 44 -19 71.5t-64 27.5q-54 0 -75 -32t-21 -69v-284h-151z" />
    <glyph glyph-name="uni0146" unicode="&#x146;" 
d="M64 0v505h141l7 -67q16 28 54 55t97 27q50 0 84.5 -17t56 -45t31 -65.5t9.5 -78.5v-314h-150v286q0 44 -19 71.5t-64 27.5q-54 0 -75 -32t-21 -69v-284h-151zM229 -205l-5 153h156v-72l-55 -81h-96z" />
    <glyph glyph-name="nine" unicode="9" horiz-adv-x="618" 
d="M146 -10v68q9 11 23.5 28.5t30 35.5t29.5 34.5t21 25.5q19 22 37.5 43.5t31.5 38.5q-7 -3 -16 -5t-19 -2q-122 4 -190.5 74t-68.5 177q0 53 19 100t55 81.5t87.5 55t115.5 20.5q66 0 117.5 -20.5t87 -55.5t54 -82t18.5 -99q0 -87 -34 -160.5t-109 -169.5
q-7 -10 -27.5 -35t-44 -54t-46 -56.5t-34.5 -42.5h-138zM302 389q56 0 86 34t30 83q0 50 -30 84t-87 34q-55 0 -85.5 -34t-30.5 -83t30 -83.5t87 -34.5z" />
    <glyph glyph-name="ntilde" unicode="&#xf1;" 
d="M374 599q-24 0 -40 5.5t-29 12t-25.5 12t-28.5 5.5q-13 0 -22 -8t-13 -22h-95q-4 60 24 98.5t82 38.5q24 0 39.5 -5.5t27.5 -11.5t23.5 -11.5t27.5 -5.5q11 0 21 6t13 23h95q4 -60 -20 -98.5t-80 -38.5zM64 0v505h141l7 -67q16 28 54 55t97 27q50 0 84.5 -17t56 -45
t31 -65.5t9.5 -78.5v-314h-150v286q0 44 -19 71.5t-64 27.5q-54 0 -75 -32t-21 -69v-284h-151z" />
    <glyph glyph-name="o" unicode="o" horiz-adv-x="606" 
d="M303 -15q-63 0 -112.5 21.5t-84 57.5t-52.5 85.5t-18 104.5t18 103.5t52.5 84.5t84 57t112.5 21q62 0 112 -21t84 -57t52.5 -84.5t18.5 -103.5t-18.5 -104.5t-52.5 -85.5t-84 -57.5t-112 -21.5zM303 116q59 0 87.5 40.5t28.5 97.5q0 55 -28.5 95t-87.5 40t-87.5 -40
t-28.5 -95q0 -57 28.5 -97.5t87.5 -40.5z" />
    <glyph glyph-name="oacute" unicode="&#xf3;" horiz-adv-x="606" 
d="M231 600v60l77 90h144v-60l-98 -90h-123zM303 -15q-63 0 -112.5 21.5t-84 57.5t-52.5 85.5t-18 104.5t18 103.5t52.5 84.5t84 57t112.5 21q62 0 112 -21t84 -57t52.5 -84.5t18.5 -103.5t-18.5 -104.5t-52.5 -85.5t-84 -57.5t-112 -21.5zM303 116q59 0 87.5 40.5
t28.5 97.5q0 55 -28.5 95t-87.5 40t-87.5 -40t-28.5 -95q0 -57 28.5 -97.5t87.5 -40.5z" />
    <glyph glyph-name="obreve" unicode="&#x14f;" horiz-adv-x="606" 
d="M301 588q-46 0 -76 11.5t-47 24.5t-23.5 24.5l-6.5 11.5v75h80l3.5 -6.5t12 -14.5t22.5 -14.5t35 -6.5t34.5 6.5t21 14.5t10.5 14.5l3 6.5h80v-75l-6.5 -11.5t-23 -24.5t-45.5 -24.5t-74 -11.5zM303 -15q-63 0 -112.5 21.5t-84 57.5t-52.5 85.5t-18 104.5t18 103.5
t52.5 84.5t84 57t112.5 21q62 0 112 -21t84 -57t52.5 -84.5t18.5 -103.5t-18.5 -104.5t-52.5 -85.5t-84 -57.5t-112 -21.5zM303 116q59 0 87.5 40.5t28.5 97.5q0 55 -28.5 95t-87.5 40t-87.5 -40t-28.5 -95q0 -57 28.5 -97.5t87.5 -40.5z" />
    <glyph glyph-name="ocircumflex" unicode="&#xf4;" horiz-adv-x="606" 
d="M358 600l-61 73l-61 -73h-106v60l92 90h150l92 -90v-60h-106zM303 -15q-63 0 -112.5 21.5t-84 57.5t-52.5 85.5t-18 104.5t18 103.5t52.5 84.5t84 57t112.5 21q62 0 112 -21t84 -57t52.5 -84.5t18.5 -103.5t-18.5 -104.5t-52.5 -85.5t-84 -57.5t-112 -21.5zM303 116
q59 0 87.5 40.5t28.5 97.5q0 55 -28.5 95t-87.5 40t-87.5 -40t-28.5 -95q0 -57 28.5 -97.5t87.5 -40.5z" />
    <glyph glyph-name="odieresis" unicode="&#xf6;" horiz-adv-x="606" 
d="M129 600v140h145v-140h-145zM334 600v140h146v-140h-146zM303 -15q-63 0 -112.5 21.5t-84 57.5t-52.5 85.5t-18 104.5t18 103.5t52.5 84.5t84 57t112.5 21q62 0 112 -21t84 -57t52.5 -84.5t18.5 -103.5t-18.5 -104.5t-52.5 -85.5t-84 -57.5t-112 -21.5zM303 116
q59 0 87.5 40.5t28.5 97.5q0 55 -28.5 95t-87.5 40t-87.5 -40t-28.5 -95q0 -57 28.5 -97.5t87.5 -40.5z" />
    <glyph glyph-name="ograve" unicode="&#xf2;" horiz-adv-x="606" 
d="M242 600l-97 90v60h143l77 -90v-60h-123zM303 -15q-63 0 -112.5 21.5t-84 57.5t-52.5 85.5t-18 104.5t18 103.5t52.5 84.5t84 57t112.5 21q62 0 112 -21t84 -57t52.5 -84.5t18.5 -103.5t-18.5 -104.5t-52.5 -85.5t-84 -57.5t-112 -21.5zM303 116q59 0 87.5 40.5
t28.5 97.5q0 55 -28.5 95t-87.5 40t-87.5 -40t-28.5 -95q0 -57 28.5 -97.5t87.5 -40.5z" />
    <glyph glyph-name="ohungarumlaut" unicode="&#x151;" horiz-adv-x="606" 
d="M150 600v60l55 90h136l-13 -65l-63 -85h-115zM342 600v60l72 90h131v-60l-92 -90h-111zM303 -15q-63 0 -112.5 21.5t-84 57.5t-52.5 85.5t-18 104.5t18 103.5t52.5 84.5t84 57t112.5 21q62 0 112 -21t84 -57t52.5 -84.5t18.5 -103.5t-18.5 -104.5t-52.5 -85.5t-84 -57.5
t-112 -21.5zM303 116q59 0 87.5 40.5t28.5 97.5q0 55 -28.5 95t-87.5 40t-87.5 -40t-28.5 -95q0 -57 28.5 -97.5t87.5 -40.5z" />
    <glyph glyph-name="omacron" unicode="&#x14d;" horiz-adv-x="606" 
d="M163 610v116h286v-116h-286zM303 -15q-63 0 -112.5 21.5t-84 57.5t-52.5 85.5t-18 104.5t18 103.5t52.5 84.5t84 57t112.5 21q62 0 112 -21t84 -57t52.5 -84.5t18.5 -103.5t-18.5 -104.5t-52.5 -85.5t-84 -57.5t-112 -21.5zM303 116q59 0 87.5 40.5t28.5 97.5
q0 55 -28.5 95t-87.5 40t-87.5 -40t-28.5 -95q0 -57 28.5 -97.5t87.5 -40.5z" />
    <glyph glyph-name="one" unicode="1" horiz-adv-x="426" 
d="M175 0v577l-44 -37h-116v75l190 135h136v-750h-166z" />
    <glyph glyph-name="otilde" unicode="&#xf5;" horiz-adv-x="606" 
d="M379 599q-24 0 -40 5.5t-29 12t-25.5 12t-28.5 5.5q-13 0 -22 -8t-13 -22h-95q-4 60 24 98.5t82 38.5q24 0 39.5 -5.5t27.5 -11.5t23.5 -11.5t27.5 -5.5q11 0 21 6t13 23h95q4 -60 -20 -98.5t-80 -38.5zM303 -15q-63 0 -112.5 21.5t-84 57.5t-52.5 85.5t-18 104.5
t18 103.5t52.5 84.5t84 57t112.5 21q62 0 112 -21t84 -57t52.5 -84.5t18.5 -103.5t-18.5 -104.5t-52.5 -85.5t-84 -57.5t-112 -21.5zM303 116q59 0 87.5 40.5t28.5 97.5q0 55 -28.5 95t-87.5 40t-87.5 -40t-28.5 -95q0 -57 28.5 -97.5t87.5 -40.5z" />
    <glyph glyph-name="p" unicode="p" horiz-adv-x="642" 
d="M64 -250v755h141l7 -72q25 40 69 63.5t99 23.5q53 0 95 -21t71 -57t44 -84.5t15 -103.5q0 -56 -16 -105.5t-45 -85.5t-71 -57t-93 -21q-54 0 -96.5 22t-68.5 61v-318h-151zM334 121q59 0 89.5 38.5t30.5 94.5q0 54 -30.5 92t-89.5 38q-54 0 -86.5 -37.5t-32.5 -92.5
q0 -56 32.5 -94.5t86.5 -38.5z" />
    <glyph glyph-name="period" unicode="." horiz-adv-x="279" 
d="M59 0v161h161v-161h-161z" />
    <glyph glyph-name="q" unicode="q" horiz-adv-x="641" 
d="M428 -250v318q-27 -39 -69.5 -61t-96.5 -22q-52 0 -94 21t-71 57t-44.5 85t-15.5 104q0 56 16 105t45.5 85t71.5 57t95 21q54 0 96.5 -23.5t67.5 -63.5l9 72h140v-755h-150zM308 121q54 0 87 38.5t33 94.5q0 55 -33 92.5t-87 37.5q-58 0 -89 -38t-31 -92q0 -56 31 -94.5
t89 -38.5z" />
    <glyph glyph-name="question" unicode="?" horiz-adv-x="537" 
d="M178 241q-4 11 -6.5 23t-2.5 22q0 48 26.5 77t57.5 53.5t57.5 52.5t26.5 75q0 35 -22.5 57.5t-59.5 22.5q-28 0 -45.5 -12.5t-28 -28.5t-14.5 -33t-4 -26h-131v75q4 19 18 47t41.5 54.5t71 45.5t104.5 19q51 0 94.5 -14.5t74.5 -41t49 -64.5t18 -84q0 -68 -28 -109
t-61.5 -68.5t-61.5 -50t-28 -55.5q0 -11 3 -21t5 -16h-154zM177 0v161h161v-161h-161z" />
    <glyph glyph-name="r" unicode="r" horiz-adv-x="481" 
d="M64 0v505h141l7 -66q16 31 50 56t85 25q58 0 89.5 -30t37.5 -77v-72h-115l-2.5 7.5t-9 17t-19.5 17t-35 7.5q-40 0 -59 -31t-19 -77v-282h-151z" />
    <glyph glyph-name="racute" unicode="&#x155;" horiz-adv-x="481" 
d="M206 600v60l77 90h144v-60l-98 -90h-123zM64 0v505h141l7 -66q16 31 50 56t85 25q58 0 89.5 -30t37.5 -77v-72h-115l-2.5 7.5t-9 17t-19.5 17t-35 7.5q-40 0 -59 -31t-19 -77v-282h-151z" />
    <glyph glyph-name="rcaron" unicode="&#x159;" horiz-adv-x="481" 
d="M334 600h-150l-94 90v60h106l63 -73l59 73h106v-60zM64 0v505h141l7 -66q16 31 50 56t85 25q58 0 89.5 -30t37.5 -77v-72h-115l-2.5 7.5t-9 17t-19.5 17t-35 7.5q-40 0 -59 -31t-19 -77v-282h-151z" />
    <glyph glyph-name="uni0157" unicode="&#x157;" horiz-adv-x="481" 
d="M64 0v505h141l7 -66q16 31 50 56t85 25q58 0 89.5 -30t37.5 -77v-72h-115l-2.5 7.5t-9 17t-19.5 17t-35 7.5q-40 0 -59 -31t-19 -77v-282h-151zM71 -205l-5 153h150v-72l-53 -81h-92z" />
    <glyph glyph-name="s" unicode="s" horiz-adv-x="508" 
d="M258 -15q-51 0 -90.5 11t-66.5 26.5t-42.5 33t-19.5 29.5v68h113q1 -6 8.5 -15.5t20.5 -19t33 -16.5t46 -7q43 0 60.5 13.5t17.5 34.5q0 24 -20.5 35t-56.5 17l-64 8q-68 9 -109.5 45t-41.5 106q0 72 55 119t151 47q87 0 135 -28.5t64 -67.5v-68h-114q-1 4 -6 13
t-15.5 18t-27 16t-39.5 7q-36 0 -52 -13.5t-16 -34.5q0 -20 16.5 -32t47.5 -17l64 -9q72 -10 118 -43t46 -105q0 -75 -57 -123t-158 -48z" />
    <glyph glyph-name="sacute" unicode="&#x15b;" horiz-adv-x="508" 
d="M182 600v60l77 90h144v-60l-98 -90h-123zM258 -15q-51 0 -90.5 11t-66.5 26.5t-42.5 33t-19.5 29.5v68h113q1 -6 8.5 -15.5t20.5 -19t33 -16.5t46 -7q43 0 60.5 13.5t17.5 34.5q0 24 -20.5 35t-56.5 17l-64 8q-68 9 -109.5 45t-41.5 106q0 72 55 119t151 47
q87 0 135 -28.5t64 -67.5v-68h-114q-1 4 -6 13t-15.5 18t-27 16t-39.5 7q-36 0 -52 -13.5t-16 -34.5q0 -20 16.5 -32t47.5 -17l64 -9q72 -10 118 -43t46 -105q0 -75 -57 -123t-158 -48z" />
    <glyph glyph-name="scaron" unicode="&#x161;" horiz-adv-x="508" 
d="M330 600h-150l-94 90v60h106l63 -73l59 73h106v-60zM258 -15q-51 0 -90.5 11t-66.5 26.5t-42.5 33t-19.5 29.5v68h113q1 -6 8.5 -15.5t20.5 -19t33 -16.5t46 -7q43 0 60.5 13.5t17.5 34.5q0 24 -20.5 35t-56.5 17l-64 8q-68 9 -109.5 45t-41.5 106q0 72 55 119t151 47
q87 0 135 -28.5t64 -67.5v-68h-114q-1 4 -6 13t-15.5 18t-27 16t-39.5 7q-36 0 -52 -13.5t-16 -34.5q0 -20 16.5 -32t47.5 -17l64 -9q72 -10 118 -43t46 -105q0 -75 -57 -123t-158 -48z" />
    <glyph glyph-name="scedilla" unicode="&#x15f;" horiz-adv-x="508" 
d="M398 -122q0 -29 -11.5 -47.5t-29.5 -30t-40 -16.5t-43 -7h-85v80q28 0 48 7t20 29q0 21 -20.5 28t-43.5 7v62q-71 13 -109 44t-45 51v68h113q1 -6 8.5 -15.5t20.5 -19t33 -16.5t46 -7q43 0 60.5 13.5t17.5 34.5q0 24 -20.5 35t-56.5 17l-64 8q-68 9 -109.5 45t-41.5 106
q0 72 55 119t151 47q87 0 135 -28.5t64 -67.5v-68h-114q-1 4 -6 13t-15.5 18t-27 16t-39.5 7q-36 0 -52 -13.5t-16 -34.5q0 -20 16.5 -32t47.5 -17l64 -9q72 -10 118 -43t46 -105q0 -63 -42 -108.5t-117 -58.5v-28q37 -6 60.5 -27.5t23.5 -55.5z" />
    <glyph glyph-name="scircumflex" unicode="&#x15d;" horiz-adv-x="508" 
d="M319 600l-61 73l-61 -73h-106v60l92 90h150l92 -90v-60h-106zM258 -15q-51 0 -90.5 11t-66.5 26.5t-42.5 33t-19.5 29.5v68h113q1 -6 8.5 -15.5t20.5 -19t33 -16.5t46 -7q43 0 60.5 13.5t17.5 34.5q0 24 -20.5 35t-56.5 17l-64 8q-68 9 -109.5 45t-41.5 106q0 72 55 119
t151 47q87 0 135 -28.5t64 -67.5v-68h-114q-1 4 -6 13t-15.5 18t-27 16t-39.5 7q-36 0 -52 -13.5t-16 -34.5q0 -20 16.5 -32t47.5 -17l64 -9q72 -10 118 -43t46 -105q0 -75 -57 -123t-158 -48z" />
    <glyph glyph-name="uni0219" unicode="&#x219;" horiz-adv-x="508" 
d="M258 -15q-51 0 -90.5 11t-66.5 26.5t-42.5 33t-19.5 29.5v68h113q1 -6 8.5 -15.5t20.5 -19t33 -16.5t46 -7q43 0 60.5 13.5t17.5 34.5q0 24 -20.5 35t-56.5 17l-64 8q-68 9 -109.5 45t-41.5 106q0 72 55 119t151 47q87 0 135 -28.5t64 -67.5v-68h-114q-1 4 -6 13
t-15.5 18t-27 16t-39.5 7q-36 0 -52 -13.5t-16 -34.5q0 -20 16.5 -32t47.5 -17l64 -9q72 -10 118 -43t46 -105q0 -75 -57 -123t-158 -48zM190 -205l-5 153h156v-72l-55 -81h-96z" />
    <glyph glyph-name="semicolon" unicode=";" horiz-adv-x="279" 
d="M59 344v161h161v-161h-161zM59 -161v322h161v-151l-61 -171h-100z" />
    <glyph glyph-name="seven" unicode="7" horiz-adv-x="513" 
d="M99 -10v75q44 113 100.5 251.5t120.5 287.5h-295v146h464v-136q-33 -77 -66.5 -159t-65 -162t-61.5 -157.5t-56 -145.5h-141z" />
    <glyph glyph-name="six" unicode="6" horiz-adv-x="619" 
d="M316 -13q-66 0 -117.5 20.5t-87 55.5t-54 82t-18.5 99q0 46 9.5 87.5t30.5 83.5t54.5 89.5t80.5 105.5l123 150h137v-68l-75 -89q-30 -36 -57 -66t-46 -52q9 4 20.5 7t25.5 3q59 -2 106 -21t79 -51.5t49.5 -77.5t17.5 -97q0 -54 -19.5 -102t-55 -83t-87.5 -55.5
t-116 -20.5zM317 128q55 0 85.5 34t30.5 83t-30 83.5t-87 34.5q-56 0 -86 -34.5t-30 -83.5t30 -83t87 -34z" />
    <glyph glyph-name="space" unicode=" " horiz-adv-x="232" 
 />
    <glyph glyph-name="t" unicode="t" horiz-adv-x="475" 
d="M292 -15q-93 0 -144 52t-51 142v203h-75v123h77l8 128h141v-128h200v-123h-200v-198q0 -38 13.5 -56t42.5 -18q30 0 39 15.5t9 23.5h108v-68q-16 -40 -56.5 -68t-111.5 -28z" />
    <glyph glyph-name="uni0163" unicode="&#x163;" horiz-adv-x="475" 
d="M292 -15q-93 0 -144 52t-51 142v203h-75v123h77l8 128h141v-128h200v-123h-200v-198q0 -38 13.5 -56t42.5 -18q30 0 39 15.5t9 23.5h108v-68q-16 -40 -56.5 -68t-111.5 -28zM219 -205l-5 153h156v-72l-55 -81h-96z" />
    <glyph glyph-name="three" unicode="3" horiz-adv-x="616" 
d="M304 -13q-63 0 -110.5 19t-79.5 46.5t-50 57.5t-22 51v75h131q3 -9 10.5 -27t22.5 -35.5t38.5 -31t57.5 -13.5q51 0 78 28.5t27 69.5q0 42 -27.5 67.5t-89.5 25.5h-82v126h70q51 0 76.5 26t25.5 66t-25 63t-65 23q-29 0 -49 -11.5t-31.5 -27t-17.5 -31.5t-7 -25h-128v75
q4 19 19 46.5t43.5 53t72.5 43.5t106 18q54 0 100 -14.5t78.5 -41t51 -63.5t18.5 -83q0 -58 -29.5 -103t-81.5 -65q63 -15 100.5 -61.5t37.5 -114.5q0 -102 -73.5 -167t-195.5 -65z" />
    <glyph glyph-name="two" unicode="2" horiz-adv-x="587" 
d="M542 0h-492v136l220 224q40 40 66 84.5t26 92.5q0 43 -25 65t-60 22q-28 0 -47 -12.5t-30.5 -28.5t-16.5 -33t-6 -26h-131v75q4 19 18.5 47t43 54.5t73 45.5t107.5 19q52 0 96 -14.5t75.5 -41.5t49.5 -65.5t18 -85.5q0 -42 -8.5 -76t-26.5 -66t-45 -64.5t-64 -71.5
l-120 -129h279v-151z" />
    <glyph glyph-name="u" unicode="u" horiz-adv-x="599" 
d="M241 -15q-50 0 -85 17t-56.5 45t-31 65.5t-9.5 78.5v314h151v-286q0 -44 18.5 -71.5t61.5 -27.5q53 0 73.5 32t20.5 69v284h151v-505h-141l-7 67q-16 -28 -52.5 -55t-93.5 -27z" />
    <glyph glyph-name="uacute" unicode="&#xfa;" horiz-adv-x="599" 
d="M232 600v60l77 90h144v-60l-98 -90h-123zM241 -15q-50 0 -85 17t-56.5 45t-31 65.5t-9.5 78.5v314h151v-286q0 -44 18.5 -71.5t61.5 -27.5q53 0 73.5 32t20.5 69v284h151v-505h-141l-7 67q-16 -28 -52.5 -55t-93.5 -27z" />
    <glyph glyph-name="ubreve" unicode="&#x16d;" horiz-adv-x="599" 
d="M296 588q-46 0 -76 11.5t-47 24.5t-23.5 24.5l-6.5 11.5v75h80l3.5 -6.5t12 -14.5t22.5 -14.5t35 -6.5t34.5 6.5t21 14.5t10.5 14.5l3 6.5h80v-75l-6.5 -11.5t-23 -24.5t-45.5 -24.5t-74 -11.5zM241 -15q-50 0 -85 17t-56.5 45t-31 65.5t-9.5 78.5v314h151v-286
q0 -44 18.5 -71.5t61.5 -27.5q53 0 73.5 32t20.5 69v284h151v-505h-141l-7 67q-16 -28 -52.5 -55t-93.5 -27z" />
    <glyph glyph-name="ucircumflex" unicode="&#xfb;" horiz-adv-x="599" 
d="M356 600l-61 73l-61 -73h-106v60l92 90h150l92 -90v-60h-106zM241 -15q-50 0 -85 17t-56.5 45t-31 65.5t-9.5 78.5v314h151v-286q0 -44 18.5 -71.5t61.5 -27.5q53 0 73.5 32t20.5 69v284h151v-505h-141l-7 67q-16 -28 -52.5 -55t-93.5 -27z" />
    <glyph glyph-name="udieresis" unicode="&#xfc;" horiz-adv-x="599" 
d="M121 600v140h145v-140h-145zM326 600v140h146v-140h-146zM241 -15q-50 0 -85 17t-56.5 45t-31 65.5t-9.5 78.5v314h151v-286q0 -44 18.5 -71.5t61.5 -27.5q53 0 73.5 32t20.5 69v284h151v-505h-141l-7 67q-16 -28 -52.5 -55t-93.5 -27z" />
    <glyph glyph-name="ugrave" unicode="&#xf9;" horiz-adv-x="599" 
d="M233 600l-97 90v60h143l77 -90v-60h-123zM241 -15q-50 0 -85 17t-56.5 45t-31 65.5t-9.5 78.5v314h151v-286q0 -44 18.5 -71.5t61.5 -27.5q53 0 73.5 32t20.5 69v284h151v-505h-141l-7 67q-16 -28 -52.5 -55t-93.5 -27z" />
    <glyph glyph-name="uhungarumlaut" unicode="&#x171;" horiz-adv-x="599" 
d="M147 600v60l55 90h136l-13 -65l-63 -85h-115zM339 600v60l72 90h131v-60l-92 -90h-111zM241 -15q-50 0 -85 17t-56.5 45t-31 65.5t-9.5 78.5v314h151v-286q0 -44 18.5 -71.5t61.5 -27.5q53 0 73.5 32t20.5 69v284h151v-505h-141l-7 67q-16 -28 -52.5 -55t-93.5 -27z" />
    <glyph glyph-name="umacron" unicode="&#x16b;" horiz-adv-x="599" 
d="M154 610v116h286v-116h-286zM241 -15q-50 0 -85 17t-56.5 45t-31 65.5t-9.5 78.5v314h151v-286q0 -44 18.5 -71.5t61.5 -27.5q53 0 73.5 32t20.5 69v284h151v-505h-141l-7 67q-16 -28 -52.5 -55t-93.5 -27z" />
    <glyph glyph-name="uni00A0" unicode="&#xa0;" horiz-adv-x="232" 
 />
    <glyph glyph-name="uogonek" unicode="&#x173;" horiz-adv-x="599" 
d="M345 -91q0 35 23 60t61 31h-35l-7 67q-16 -28 -52.5 -55t-93.5 -27q-50 0 -85 17t-56.5 45t-31 65.5t-9.5 78.5v314h151v-286q0 -44 18.5 -71.5t61.5 -27.5q53 0 73.5 32t20.5 69v284h151v-505q-19 -4 -38 -14.5t-19 -39.5q0 -18 8 -28.5t19.5 -16t24 -7t21.5 -1.5v-85
h-80q-19 1 -41.5 6.5t-41 16.5t-31 30t-12.5 48z" />
    <glyph glyph-name="uring" unicode="&#x16f;" horiz-adv-x="599" 
d="M295 567q-68 0 -100.5 28t-32.5 68t32.5 68t100.5 28t101 -28t33 -68t-33 -68t-101 -28zM295 633q14 0 24.5 8t10.5 22t-10.5 22t-24.5 8q-13 0 -24 -8t-11 -22t11 -22t24 -8zM241 -15q-50 0 -85 17t-56.5 45t-31 65.5t-9.5 78.5v314h151v-286q0 -44 18.5 -71.5
t61.5 -27.5q53 0 73.5 32t20.5 69v284h151v-505h-141l-7 67q-16 -28 -52.5 -55t-93.5 -27z" />
    <glyph glyph-name="utilde" unicode="&#x169;" horiz-adv-x="599" 
d="M377 599q-24 0 -40 5.5t-29 12t-25.5 12t-28.5 5.5q-13 0 -22 -8t-13 -22h-95q-4 60 24 98.5t82 38.5q24 0 39.5 -5.5t27.5 -11.5t23.5 -11.5t27.5 -5.5q11 0 21 6t13 23h95q4 -60 -20 -98.5t-80 -38.5zM241 -15q-50 0 -85 17t-56.5 45t-31 65.5t-9.5 78.5v314h151v-286
q0 -44 18.5 -71.5t61.5 -27.5q53 0 73.5 32t20.5 69v284h151v-505h-141l-7 67q-16 -28 -52.5 -55t-93.5 -27z" />
    <glyph glyph-name="v" unicode="v" horiz-adv-x="550" 
d="M343 0h-136l-188 435v70h136l126 -307l124 307h128v-67z" />
    <glyph glyph-name="w" unicode="w" horiz-adv-x="800" 
d="M488 0l-92 291l-86 -291h-136l-151 435v70h136l93 -301l91 301h124l94 -300l90 300h128v-67l-155 -438h-136z" />
    <glyph glyph-name="wacute" unicode="&#x1e83;" horiz-adv-x="800" 
d="M349 600v60l77 90h144v-60l-98 -90h-123zM488 0l-92 291l-86 -291h-136l-151 435v70h136l93 -301l91 301h124l94 -300l90 300h128v-67l-155 -438h-136z" />
    <glyph glyph-name="wcircumflex" unicode="&#x175;" horiz-adv-x="800" 
d="M469 600l-61 73l-61 -73h-106v60l92 90h150l92 -90v-60h-106zM488 0l-92 291l-86 -291h-136l-151 435v70h136l93 -301l91 301h124l94 -300l90 300h128v-67l-155 -438h-136z" />
    <glyph glyph-name="wdieresis" unicode="&#x1e85;" horiz-adv-x="800" 
d="M231 600v140h145v-140h-145zM436 600v140h146v-140h-146zM488 0l-92 291l-86 -291h-136l-151 435v70h136l93 -301l91 301h124l94 -300l90 300h128v-67l-155 -438h-136z" />
    <glyph glyph-name="wgrave" unicode="&#x1e81;" horiz-adv-x="800" 
d="M347 600l-97 90v60h143l77 -90v-60h-123zM488 0l-92 291l-86 -291h-136l-151 435v70h136l93 -301l91 301h124l94 -300l90 300h128v-67l-155 -438h-136z" />
    <glyph glyph-name="x" unicode="x" horiz-adv-x="559" 
d="M31 0v68l158 189l-155 178v70h138l114 -146l113 146h126v-67l-156 -183l159 -185v-70h-138l-118 151l-115 -151h-126z" />
    <glyph glyph-name="y" unicode="y" horiz-adv-x="556" 
d="M204 -250h-128v70l126 226l-182 389v70h136l129 -296l134 296h125v-67z" />
    <glyph glyph-name="yacute" unicode="&#xfd;" horiz-adv-x="556" 
d="M226 600v60l77 90h144v-60l-98 -90h-123zM204 -250h-128v70l126 226l-182 389v70h136l129 -296l134 296h125v-67z" />
    <glyph glyph-name="ycircumflex" unicode="&#x177;" horiz-adv-x="556" 
d="M349 600l-61 73l-61 -73h-106v60l92 90h150l92 -90v-60h-106zM204 -250h-128v70l126 226l-182 389v70h136l129 -296l134 296h125v-67z" />
    <glyph glyph-name="ydieresis" unicode="&#xff;" horiz-adv-x="556" 
d="M110 600v140h145v-140h-145zM315 600v140h146v-140h-146zM204 -250h-128v70l126 226l-182 389v70h136l129 -296l134 296h125v-67z" />
    <glyph glyph-name="ygrave" unicode="&#x1ef3;" horiz-adv-x="556" 
d="M224 600l-97 90v60h143l77 -90v-60h-123zM204 -250h-128v70l126 226l-182 389v70h136l129 -296l134 296h125v-67z" />
    <glyph glyph-name="z" unicode="z" horiz-adv-x="503" 
d="M462 0h-421v113l236 269h-231v123h411v-113l-236 -269h241v-123z" />
    <glyph glyph-name="zacute" unicode="&#x17a;" horiz-adv-x="503" 
d="M186 600v60l77 90h144v-60l-98 -90h-123zM462 0h-421v113l236 269h-231v123h411v-113l-236 -269h241v-123z" />
    <glyph glyph-name="zcaron" unicode="&#x17e;" horiz-adv-x="503" 
d="M332 600h-150l-94 90v60h106l63 -73l59 73h106v-60zM462 0h-421v113l236 269h-231v123h411v-113l-236 -269h241v-123z" />
    <glyph glyph-name="zdotaccent" unicode="&#x17c;" horiz-adv-x="503" 
d="M180 600v140h156v-140h-156zM462 0h-421v113l236 269h-231v123h411v-113l-236 -269h241v-123z" />
    <glyph glyph-name="zero" unicode="0" horiz-adv-x="672" 
d="M336 -15q-67 0 -119.5 22t-88.5 59.5t-55 89t-19 108.5v222q0 58 19.5 109t55.5 88.5t88.5 59.5t118.5 22q67 0 119.5 -21.5t88.5 -59.5t55 -89t19 -109v-222q0 -57 -19.5 -108.5t-55.5 -89t-88.5 -59.5t-118.5 -22zM336 126q58 0 90 40.5t32 97.5v222q0 57 -31 97.5
t-91 40.5q-58 0 -89.5 -40.5t-31.5 -97.5v-222q0 -57 30.5 -97.5t90.5 -40.5z" />
    </font>
</defs>
</svg>
