<svg width="500" height="500" viewBox="0 0 500 500" xmlns="http://www.w3.org/2000/svg" xmlns:xlink="http://www.w3.org/1999/xlink"><title>Artboard</title><defs><path d="M170.589 205.26h137.607c6.998 0 13.494-3.666 17.274-9.72l68.39-110.12c6.1-9.806 3.301-22.838-6.233-29.113-9.546-6.251-22.214-3.384-28.303 6.41l-62.36 100.386H160.327l-75.95-146.16C80.812 10.089 73.861 5.806 66.301 5.806H21.814c-11.317 0-20.492 9.439-20.492 21.08 0 11.64 9.175 21.078 20.492 21.078h32.215l75.95 146.148c.04.08.082.158.124.236l-34.887 72.278a21.594 21.594 0 0 0 .933 20.476c3.744 6.202 10.323 9.98 17.417 9.98h215.038c11.317 0 20.492-9.439 20.492-21.08 0-11.64-9.175-21.078-20.492-21.078H146.618l23.97-49.663z" id="b"/><filter x="-.9%" y="-.9%" width="101.8%" height="102.4%" filterUnits="objectBoundingBox" id="a"><feOffset dy="1" in="SourceAlpha" result="shadowOffsetOuter1"/><feGaussianBlur stdDeviation="1" in="shadowOffsetOuter1" result="shadowBlurOuter1"/><feColorMatrix values="0 0 0 0 0.361459631 0 0 0 0 0.776387117 0 0 0 0 0.121402389 0 0 0 0.227185236 0" in="shadowBlurOuter1"/></filter><filter x="-.6%" y="-.5%" width="101.3%" height="101.7%" filterUnits="objectBoundingBox" id="c"><feOffset dy="-1" in="SourceAlpha" result="shadowOffsetInner1"/><feComposite in="shadowOffsetInner1" in2="SourceAlpha" operator="arithmetic" k2="-1" k3="1" result="shadowInnerInner1"/><feColorMatrix values="0 0 0 0 0.309803922 0 0 0 0 0.619607843 0 0 0 0 0.0980392157 0 0 0 1 0" in="shadowInnerInner1"/></filter></defs><g fill="none" fill-rule="evenodd"><g transform="translate(46 90.468)"><use fill="#000" filter="url(#a)" xlink:href="#b"/><use fill="#72B843" xlink:href="#b"/><use fill="#000" filter="url(#c)" xlink:href="#b"/></g><path d="M275.776 168.8c-24.267 0-43.996-20.306-43.996-45.27 0-24.95 19.729-45.255 43.996-45.255 24.268 0 44.008 20.305 44.008 45.256 0 24.963-19.74 45.268-44.008 45.268zm95.919-51.172c-.524-9.027-2.188-17.719-4.912-25.944l-5.365-.06-2.759-7.004 3.748-3.831a99.45 99.45 0 0 0-15.213-23.323l-4.737 1.988-5.19-5.34 1.92-4.813a96.455 96.455 0 0 0-21.544-14.714l-3.492 3.508-6.763-2.958.024-4.944a92.968 92.968 0 0 0-27.015-5.364l-1.757 4.31h-7.345l-1.722-4.226a92.867 92.867 0 0 0-25.583 5.34l-.059 4.358-6.797 2.837-2.91-3.017c-8.438 4.178-16.178 9.578-23.034 15.983l1.478 3.7-5.19 5.34-3.539-1.485a99.21 99.21 0 0 0-14.642 22.52l2.596 2.742-2.864 6.956-3.701-.012c-3.096 8.872-4.982 18.306-5.482 28.148l3.34 1.436v7.555l-3.34 1.449c.465 9.279 2.153 18.21 4.958 26.65l3.713.049 2.759 7.004-2.642 2.693a99.409 99.409 0 0 0 15.305 23.958l3.538-1.497 5.191 5.34-1.466 3.7c6.471 6.057 13.723 11.218 21.626 15.288l2.956-2.957 6.75 2.945-.01 4.334a93.16 93.16 0 0 0 27.049 5.903l1.722-4.226h7.345l1.757 4.31c8.88-.443 17.447-2.06 25.536-4.813l.07-4.98 6.798-2.826 3.433 3.555c8.38-4.01 16.086-9.218 22.941-15.42l-1.909-4.813 5.191-5.34 4.726 2a100.017 100.017 0 0 0 14.549-21.874l-3.69-3.892 2.863-6.956 5.331.012c3.026-8.668 4.9-17.875 5.459-27.465l-4.947-2.13v-7.556l4.947-2.13z" fill="#292928"/><path d="M275.765 66.972c-30.332 0-54.996 25.37-54.996 56.57 0 31.19 24.664 56.571 54.996 56.571 30.32 0 55.007-25.382 55.007-56.57 0-31.2-24.687-56.57-55.007-56.57zm0 115.189c-31.426 0-56.986-26.292-56.986-58.618s25.56-58.63 56.986-58.63c31.425 0 56.985 26.304 56.985 58.63 0 32.326-25.56 58.618-56.985 58.618z" fill="#787978"/><path d="M170.898 437.48c0-9.155 7.424-16.583 16.58-16.583 9.16 0 16.583 7.428 16.583 16.583 0 9.16-7.424 16.583-16.584 16.583-9.155 0-16.579-7.424-16.579-16.583zm-22.898 0c0 21.807 17.674 39.48 39.477 39.48 21.809 0 39.482-17.673 39.482-39.48 0-21.802-17.673-39.48-39.482-39.48C165.674 398 148 415.678 148 437.48zm181.898 0c0-9.155 7.424-16.583 16.58-16.583 9.16 0 16.583 7.428 16.583 16.583 0 9.16-7.424 16.583-16.584 16.583-9.155 0-16.579-7.424-16.579-16.583zm-22.898 0c0 21.807 17.674 39.48 39.477 39.48 21.809 0 39.482-17.673 39.482-39.48 0-21.802-17.673-39.48-39.482-39.48C324.674 398 307 415.678 307 437.48z" fill="#1A1919"/></g></svg>