<svg width="44" height="43" viewBox="0 0 44 43" xmlns="http://www.w3.org/2000/svg"><g fill="#FFF" fill-rule="evenodd"><path d="M9.913 18.679l-2.36-6.834a1.84 1.84 0 0 1 .455-1.916 1.922 1.922 0 0 1 1.951-.447l6.959 2.317 5.889-4.315a1.925 1.925 0 0 1 1.995-.167A1.86 1.86 0 0 1 25.838 9l-.094 7.215 6 4.167c.589.41.89 1.112.778 1.812a1.874 1.874 0 0 1-1.31 1.488l-4.97 1.517L38.567 36.66c.808.751.82 1.986.031 2.756l.834-.813c-.79.771-2.099.793-2.922.048L24.558 27.835l-2.545 4.88a1.887 1.887 0 0 1-1.812 1.31c-.609 0-1.19-.288-1.548-.786l-4.243-5.892-7.347.092a1.91 1.91 0 0 1-1.715-1.017 1.836 1.836 0 0 1 .17-1.96l4.395-5.783zm6.875 7.263l3.394 4.713c1.89-5.97 1.79-5.952 2.358-6.51.609-.598.7-.506 6.628-2.316l-4.798-3.332a2.42 2.42 0 0 1-1.047-2.017l.075-5.771-4.71 3.451a2.514 2.514 0 0 1-2.276.354l-5.566-1.853 1.887 5.466a2.396 2.396 0 0 1-.36 2.236l-3.515 4.625 5.877-.073a2.487 2.487 0 0 1 2.053 1.027z"/><path d="M37.367 7.49l1.514-2.72 1.514 2.72 2.77 1.487-2.77 1.487-1.514 2.72-1.514-2.72-2.77-1.487z"><animate attributeName="opacity" values="0;1;0" dur=".6s" begin=".1s" repeatCount="indefinite"/></path><path d="M22.877 37.804l1.225-2.2 1.224 2.2 2.24 1.203-2.24 1.203-1.224 2.2-1.225-2.2-2.24-1.203z"><animate attributeName="opacity" values="0;1;0" dur=".6s" begin=".2s" repeatCount="indefinite"/></path><path d="M14.154 2.2L15.379 0l1.225 2.2 2.24 1.203-2.24 1.203-1.225 2.199-1.225-2.2-2.24-1.202z"><animate attributeName="opacity" values="0;1;0" dur=".6s" begin=".3s" repeatCount="indefinite"/></path><path d="M1.402 15.866l.733-1.317.733 1.317 1.34.72-1.34.72-.733 1.316-.733-1.316-1.34-.72z"><animate attributeName="opacity" values="0;1;0" dur=".6s" begin=".4s" repeatCount="indefinite"/></path><path d="M1.176 32.743l3.032.873 3.033-.873-.889 2.978.889 2.978-3.033-.872-3.032.872.888-2.978z"><animate attributeName="opacity" values="0;1;0" dur=".6s" begin=".5s" repeatCount="indefinite"/></path></g></svg>