<svg width="134" height="24" viewBox="0 0 134 24" xmlns="http://www.w3.org/2000/svg"><title>logo</title><g fill="none" fill-rule="evenodd"><path d="M12.04 15.592h.048V2.008h2.376V19h-3L2.488 5.128H2.44V19H.064V2.008H3.16l8.88 13.584zm14.76-3.288a4.29 4.29 0 0 0-.228-1.26 2.893 2.893 0 0 0-.6-1.02 2.82 2.82 0 0 0-.984-.684c-.392-.168-.852-.252-1.38-.252a3.647 3.647 0 0 0-2.46.936 3.603 3.603 0 0 0-.768 1.02c-.2.392-.316.812-.348 1.26H26.8zm2.28.912v.384c0 .128-.008.256-.024.384h-9.024c.016.48.124.932.324 1.356.2.424.468.792.804 1.104a3.745 3.745 0 0 0 2.568.996c.768 0 1.432-.168 1.992-.504.56-.336 1-.744 1.32-1.224l1.584 1.272c-.608.8-1.324 1.388-2.148 1.764-.824.376-1.74.564-2.748.564a6.53 6.53 0 0 1-2.4-.432 5.545 5.545 0 0 1-1.896-1.212 5.618 5.618 0 0 1-1.248-1.884c-.304-.736-.456-1.552-.456-2.448 0-.88.148-1.692.444-2.436a5.576 5.576 0 0 1 1.236-1.908 5.658 5.658 0 0 1 1.872-1.236 6.062 6.062 0 0 1 2.328-.444c.832 0 1.588.136 2.268.408.68.272 1.256.664 1.728 1.176a5.297 5.297 0 0 1 1.092 1.86c.256.728.384 1.548.384 2.46zm3.984-5.592l2.568 8.688h.048l2.712-8.688h2.376l2.76 8.688h.048l2.568-8.688h2.376L44.752 19H42.4l-2.808-8.544h-.048L36.76 19h-2.352L30.616 7.624h2.448zM83.272 19h-2.376V2.008h10.608v2.088h-8.232v5.28h7.704v2.04h-7.704V19zm13.44 0h-2.256V.856h2.256V19zm15.456-5.712c0 .88-.156 1.688-.468 2.424a5.762 5.762 0 0 1-1.296 1.908 5.848 5.848 0 0 1-1.956 1.248 6.558 6.558 0 0 1-2.424.444 6.558 6.558 0 0 1-2.424-.444 5.717 5.717 0 0 1-1.944-1.248 5.853 5.853 0 0 1-1.284-1.908c-.312-.736-.468-1.544-.468-2.424 0-.88.156-1.684.468-2.412a5.75 5.75 0 0 1 1.284-1.884 5.811 5.811 0 0 1 1.944-1.236 6.558 6.558 0 0 1 2.424-.444c.864 0 1.672.148 2.424.444a5.946 5.946 0 0 1 1.956 1.236 5.66 5.66 0 0 1 1.296 1.884c.312.728.468 1.532.468 2.412zm-2.352 0a4.83 4.83 0 0 0-.252-1.56 3.95 3.95 0 0 0-.732-1.308 3.516 3.516 0 0 0-1.188-.9c-.472-.224-1.012-.336-1.62-.336-.608 0-1.148.112-1.62.336a3.516 3.516 0 0 0-1.188.9 3.95 3.95 0 0 0-.732 1.308 4.83 4.83 0 0 0-.252 1.56c0 .544.084 1.064.252 1.56.168.496.412.936.732 1.32s.716.688 1.188.912c.472.224 1.012.336 1.62.336.608 0 1.148-.112 1.62-.336a3.447 3.447 0 0 0 1.188-.912 4.09 4.09 0 0 0 .732-1.32 4.83 4.83 0 0 0 .252-1.56zm5.472-3.216c0-.304-.008-.696-.024-1.176a24.16 24.16 0 0 0-.072-1.272h2.136c.032.288.056.62.072.996.016.376.024.684.024.924h.072a3.937 3.937 0 0 1 1.404-1.62 3.676 3.676 0 0 1 2.076-.612c.352 0 .648.032.888.096l-.096 2.088c-.32-.08-.664-.12-1.032-.12-.544 0-1.016.1-1.416.3-.4.2-.732.468-.996.804a3.4 3.4 0 0 0-.588 1.164c-.128.44-.192.9-.192 1.38V19h-2.256v-8.928zm15.768 1.56c0-.848-.256-1.476-.768-1.884-.512-.408-1.192-.612-2.04-.612-.64 0-1.244.124-1.812.372a4.588 4.588 0 0 0-1.428.948l-1.2-1.44c.56-.528 1.244-.944 2.052-1.248a7.334 7.334 0 0 1 2.604-.456c.816 0 1.524.116 2.124.348.6.232 1.092.548 1.476.948.384.4.672.872.864 1.416.192.544.288 1.128.288 1.752v4.968c0 .384.012.788.036 1.212.024.424.068.772.132 1.044h-2.04a7.104 7.104 0 0 1-.192-1.632h-.072a4.369 4.369 0 0 1-1.572 1.416c-.632.336-1.38.504-2.244.504-.448 0-.916-.06-1.404-.18a4.08 4.08 0 0 1-1.332-.588 3.32 3.32 0 0 1-.996-1.08c-.264-.448-.396-1-.396-1.656 0-.864.232-1.548.696-2.052.464-.504 1.072-.888 1.824-1.152.752-.264 1.6-.436 2.544-.516.944-.08 1.896-.12 2.856-.12v-.312zm-.552 1.944c-.56 0-1.14.024-1.74.072-.6.048-1.144.144-1.632.288s-.892.36-1.212.648c-.32.288-.48.672-.48 1.152 0 .336.068.616.204.84.136.224.316.408.54.552.224.144.472.244.744.3.272.056.552.084.84.084 1.056 0 1.868-.316 2.436-.948.568-.632.852-1.428.852-2.388v-.6h-.552z" fill="#000"/><path fill="#FF5E17" d="M67.392 16.154l-2.459 7.45-4.417-6.483-7.845-.037 4.8-6.205-2.389-7.472 7.385 2.649 6.368-4.582-.237 7.842 6.325 4.64z"/></g></svg>