<svg width="122" height="22" viewBox="0 0 122 22" xmlns="http://www.w3.org/2000/svg"><path d="M2.44 19H.064V2.008h10.608v2.088H2.44v5.28h7.704v2.04H2.44V19zm13.44 0h-2.256V.856h2.256V19zm15.456-5.712c0 .88-.156 1.688-.468 2.424a5.762 5.762 0 0 1-1.296 1.908 5.848 5.848 0 0 1-1.956 1.248 6.558 6.558 0 0 1-2.424.444 6.558 6.558 0 0 1-2.424-.444 5.717 5.717 0 0 1-1.944-1.248 5.853 5.853 0 0 1-1.284-1.908c-.312-.736-.468-1.544-.468-2.424 0-.88.156-1.684.468-2.412a5.75 5.75 0 0 1 1.284-1.884 5.811 5.811 0 0 1 1.944-1.236 6.558 6.558 0 0 1 2.424-.444c.864 0 1.672.148 2.424.444a5.946 5.946 0 0 1 1.956 1.236 5.66 5.66 0 0 1 1.296 1.884c.312.728.468 1.532.468 2.412zm-2.352 0a4.83 4.83 0 0 0-.252-1.56A3.95 3.95 0 0 0 28 10.42a3.516 3.516 0 0 0-1.188-.9c-.472-.224-1.012-.336-1.62-.336-.608 0-1.148.112-1.62.336a3.516 3.516 0 0 0-1.188.9 3.95 3.95 0 0 0-.732 1.308 4.83 4.83 0 0 0-.252 1.56c0 .544.084 1.064.252 1.56.168.496.412.936.732 1.32s.716.688 1.188.912c.472.224 1.012.336 1.62.336.608 0 1.148-.112 1.62-.336A3.447 3.447 0 0 0 28 16.168a4.09 4.09 0 0 0 .732-1.32 4.83 4.83 0 0 0 .252-1.56zM61.44 19h-2.376V2.008h5.448c.816 0 1.592.084 2.328.252.736.168 1.38.436 1.932.804.552.368.988.852 1.308 1.452.32.6.48 1.332.48 2.196 0 1.248-.384 2.256-1.152 3.024-.768.768-1.76 1.256-2.976 1.464l4.752 7.8h-2.88l-4.32-7.56H61.44V19zm0-9.552h2.736c.56 0 1.08-.048 1.56-.144.48-.096.9-.252 1.26-.468.36-.216.644-.496.852-.84.208-.344.312-.772.312-1.284s-.104-.94-.312-1.284a2.412 2.412 0 0 0-.828-.828 3.63 3.63 0 0 0-1.212-.444 7.847 7.847 0 0 0-1.464-.132H61.44v5.424zm19.32 2.184c0-.848-.256-1.476-.768-1.884-.512-.408-1.192-.612-2.04-.612-.64 0-1.244.124-1.812.372a4.588 4.588 0 0 0-1.428.948l-1.2-1.44c.56-.528 1.244-.944 2.052-1.248a7.334 7.334 0 0 1 2.604-.456c.816 0 1.524.116 2.124.348.6.232 1.092.548 1.476.948.384.4.672.872.864 1.416.192.544.288 1.128.288 1.752v4.968c0 .384.012.788.036 1.212.024.424.068.772.132 1.044h-2.04a7.104 7.104 0 0 1-.192-1.632h-.072a4.369 4.369 0 0 1-1.572 1.416c-.632.336-1.38.504-2.244.504-.448 0-.916-.06-1.404-.18a4.08 4.08 0 0 1-1.332-.588 3.32 3.32 0 0 1-.996-1.08c-.264-.448-.396-1-.396-1.656 0-.864.232-1.548.696-2.052.464-.504 1.072-.888 1.824-1.152.752-.264 1.6-.436 2.544-.516.944-.08 1.896-.12 2.856-.12v-.312zm-.552 1.944c-.56 0-1.14.024-1.74.072-.6.048-1.144.144-1.632.288s-.892.36-1.212.648c-.32.288-.48.672-.48 1.152 0 .336.068.616.204.84.136.224.316.408.54.552.224.144.472.244.744.3.272.056.552.084.84.084 1.056 0 1.868-.316 2.436-.948.568-.632.852-1.428.852-2.388v-.6h-.552zM95.76 17.2a4.198 4.198 0 0 1-1.764 1.572c-.744.36-1.524.54-2.34.54-.88 0-1.672-.156-2.376-.468a5.32 5.32 0 0 1-1.8-1.284 5.799 5.799 0 0 1-1.152-1.92 6.73 6.73 0 0 1-.408-2.352c0-.832.136-1.612.408-2.34a5.72 5.72 0 0 1 1.164-1.908 5.305 5.305 0 0 1 1.812-1.272c.704-.304 1.48-.456 2.328-.456.928 0 1.736.196 2.424.588.688.392 1.232.868 1.632 1.428h.048V.856h2.256V19h-2.184v-1.8h-.048zm-7.488-3.912c0 .528.08 1.04.24 1.536.16.496.4.936.72 1.32.32.384.712.692 1.176.924.464.232 1.008.348 1.632.348.576 0 1.1-.112 1.572-.336a3.778 3.778 0 0 0 1.212-.9c.336-.376.596-.812.78-1.308a4.449 4.449 0 0 0 .276-1.56c0-.544-.092-1.064-.276-1.56a4.207 4.207 0 0 0-.78-1.32 3.62 3.62 0 0 0-2.784-1.248c-.624 0-1.168.112-1.632.336a3.479 3.479 0 0 0-1.176.912c-.32.384-.56.824-.72 1.32a4.972 4.972 0 0 0-.24 1.536zm20.736-1.656c0-.848-.256-1.476-.768-1.884-.512-.408-1.192-.612-2.04-.612-.64 0-1.244.124-1.812.372a4.588 4.588 0 0 0-1.428.948l-1.2-1.44c.56-.528 1.244-.944 2.052-1.248a7.334 7.334 0 0 1 2.604-.456c.816 0 1.524.116 2.124.348.6.232 1.092.548 1.476.948.384.4.672.872.864 1.416.192.544.288 1.128.288 1.752v4.968c0 .384.012.788.036 1.212.024.424.068.772.132 1.044h-2.04a7.104 7.104 0 0 1-.192-1.632h-.072a4.369 4.369 0 0 1-1.572 1.416c-.632.336-1.38.504-2.244.504-.448 0-.916-.06-1.404-.18a4.08 4.08 0 0 1-1.332-.588 3.32 3.32 0 0 1-.996-1.08c-.264-.448-.396-1-.396-1.656 0-.864.232-1.548.696-2.052.464-.504 1.072-.888 1.824-1.152.752-.264 1.6-.436 2.544-.516.944-.08 1.896-.12 2.856-.12v-.312zm-.552 1.944c-.56 0-1.14.024-1.74.072-.6.048-1.144.144-1.632.288s-.892.36-1.212.648c-.32.288-.48.672-.48 1.152 0 .336.068.616.204.84.136.224.316.408.54.552.224.144.472.244.744.3.272.056.552.084.84.084 1.056 0 1.868-.316 2.436-.948.568-.632.852-1.428.852-2.388v-.6h-.552zm6.48-3.504c0-.304-.008-.696-.024-1.176a24.16 24.16 0 0 0-.072-1.272h2.136c.032.288.056.62.072.996.016.376.024.684.024.924h.072a3.937 3.937 0 0 1 1.404-1.62 3.676 3.676 0 0 1 2.076-.612c.352 0 .648.032.888.096l-.096 2.088c-.32-.08-.664-.12-1.032-.12-.544 0-1.016.1-1.416.3-.4.2-.732.468-.996.804a3.4 3.4 0 0 0-.588 1.164c-.128.44-.192.9-.192 1.38V19h-2.256v-8.928zm-72.314 6.734l-6.502 1.35 2.883-5.982-3.293-5.766 6.58.894 4.466-4.915 1.184 6.535 6.054 2.729-5.849 3.145-.725 6.6z" fill="#FFF" fill-rule="evenodd"/></svg>