<svg version="1" xmlns="http://www.w3.org/2000/svg" width="933.333" height="933.333" viewBox="0 0 700.000000 700.000000"><path d="M377.7 2.6c-8.1 1.9-7.3 1.4-50.2 28.9-2.7 1.8-15.1 9.6-27.5 17.5-12.4 7.8-24.3 15.4-26.5 17-2.2 1.5-5.3 3.4-7 4.2-4.2 2.1-18.3 6.8-22.5 7.4-1.9.3-5.5 1-8 1.5-4.6.8-29.9.5-33.5-.5-8.1-2.2-108-30.2-112-31.4-1.6-.5-5.9-.8-9.6-.7-15.3.4-29.7 12.6-32.9 27.9-1.5 7.2-1.1 10 3.8 30.1 2.2 8.8 5.2 21.2 6.7 27.5 1.5 6.3 4.5 18.7 6.6 27.5 2.2 8.8 4.2 17.1 4.4 18.5.4 2.2 1.9 8.2 8.1 32 3.3 13 1.5 31.6-4.3 44-2.1 4.6-14.4 24.1-59.5 94.7C1.7 367.7.2 371.3.2 381.5c0 12 4.4 22.4 12.5 29.4 7.4 6.6 12.9 8.1 35.3 9.6 4.1.3 9.5.7 12 1 2.5.2 7.9.7 12 1 4.1.3 9.5.8 12 1 4.1.3 8.5.6 26 2 6.5.5 16.3 1.3 24.2 2 3.1.3 9.9.7 15 1 5.1.3 11.7 1 14.5 1.6 2.9.6 5.6 1.1 6 1.1.5 0 3.6 1.1 7 2.4 10.1 3.8 16.3 7.5 23 13.9 3.1 3 42.1 51.1 63.6 78.5 13.6 17.4 18.2 22.1 24.2 25.2 10.1 5.2 24.3 6 35 1.8 6.9-2.7 15.4-10.5 18-16.6 1.8-4.2 15.4-40.3 15.9-41.9.1-.6 1-2.7 1.9-4.9.9-2.1 1.7-4.1 1.7-4.5 0-.6 9.4-25.9 11-29.6.5-1.1 1.4-3.7 2.1-5.8.7-2 1.6-3.7 1.9-3.7.4 0 14.8 14.3 31.9 31.7 43.9 44.6 141.8 143.7 178.1 180.2 27.2 27.4 31.3 31.2 37.7 34.5 20.1 10.3 41.7 6.9 58.8-9.1 11.6-10.8 17.5-23.7 18-38.7.3-12.7-2.8-23.3-9.8-33.1-1.5-2.2-55.5-56.8-120-121.2C505.3 425.8 452.9 373 453.4 373c.4 0 11-3 23.4-6.6 12.5-3.6 30.6-8.8 40.2-11.6 18.6-5.4 22.7-7.4 29-14.1 10-10.7 13.4-25.5 8.9-39-2.9-8.6-6.6-13.4-16.5-21.4-2.1-1.7-15.8-12.6-30.4-24.3-14.6-11.6-28.1-22.4-30-24-1.9-1.5-8-6.4-13.5-10.8s-12-10.3-14.5-13.2c-2.5-2.9-5-5.8-5.5-6.4-5.3-5.6-14.8-23.5-17-32.1-2-7.8-2.4-11.4-3-27.5-.3-7.4-.7-19.4-1-26.5-1.1-28.1-1.5-37.6-2-52.5-1.2-33.4-2-38.1-7.7-46.1-8.8-12.3-22-17.5-36.1-14.3z" fill="#FF5E17"/></svg>