<svg width="43" height="37" viewBox="0 0 43 37" xmlns="http://www.w3.org/2000/svg"><title>telegram</title><path d="M41.958 4.014l-6.336 30.293a1.996 1.996 0 0 1-3.135 1.2l-9.567-7.022-4.876 4.979a1.62 1.62 0 0 1-2.701-.647l-3.52-11.167-9.43-2.785c-1.237-.365-1.31-2.09-.108-2.559L39.396 1.845c1.413-.55 2.872.685 2.562 2.17zm-6.75 2.834L14.852 19.473a.926.926 0 0 0-.396 1.062l2.73 8.799c.058.184.327.159.349-.033l.664-5.9a.926.926 0 0 1 .306-.59L35.743 7.567c.413-.365-.066-1.009-.535-.719z" stroke="#000" stroke-width="2" fill="none"/></svg>