<svg xmlns="http://www.w3.org/2000/svg" width="22" height="22" viewBox="0 0 22 22"><path fill="#445281" fill-rule="evenodd" d="M19.036 0H2.964A2.965 2.965 0 0 0 0 2.964v16.071A2.964 2.964 0 0 0 2.964 22h7.927l.013-7.862H8.862a.482.482 0 0 1-.482-.48l-.01-2.534a.482.482 0 0 1 .482-.484h2.039V8.192c0-2.842 1.735-4.39 4.27-4.39h2.08c.266 0 .482.216.482.483V6.42a.482.482 0 0 1-.482.482l-1.276.001c-1.379 0-1.646.655-1.646 1.616v2.12h3.03c.288 0 .512.252.478.539l-.3 2.534a.482.482 0 0 1-.48.425h-2.714L14.319 22h4.717A2.965 2.965 0 0 0 22 19.035V2.965A2.964 2.964 0 0 0 19.036 0"/></svg>