<svg width="22" height="22" viewBox="0 0 22 22" xmlns="http://www.w3.org/2000/svg"><title>icon--vk</title><path d="M3.41.03h15.18a3.38 3.38 0 0 1 3.38 3.38v15.18a3.38 3.38 0 0 1-3.38 3.38H3.41a3.38 3.38 0 0 1-3.38-3.38V3.41A3.38 3.38 0 0 1 3.41.03zm7.404 15.358h.896s.274-.029.407-.18c.129-.14.123-.396.123-.396s-.018-1.205.541-1.38c.553-.174 1.257 1.165 2.008 1.677.564.39.995.303.995.303l2.008-.03s1.048-.063.553-.89c-.04-.07-.291-.611-1.49-1.723-1.257-1.17-1.088-.977.425-2.997.92-1.228 1.292-1.979 1.176-2.299-.111-.308-.786-.227-.786-.227l-2.258.012s-.17-.024-.291.052c-.123.07-.198.244-.198.244s-.355.95-.833 1.758c-1.006 1.705-1.408 1.799-1.571 1.694-.384-.245-.285-.995-.285-1.525 0-1.653.25-2.346-.489-2.52-.244-.058-.425-.1-1.053-.105-.804-.006-1.49 0-1.875.192-.256.128-.454.408-.331.425.151.017.489.093.663.338.233.314.221 1.024.221 1.024s.134 1.95-.308 2.188c-.303.17-.722-.174-1.618-1.722-.46-.792-.803-1.67-.803-1.67s-.064-.164-.187-.251a.965.965 0 0 0-.349-.14l-2.147.012s-.32.011-.443.151c-.104.122-.005.384-.005.384s1.682 3.929 3.579 5.914c1.746 1.81 3.725 1.687 3.725 1.687z" fill="#4C75A3" fill-rule="evenodd"/></svg>