<?xml version="1.0" standalone="no"?>
<!DOCTYPE svg PUBLIC "-//W3C//DTD SVG 20010904//EN"
 "http://www.w3.org/TR/2001/REC-SVG-20010904/DTD/svg10.dtd">
<svg version="1.0" xmlns="http://www.w3.org/2000/svg"
 width="700.000000pt" height="700.000000pt" viewBox="0 0 700.000000 700.000000"
 preserveAspectRatio="xMidYMid meet">
<metadata>
Created by potrace 1.11, written by Peter Selinger 2001-2013
</metadata>
<g transform="translate(0.000000,700.000000) scale(0.100000,-0.100000)"
fill="#000000" stroke="none">
<path d="M3653 6639 c-182 -40 -226 -55 -234 -77 -5 -13 -7 -28 -3 -33 3 -5
-16 -18 -41 -29 -45 -19 -48 -19 -76 -3 -27 16 -30 16 -71 -7 -61 -33 -175
-113 -228 -158 -41 -36 -44 -41 -33 -64 10 -23 8 -29 -27 -63 -35 -34 -42 -37
-63 -28 -23 11 -28 6 -83 -68 -33 -43 -78 -114 -101 -156 -41 -76 -42 -78 -24
-97 18 -18 18 -20 -1 -67 -16 -38 -26 -49 -47 -51 -20 -2 -29 -11 -39 -43 -22
-65 -50 -205 -57 -280 -7 -68 -6 -71 17 -82 21 -9 24 -17 23 -63 0 -46 -4 -54
-24 -62 -22 -8 -23 -12 -17 -66 12 -115 19 -158 40 -236 21 -75 24 -81 49 -80
22 0 29 -7 45 -50 18 -49 18 -51 1 -70 -18 -19 -18 -22 27 -105 26 -47 73
-123 107 -168 56 -76 61 -81 84 -70 21 9 28 6 63 -28 35 -34 37 -40 27 -62
-12 -27 -13 -25 78 -102 46 -39 177 -121 202 -127 17 -5 28 -1 37 11 12 17 15
17 59 0 26 -10 48 -22 48 -26 1 -5 2 -18 3 -29 0 -10 6 -23 11 -29 20 -19 212
-65 319 -76 50 -6 52 -5 63 25 11 28 15 30 63 30 48 0 52 -2 62 -31 l11 -31
66 6 c80 7 92 10 204 37 84 21 94 27 88 62 -3 20 22 45 58 57 39 12 43 12 66
-10 l24 -23 53 28 c61 32 201 126 240 162 25 24 25 27 13 57 -14 32 -13 34 25
71 37 36 40 37 70 25 27 -11 33 -11 48 6 30 32 127 176 157 232 l29 53 -26 25
-25 26 17 45 c20 52 32 62 70 57 25 -4 28 -1 43 53 33 112 46 179 53 255 l7
78 -35 14 c-34 14 -35 17 -33 63 2 26 3 51 4 55 0 3 15 11 32 17 l32 11 -7 70
c-7 79 -30 200 -50 256 -11 33 -17 39 -45 40 -38 1 -43 6 -64 60 -16 41 -15
42 9 65 13 12 24 27 24 32 0 18 -92 171 -148 245 -45 60 -59 72 -76 68 -58
-16 -61 -15 -94 23 -31 37 -31 40 -17 67 14 28 14 30 -13 54 -70 65 -244 180
-272 180 -6 0 -20 -10 -29 -22 l-18 -22 -49 20 c-45 19 -49 23 -49 55 0 33 -2
35 -62 55 -35 12 -63 20 -63 19 0 -2 -23 3 -52 11 -28 7 -86 16 -129 20 l-76
6 -11 -31 c-10 -29 -14 -31 -62 -31 -48 0 -52 2 -61 30 -10 28 -14 30 -59 27
-27 -1 -62 -5 -77 -8z m307 -744 c202 -31 392 -186 471 -387 78 -197 49 -435
-73 -611 -37 -54 -122 -132 -184 -170 -316 -191 -712 -65 -869 278 -41 89 -55
151 -57 245 -2 92 7 151 31 222 80 234 270 395 501 425 25 3 46 7 48 8 4 3 81
-3 132 -10z"/>
<path d="M955 5649 c-124 -8 -191 -45 -249 -137 -51 -82 -56 -205 -11 -291 9
-18 13 -37 9 -44 -4 -7 -3 -9 1 -4 12 10 66 -43 58 -57 -3 -6 -2 -8 2 -4 5 5
27 -3 51 -17 23 -14 52 -25 64 -25 12 0 19 -3 17 -7 -3 -5 106 -7 241 -6 136
2 252 0 258 -5 11 -7 132 -236 283 -537 42 -82 78 -152 81 -155 3 -3 18 -30
34 -60 65 -128 202 -392 246 -475 26 -49 84 -162 130 -250 46 -88 98 -188 116
-222 19 -35 30 -63 26 -63 -4 0 -2 -4 4 -8 6 -4 20 -25 31 -47 11 -22 41 -79
66 -127 26 -48 47 -91 47 -97 0 -5 -48 -107 -106 -227 -58 -121 -130 -268
-159 -329 -29 -60 -85 -177 -125 -260 -122 -256 -120 -250 -121 -329 -1 -59
24 -139 53 -170 10 -11 18 -23 18 -27 0 -18 110 -80 159 -89 54 -10 3035 -14
3110 -4 135 17 241 148 241 297 0 125 -89 246 -205 279 -29 8 -385 12 -1325
12 -707 1 -1287 3 -1289 6 -8 10 42 110 52 103 5 -3 7 -1 4 4 -8 12 79 204 97
215 6 4 7 8 3 8 -5 0 0 16 12 36 12 19 21 42 21 50 0 8 5 14 10 14 6 0 10 5
10 11 0 15 82 183 93 190 5 3 8 8 6 10 -1 2 1 14 5 25 l7 21 977 0 c537 0 993
3 1012 7 59 13 132 64 170 118 19 28 42 58 50 67 8 10 16 23 18 30 1 7 32 57
67 112 36 55 65 102 65 104 0 5 127 207 140 222 5 7 10 14 10 17 0 5 105 176
118 191 4 6 19 29 32 53 13 23 28 42 32 42 5 0 7 4 4 8 -3 5 3 18 12 28 10 10
21 26 24 34 4 8 28 50 55 92 73 118 192 311 206 333 7 11 29 45 50 77 20 31
37 59 37 62 0 3 16 30 35 61 20 30 38 68 41 85 4 16 9 30 13 30 9 0 3 110 -10
156 -16 60 -76 132 -139 168 -49 28 -64 31 -135 31 -91 0 -140 -20 -198 -80
-25 -26 -297 -448 -362 -563 -10 -18 -236 -381 -290 -467 -17 -27 -47 -75 -65
-105 -19 -30 -38 -58 -43 -61 -5 -3 -8 -8 -6 -10 2 -4 -44 -82 -114 -190 l-39
-59 -955 2 -956 3 -42 80 c-23 44 -78 150 -122 235 -44 85 -109 209 -143 275
-34 66 -96 185 -137 265 -141 271 -206 395 -225 428 -11 17 -17 32 -13 32 4 0
-3 12 -14 26 -12 15 -21 30 -21 34 0 4 -18 39 -39 79 -22 39 -37 71 -35 71 3
0 -3 12 -14 28 -10 15 -40 70 -67 122 -106 210 -189 367 -209 396 -29 43 -76
81 -131 105 -42 19 -68 20 -338 22 -161 1 -332 -1 -382 -4z"/>
<path d="M2489 1410 c-235 -61 -404 -268 -413 -508 -14 -329 246 -589 575
-577 278 11 511 242 523 520 11 260 -147 485 -394 560 -79 24 -210 26 -291 5z
m226 -324 c88 -37 139 -116 138 -211 -1 -103 -57 -183 -154 -215 -121 -41
-244 16 -288 135 -71 190 117 371 304 291z"/>
<path d="M4750 1418 c-198 -40 -355 -175 -422 -366 -28 -81 -35 -219 -14 -302
26 -105 73 -187 151 -265 261 -261 699 -194 873 132 141 265 40 597 -227 744
-101 56 -249 79 -361 57z m185 -328 c141 -56 190 -234 98 -357 -79 -104 -241
-116 -339 -25 -44 41 -65 86 -71 153 -15 164 158 291 312 229z"/>
</g>
</svg>
