<svg width="80" height="80" viewBox="0 0 80 80" xmlns="http://www.w3.org/2000/svg" xmlns:xlink="http://www.w3.org/1999/xlink"><title>icon_5</title><defs><path id="a" d="M0 0h80v80H0z"/></defs><g fill="none" fill-rule="evenodd"><mask id="b" fill="#fff"><use xlink:href="#a"/></mask><use fill="#FF1E1E" xlink:href="#a"/><path d="M-18.01 51H-29v-7.467L.09-29h12.928L42 42.467V51H30.472l-7.65-19.52H-10.36L-18.011 51zm36.523-31.147L6.23-11.827l-12.283 31.68h24.565z" fill="#F7F7FB" mask="url(#b)"/><path d="M48.443 72.73c.801 0 1.473-.249 2.017-.747a2.398 2.398 0 0 0 .815-1.84v-.83l-2.714.166c-1.433.09-2.149.64-2.149 1.65 0 .482.186.869.557 1.162.37.293.862.44 1.474.44zm-.38 1.446c-1.01 0-1.825-.28-2.447-.84-.622-.56-.932-1.296-.932-2.207 0-.872.32-1.57.962-2.09.64-.52 1.547-.814 2.72-.879l2.91-.166v-.85c0-.618-.196-1.103-.587-1.455-.39-.351-.937-.527-1.64-.527-.651 0-1.177.143-1.577.43-.4.286-.656.68-.767 1.181h-1.64c.058-.878.444-1.616 1.157-2.211.713-.596 1.668-.894 2.866-.894 1.191 0 2.137.3 2.837.898.7.6 1.05 1.403 1.05 2.413V74h-1.612v-1.748h-.039a3.43 3.43 0 0 1-1.343 1.396 3.712 3.712 0 0 1-1.919.528zm12.48 0c-.742 0-1.397-.17-1.963-.508a3.65 3.65 0 0 1-1.338-1.387h-.039V74h-1.621V59.908h1.7v5.635h.038a3.562 3.562 0 0 1 1.328-1.372c.567-.335 1.208-.503 1.924-.503 1.283 0 2.318.477 3.106 1.43.787.954 1.181 2.229 1.181 3.824 0 1.595-.394 2.87-1.181 3.823-.788.954-1.833 1.43-3.135 1.43zm-.332-9.014c-.86 0-1.564.345-2.114 1.035-.55.69-.826 1.599-.826 2.725 0 1.133.276 2.043.826 2.73.55.686 1.255 1.03 2.114 1.03.898 0 1.608-.337 2.129-1.011.52-.674.781-1.59.781-2.75 0-1.151-.26-2.066-.781-2.743s-1.23-1.016-2.13-1.016zm15.166 2.012c-.104-.912-.524-1.724-1.26-2.437-.735-.713-1.738-1.069-3.008-1.069-1.4 0-2.527.475-3.383 1.426-.857.95-1.285 2.226-1.285 3.828 0 1.634.43 2.918 1.29 3.852.859.935 1.992 1.402 3.398 1.402 1.152 0 2.119-.322 2.9-.967a3.724 3.724 0 0 0 1.367-2.48h-1.67c-.143.611-.436 1.09-.878 1.435-.443.345-1.013.518-1.71.518-.878 0-1.593-.332-2.143-.996-.55-.665-.825-1.586-.825-2.764 0-1.152.272-2.067.815-2.744.544-.677 1.255-1.016 2.134-1.016.749 0 1.338.197 1.768.59.43.395.706.868.83 1.422h1.66z" fill="#FFF" mask="url(#b)"/></g></svg>