<svg width="81" height="80" viewBox="0 0 81 80" xmlns="http://www.w3.org/2000/svg"><title>icon_5</title><g fill="none" fill-rule="evenodd"><path fill="#FF5570" d="M.078 80h80V0h-80z"/><path d="M56.207 56.129l.747.747C45.427 69.57 29.027 70.288 24.64 62.066a10.524 10.524 0 0 1-.981-9.26l7.86-21.365 2.249-6.132c3.145-8.541-2.922-8.42-9.82-1.438l-.737-.737c7.43-8.177 16.866-11.35 23.792-10.445.102 0 .196.019.289.038a10.536 10.536 0 0 1 3.155.821c.084.037.187.065.27.112 1.979.906 3.576 2.324 4.659 4.041 1.717 2.698 2.202 6.114 1.017 9.334l-7.87 21.412-2.51 6.832c-.01.01-.01.029-.01.038-2.631 7.934 3.427 7.635 10.203.812" fill="#4FFFEC"/></g></svg>