<svg width="39" height="43" viewBox="0 0 39 43" xmlns="http://www.w3.org/2000/svg"><title>customer-service-2</title><g fill="none" fill-rule="evenodd"><path d="M3.32 30.596H2.073c-.687 0-1.244-.666-1.244-1.488v-5.954h2.49v7.442m32.361-7.442h2.49v5.954c0 .822-.557 1.488-1.244 1.488H35.68v-7.442" fill="#23BBE6"/><path d="M6.085 32.25H4.702c-.764 0-1.383-.648-1.383-1.447V22.12c0-.8.62-1.447 1.383-1.447h1.383c.764 0 1.383.648 1.383 1.447v8.683c0 .8-.62 1.447-1.383 1.447" fill="#8D97E8"/><path d="M8.298 30.803V22.12c0-.8-.743-1.447-1.66-1.447h-.83V32.25h.83c.917 0 1.66-.648 1.66-1.447" fill="#626BB7"/><path d="M32.915 20.673h1.383c.764 0 1.383.648 1.383 1.447v8.683c0 .8-.62 1.447-1.383 1.447h-1.383c-.764 0-1.383-.648-1.383-1.447V22.12c0-.8.62-1.447 1.383-1.447" fill="#8D97E9"/><path d="M30.702 22.12v8.683c0 .8.743 1.447 1.66 1.447h.83V20.673h-.83c-.917 0-1.66.648-1.66 1.447" fill="#626BB7"/><path d="M25.233 20.673H13.767c-1.187 0-2.15.96-2.15 2.143v8.57c0 1.183.963 2.142 2.15 2.142h7.166v2.352c0 .449.544.673.863.356l2.717-2.708h.72c1.187 0 2.15-.96 2.15-2.143v-8.57a2.146 2.146 0 0 0-2.15-2.142m-.475 21.63h-2.255a.747.747 0 0 1-.751-.742v-1.487c0-.41.336-.742.751-.742h2.255c.83 0 1.504.665 1.504 1.485 0 .821-.673 1.486-1.504 1.486" fill="#23BBE6"/><path d="M36.785 29.72h-.799v-6.037h1.598v5.247c0 .435-.358.79-.799.79zm-2.208 1.439c0 .435-.358.79-.799.79h-1.503a.795.795 0 0 1-.799-.79v-8.916c0-.435.359-.79.8-.79h1.502c.44 0 .8.355.8.79v8.916zm-9.819 10.448h-2.255a.047.047 0 0 1-.047-.046v-1.487c0-.025.021-.046.047-.046h2.255c.44 0 .799.354.799.79a.795.795 0 0 1-.799.789zM3.007 23.683v6.036h-.799a.795.795 0 0 1-.799-.79v-5.246h1.598zm1.41-1.44c0-.435.357-.79.798-.79h1.503c.44 0 .799.355.799.79v8.916c0 .435-.359.79-.799.79H5.215a.795.795 0 0 1-.799-.79v-8.916zM19.496 0C8.747 0 0 8.645 0 19.271v9.659c0 1.203.99 2.182 2.208 2.182h.799v.047c0 1.203.99 2.182 2.208 2.182h1.503c1.218 0 2.208-.979 2.208-2.182v-8.916c0-1.203-.99-2.182-2.208-2.182H5.215c-1.218 0-2.208.979-2.208 2.182v.046H1.409v-3.018c0-9.858 8.114-17.878 18.088-17.878 9.973 0 18.087 8.02 18.087 17.878v3.018h-1.598v-.046c0-1.203-.99-2.182-2.208-2.182h-1.503c-1.217 0-2.208.979-2.208 2.182v8.916c0 1.203.99 2.182 2.208 2.182h1.503c1.218 0 2.208-.979 2.208-2.182v-.047h.069c-.349 4.838-4.3 8.706-9.21 8.991a2.21 2.21 0 0 0-2.087-1.468h-2.255a1.45 1.45 0 0 0-1.456 1.44v1.486A1.45 1.45 0 0 0 22.503 43h2.255a2.21 2.21 0 0 0 2.098-1.501c5.72-.297 10.319-4.843 10.618-10.496a2.189 2.189 0 0 0 1.52-2.073v-9.66C38.993 8.645 30.246 0 19.496 0z" fill="#343A6B"/><path d="M13.798 32.939c-.87 0-1.577-.673-1.577-1.5V22.71c0-.827.707-1.5 1.577-1.5h12.234c.87 0 1.577.673 1.577 1.5v8.729c0 .827-.708 1.5-1.577 1.5h-.768a.736.736 0 0 0-.507.2l-2.596 2.469V33.62c0-.377-.321-.682-.717-.682h-7.646zm8.186 4.273c.326 0 .646-.122.887-.351l2.69-2.558h.47c1.66 0 3.012-1.285 3.012-2.864V22.71c0-1.58-1.351-2.864-3.011-2.864H13.798c-1.66 0-3.01 1.285-3.01 2.864v8.729c0 1.579 1.35 2.864 3.01 2.864h6.93v1.713c0 .485.304.919.775 1.104.156.062.32.092.481.092z" fill="#343A6B"/><path d="M22.923 28.477c.629 0 1.14-.452 1.14-1.008 0-.555-.511-1.007-1.14-1.007-.63 0-1.141.452-1.141 1.007 0 .556.512 1.008 1.14 1.008M19.5 26.462c-.63 0-1.141.452-1.141 1.007 0 .556.512 1.008 1.141 1.008.63 0 1.141-.452 1.141-1.008 0-.555-.512-1.007-1.141-1.007m-3.423 0c-.629 0-1.14.452-1.14 1.007 0 .556.511 1.008 1.14 1.008.63 0 1.141-.452 1.141-1.008 0-.555-.512-1.007-1.14-1.007" fill="#343A6B"/></g></svg>