<svg width="140" height="45" viewBox="0 0 140 45" xmlns="http://www.w3.org/2000/svg" xmlns:xlink="http://www.w3.org/1999/xlink"><title>logo</title><defs><path id="a" d="M.047 44.844h139.39V.079H.047z"/></defs><g fill="none" fill-rule="evenodd"><path fill="#504FD8" d="M26.828 35L35 9.844h-5.032l-6.536 20.125h-2.017l-6.54-20.125H9.844L18.016 35h8.812M44.844 9.844h-2.19L40.47 12.36V35h4.375V9.844"/><mask id="b" fill="#fff"><use xlink:href="#a"/></mask><path fill="#504FD8" mask="url(#b)" d="M90.043 34.896h4.97V15h9.948v-4.975h-22.38l-2.484 2.487V15h9.946v19.896"/><path d="M4.973 39.873h129.491V5.053H4.974v34.82zm0-39.794L0 5.052v39.792h134.464l4.973-4.97V.078H4.973z" fill="#504FD8" mask="url(#b)"/><path fill="#504FD8" d="M110.03 35l6.537-20.124h2.018l2.85 8.764h-5.947l-1.63 5.034h9.21L125.124 35h5.033l-8.173-25.156h-8.812L105 35h5.03m-33.467-5.031V19.907H56.439v-5.031h17.608l2.516-2.516V9.844H56.439l-5.033 5.032V24.94H71.53v5.029H51.406V35H71.53l5.032-5.031"/></g></svg>