<svg width="149" height="48" viewBox="0 0 149 48" xmlns="http://www.w3.org/2000/svg" xmlns:xlink="http://www.w3.org/1999/xlink"><defs><path id="a" d="M28.23 38L37 11h-5.401l-7.014 21.6h-2.166L15.399 11H10l8.77 27h9.46"/><filter x="-5.6%" y="-5.6%" width="111.1%" height="111.1%" filterUnits="objectBoundingBox" id="b"><feGaussianBlur stdDeviation="1" in="SourceAlpha" result="shadowBlurInner1"/><feOffset dy="1" in="shadowBlurInner1" result="shadowOffsetInner1"/><feComposite in="shadowOffsetInner1" in2="SourceAlpha" operator="arithmetic" k2="-1" k3="1" result="shadowInnerInner1"/><feColorMatrix values="0 0 0 0 0 0 0 0 0 0 0 0 0 0 0 0 0 0 0.0846354167 0" in="shadowInnerInner1"/></filter><path id="c" d="M48 11h-2.502L43 13.7V38h5V11"/><filter x="-30%" y="-5.6%" width="160%" height="111.1%" filterUnits="objectBoundingBox" id="d"><feGaussianBlur stdDeviation="1" in="SourceAlpha" result="shadowBlurInner1"/><feOffset dy="1" in="shadowBlurInner1" result="shadowOffsetInner1"/><feComposite in="shadowOffsetInner1" in2="SourceAlpha" operator="arithmetic" k2="-1" k3="1" result="shadowInnerInner1"/><feColorMatrix values="0 0 0 0 0 0 0 0 0 0 0 0 0 0 0 0 0 0 0.0846354167 0" in="shadowInnerInner1"/></filter><path id="e" d="M95.831 37.223h5.29V16h10.588v-5.307h-23.82l-2.643 2.653V16H95.83v21.223"/><filter x="-5.7%" y="-5.7%" width="111.3%" height="111.3%" filterUnits="objectBoundingBox" id="f"><feGaussianBlur stdDeviation="1" in="SourceAlpha" result="shadowBlurInner1"/><feOffset dy="1" in="shadowBlurInner1" result="shadowOffsetInner1"/><feComposite in="shadowOffsetInner1" in2="SourceAlpha" operator="arithmetic" k2="-1" k3="1" result="shadowInnerInner1"/><feColorMatrix values="0 0 0 0 0 0 0 0 0 0 0 0 0 0 0 0 0 0 0.0846354167 0" in="shadowInnerInner1"/></filter><path d="M5.293 42.531h137.816V5.39H5.293v37.142zm0-42.447L0 5.389v42.444h143.109l5.292-5.302V.084H5.293z" id="g"/><filter x="-1%" y="-3.1%" width="102%" height="106.3%" filterUnits="objectBoundingBox" id="h"><feGaussianBlur stdDeviation="1" in="SourceAlpha" result="shadowBlurInner1"/><feOffset dy="1" in="shadowBlurInner1" result="shadowOffsetInner1"/><feComposite in="shadowOffsetInner1" in2="SourceAlpha" operator="arithmetic" k2="-1" k3="1" result="shadowInnerInner1"/><feColorMatrix values="0 0 0 0 0 0 0 0 0 0 0 0 0 0 0 0 0 0 0.0846354167 0" in="shadowInnerInner1"/></filter><path id="i" d="M117.4 38l7.014-21.599h2.166l3.059 9.407h-6.383l-1.748 5.402h9.885l2.205 6.79H139l-8.772-27h-9.459L112 38h5.4"/><filter x="-5.6%" y="-5.6%" width="111.1%" height="111.1%" filterUnits="objectBoundingBox" id="j"><feGaussianBlur stdDeviation="1" in="SourceAlpha" result="shadowBlurInner1"/><feOffset dy="1" in="shadowBlurInner1" result="shadowOffsetInner1"/><feComposite in="shadowOffsetInner1" in2="SourceAlpha" operator="arithmetic" k2="-1" k3="1" result="shadowInnerInner1"/><feColorMatrix values="0 0 0 0 0 0 0 0 0 0 0 0 0 0 0 0 0 0 0.0846354167 0" in="shadowInnerInner1"/></filter><path id="k" d="M82 32.6V21.8H60.402v-5.4H79.3l2.7-2.7V11H60.402L55 16.401v10.801h21.598V32.6H55V38h21.598L82 32.6"/><filter x="-5.6%" y="-5.6%" width="111.1%" height="111.1%" filterUnits="objectBoundingBox" id="l"><feGaussianBlur stdDeviation="1" in="SourceAlpha" result="shadowBlurInner1"/><feOffset dy="1" in="shadowBlurInner1" result="shadowOffsetInner1"/><feComposite in="shadowOffsetInner1" in2="SourceAlpha" operator="arithmetic" k2="-1" k3="1" result="shadowInnerInner1"/><feColorMatrix values="0 0 0 0 0 0 0 0 0 0 0 0 0 0 0 0 0 0 0.0846354167 0" in="shadowInnerInner1"/></filter></defs><g fill="none" fill-rule="evenodd"><use fill="#CDCDCD" xlink:href="#a"/><use fill="#000" filter="url(#b)" xlink:href="#a"/><use fill="#CDCDCD" xlink:href="#c"/><use fill="#000" filter="url(#d)" xlink:href="#c"/><use fill="#CDCDCD" xlink:href="#e"/><use fill="#000" filter="url(#f)" xlink:href="#e"/><use fill="#CDCDCD" xlink:href="#g"/><use fill="#000" filter="url(#h)" xlink:href="#g"/><use fill="#CDCDCD" xlink:href="#i"/><use fill="#000" filter="url(#j)" xlink:href="#i"/><use fill="#CDCDCD" xlink:href="#k"/><use fill="#000" filter="url(#l)" xlink:href="#k"/></g></svg>