<svg width="124" height="54" viewBox="0 0 124 54" xmlns="http://www.w3.org/2000/svg" xmlns:xlink="http://www.w3.org/1999/xlink"><title>since-2003</title><defs><path id="b" d="M4.085 0L0 4.974v39.791h110.453l4.084-4.97V0z"/><filter x="-6.5%" y="-12.3%" width="113.1%" height="133.5%" filterUnits="objectBoundingBox" id="a"><feMorphology radius=".5" operator="dilate" in="SourceAlpha" result="shadowSpreadOuter1"/><feOffset dy="2" in="shadowSpreadOuter1" result="shadowOffsetOuter1"/><feGaussianBlur stdDeviation="2" in="shadowOffsetOuter1" result="shadowBlurOuter1"/><feComposite in="shadowBlurOuter1" in2="SourceAlpha" operator="out" result="shadowBlurOuter1"/><feColorMatrix values="0 0 0 0 0.31372549 0 0 0 0 0.309803922 0 0 0 0 0.847058824 0 0 0 0.274513134 0" in="shadowBlurOuter1"/></filter></defs><g fill="none" fill-rule="evenodd"><g transform="translate(5 3)"><use fill="#000" filter="url(#a)" xlink:href="#b"/><use stroke="#504FD8" fill="#FFF" xlink:href="#b"/></g><path d="M31.996 13.673a8.56 8.56 0 0 1 2.627.4c.833.266 1.57.668 2.21 1.207a5.744 5.744 0 0 1 1.521 2.023c.374.81.561 1.759.561 2.847 0 .907-.139 1.748-.416 2.524a10.236 10.236 0 0 1-1.131 2.236 16.373 16.373 0 0 1-1.658 2.082 107.51 107.51 0 0 1-1.98 2.066l-7.531 7.684c.363-.09.74-.159 1.13-.204a10.25 10.25 0 0 1 1.182-.068h10.387c.181 0 .323.054.425.162a.581.581 0 0 1 .153.416V38H23.955v-.578a.89.89 0 0 1 .093-.383c.063-.13.145-.24.247-.331l8.211-8.313c.68-.691 1.309-1.36 1.887-2.006a15.841 15.841 0 0 0 1.504-1.955 9.297 9.297 0 0 0 .995-2.023 6.743 6.743 0 0 0 .357-2.21c0-.884-.147-1.652-.442-2.303-.295-.652-.686-1.188-1.173-1.607a4.781 4.781 0 0 0-1.7-.935 6.622 6.622 0 0 0-2.006-.306c-.76 0-1.46.116-2.1.348a5.58 5.58 0 0 0-1.7.97 5.336 5.336 0 0 0-1.224 1.479 5.99 5.99 0 0 0-.671 1.878c-.08.25-.184.414-.315.493-.13.08-.308.108-.535.085l-.833-.136c.147-1.031.43-1.95.85-2.754a6.799 6.799 0 0 1 1.598-2.04 6.723 6.723 0 0 1 2.244-1.266 8.502 8.502 0 0 1 2.754-.434zm28.203 12.291c0 2.108-.227 3.933-.68 5.474-.453 1.541-1.071 2.816-1.853 3.825-.782 1.009-1.697 1.76-2.745 2.253a7.792 7.792 0 0 1-3.358.739 7.736 7.736 0 0 1-3.349-.74c-1.043-.493-1.955-1.243-2.737-2.252-.782-1.009-1.397-2.284-1.844-3.825-.448-1.541-.672-3.366-.672-5.474s.224-3.933.672-5.474c.447-1.541 1.062-2.816 1.844-3.825.782-1.009 1.694-1.76 2.737-2.252a7.736 7.736 0 0 1 3.349-.74c1.19 0 2.31.246 3.357.74 1.049.493 1.964 1.243 2.746 2.252.782 1.009 1.4 2.284 1.853 3.825.453 1.541.68 3.366.68 5.474zm-1.7 0c0-1.95-.187-3.615-.561-4.998-.374-1.383-.875-2.513-1.505-3.392-.629-.878-1.365-1.521-2.21-1.929a6.04 6.04 0 0 0-2.66-.612c-.93 0-1.813.204-2.652.612-.839.408-1.575 1.051-2.21 1.93-.635.878-1.139 2.008-1.513 3.391-.374 1.383-.561 3.049-.561 4.998 0 1.96.187 3.63.561 5.007.374 1.377.878 2.504 1.513 3.383.635.878 1.371 1.518 2.21 1.92a6.056 6.056 0 0 0 2.652.604 6.11 6.11 0 0 0 2.66-.603c.845-.403 1.581-1.043 2.21-1.921.63-.879 1.131-2.006 1.505-3.384.374-1.377.561-3.045.561-5.006zm21.42 0c0 2.108-.227 3.933-.68 5.474-.453 1.541-1.071 2.816-1.853 3.825-.782 1.009-1.697 1.76-2.745 2.253a7.792 7.792 0 0 1-3.358.739 7.736 7.736 0 0 1-3.349-.74c-1.043-.493-1.955-1.243-2.737-2.252-.782-1.009-1.397-2.284-1.845-3.825-.447-1.541-.671-3.366-.671-5.474s.224-3.933.672-5.474c.447-1.541 1.062-2.816 1.844-3.825.782-1.009 1.694-1.76 2.737-2.252a7.736 7.736 0 0 1 3.349-.74c1.19 0 2.31.246 3.358.74 1.048.493 1.963 1.243 2.745 2.252.782 1.009 1.4 2.284 1.853 3.825.453 1.541.68 3.366.68 5.474zm-1.7 0c0-1.95-.187-3.615-.561-4.998-.374-1.383-.875-2.513-1.505-3.392-.629-.878-1.365-1.521-2.21-1.929a6.04 6.04 0 0 0-2.66-.612c-.93 0-1.813.204-2.652.612-.839.408-1.575 1.051-2.21 1.93-.635.878-1.139 2.008-1.513 3.391-.374 1.383-.561 3.049-.561 4.998 0 1.96.187 3.63.561 5.007.374 1.377.878 2.504 1.513 3.383.635.878 1.371 1.518 2.21 1.92a6.056 6.056 0 0 0 2.652.604 6.11 6.11 0 0 0 2.66-.603c.845-.403 1.581-1.043 2.21-1.921.63-.879 1.131-2.006 1.505-3.384.374-1.377.561-3.045.561-5.006zm13.039-12.291a8.64 8.64 0 0 1 2.601.383 6.28 6.28 0 0 1 2.15 1.147 5.423 5.423 0 0 1 1.463 1.904c.357.76.535 1.638.535 2.635 0 .782-.122 1.487-.366 2.116a5.381 5.381 0 0 1-1.003 1.658 5.776 5.776 0 0 1-1.504 1.199 7.653 7.653 0 0 1-1.887.739c1.768.329 3.105 1.011 4.012 2.049.907 1.037 1.36 2.331 1.36 3.884 0 .986-.198 1.901-.595 2.745a6.678 6.678 0 0 1-1.632 2.185 7.609 7.609 0 0 1-2.448 1.437c-.94.345-1.96.518-3.06.518-1.371 0-2.513-.184-3.425-.553-.913-.368-1.664-.847-2.253-1.436a6.632 6.632 0 0 1-1.377-1.98 15.682 15.682 0 0 1-.799-2.185l.646-.272a.979.979 0 0 1 .57-.068c.198.034.342.164.433.391.057.136.133.348.23.637a6.85 6.85 0 0 0 1.121 2.04c.29.369.652.706 1.088 1.012.437.306.961.555 1.573.748.612.193 1.337.289 2.176.289 1.02 0 1.912-.17 2.677-.51.766-.34 1.406-.773 1.922-1.3a5.246 5.246 0 0 0 1.156-1.769 5.181 5.181 0 0 0 .382-1.895c0-.737-.116-1.422-.349-2.057a3.857 3.857 0 0 0-1.164-1.64c-.544-.46-1.26-.822-2.15-1.089-.89-.266-1.987-.399-3.29-.399v-1.173c1.043-.023 1.96-.161 2.754-.417.793-.255 1.456-.603 1.989-1.045a4.307 4.307 0 0 0 1.207-1.581 4.926 4.926 0 0 0 .408-2.023c0-.85-.142-1.587-.425-2.21a4.4 4.4 0 0 0-1.139-1.547 4.563 4.563 0 0 0-1.666-.901 6.81 6.81 0 0 0-1.989-.289 6.19 6.19 0 0 0-2.108.348 5.556 5.556 0 0 0-1.708.97 5.466 5.466 0 0 0-1.233 1.478 5.865 5.865 0 0 0-.68 1.879c-.068.25-.164.414-.289.493-.125.08-.3.108-.527.085l-.833-.136c.147-1.031.43-1.95.85-2.754a6.799 6.799 0 0 1 1.598-2.04 6.723 6.723 0 0 1 2.244-1.267 8.502 8.502 0 0 1 2.754-.433z" fill="#504FD8"/></g></svg>