<?xml version="1.0" standalone="no"?>
<!DOCTYPE svg PUBLIC "-//W3C//DTD SVG 20010904//EN"
 "http://www.w3.org/TR/2001/REC-SVG-20010904/DTD/svg10.dtd">
<svg version="1.0" xmlns="http://www.w3.org/2000/svg"
 width="700.000000pt" height="700.000000pt" viewBox="0 0 700.000000 700.000000"
 preserveAspectRatio="xMidYMid meet">
<metadata>
Created by potrace 1.11, written by Peter Selinger 2001-2013
</metadata>
<g transform="translate(0.000000,700.000000) scale(0.100000,-0.100000)"
fill="#000000" stroke="none">
<path d="M3777 6974 c-81 -19 -73 -14 -502 -289 -27 -18 -151 -96 -275 -175
-124 -78 -243 -154 -265 -170 -22 -15 -53 -34 -70 -42 -42 -21 -183 -68 -225
-74 -19 -3 -55 -10 -80 -15 -46 -8 -299 -5 -335 5 -81 22 -1080 302 -1120 314
-16 5 -59 8 -96 7 -153 -4 -297 -126 -329 -279 -15 -72 -11 -100 38 -301 22
-88 52 -212 67 -275 15 -63 45 -187 66 -275 22 -88 42 -171 44 -185 4 -22 19
-82 81 -320 33 -130 15 -316 -43 -440 -21 -46 -144 -241 -595 -947 -121 -190
-136 -226 -136 -328 0 -120 44 -224 125 -294 74 -66 129 -81 353 -96 41 -3 95
-7 120 -10 25 -2 79 -7 120 -10 41 -3 95 -8 120 -10 41 -3 85 -6 260 -20 65
-5 163 -13 242 -20 31 -3 99 -7 150 -10 51 -3 117 -10 145 -16 29 -6 56 -11
60 -11 5 0 36 -11 70 -24 101 -38 163 -75 230 -139 31 -30 421 -511 636 -785
136 -174 182 -221 242 -252 101 -52 243 -60 350 -18 69 27 154 105 180 166 18
42 154 403 159 419 1 6 10 27 19 49 9 21 17 41 17 45 0 6 94 259 110 296 5 11
14 37 21 58 7 20 16 37 19 37 4 0 148 -143 319 -317 439 -446 1418 -1437 1781
-1802 272 -274 313 -312 377 -345 201 -103 417 -69 588 91 116 108 175 237
180 387 3 127 -28 233 -98 331 -15 22 -555 568 -1200 1212 -644 645 -1168
1173 -1163 1173 4 0 110 30 234 66 125 36 306 88 402 116 186 54 227 74 290
141 100 107 134 255 89 390 -29 86 -66 134 -165 214 -21 17 -158 126 -304 243
-146 116 -281 224 -300 240 -19 15 -80 64 -135 108 -55 44 -120 103 -145 132
-25 29 -50 58 -55 64 -53 56 -148 235 -170 321 -20 78 -24 114 -30 275 -3 74
-7 194 -10 265 -11 281 -15 376 -20 525 -12 334 -20 381 -77 461 -88 123 -220
175 -361 143z"/>
</g>
</svg>
